$MeshFormat
4.1 0 8
$EndMeshFormat
$Entities
9 12 4 0
1 0 0 0 0 
2 0 0.5 0 0 
3 0 1 0 0 
4 0.5 0 0 0 
5 0.5 0.5 0 0 
6 0.5 1 0 0 
7 1 0 0 0 
8 1 0.5 0 0 
9 1 1 0 0 
1 0 0 0 0.5 0 0 0 2 1 -4 
2 0.5 0 0 1 0 0 0 2 4 -7 
3 0 0.5 0 0.5 0.5 0 0 2 2 -5 
4 0.5 0.5 0 1 0.5 0 0 2 5 -8 
5 0 1 0 0.5 1 0 0 2 3 -6 
6 0.5 1 0 1 1 0 0 2 6 -9 
7 0 0 0 0 0.5 0 0 2 1 -2 
8 0 0.5 0 0 1 0 0 2 2 -3 
9 0.5 0 0 0.5 0.5 0 0 2 4 -5 
10 0.5 0.5 0 0.5 1 0 0 2 5 -6 
11 1 0 0 1 0.5 0 0 2 7 -8 
12 1 0.5 0 1 1 0 0 2 8 -9 
1 0 0 0 0.5 0.5 0 0 4 1 9 -3 -7 
2 0 0.5 0 0.5 1 0 0 4 3 10 -5 -8 
3 0.5 0 0 1 0.5 0 0 4 2 11 -4 -9 
4 0.5 0.5 0 1 1 0 0 4 4 12 -6 -10 
$EndEntities
$Nodes
25 25 1 25
0 1 0 1
1
0 0 0
0 2 0 1
2
0 0.5 0
0 3 0 1
3
0 1 0
0 4 0 1
4
0.5 0 0
0 5 0 1
5
0.5 0.5 0
0 6 0 1
6
0.5 1 0
0 7 0 1
7
1 0 0
0 8 0 1
8
1 0.5 0
0 9 0 1
9
1 1 0
1 1 0 1
10
0.2499999999993471 0 0
1 2 0 1
11
0.7499999999999999 0 0
1 3 0 1
12
0.2499999999993471 0.5 0
1 4 0 1
13
0.7499999999999999 0.5 0
1 5 0 1
14
0.2499999999993471 1 0
1 6 0 1
15
0.7499999999999999 1 0
1 7 0 1
16
0 0.2499999999993471 0
1 8 0 1
17
0 0.7499999999999999 0
1 9 0 1
18
0.5 0.2499999999993471 0
1 10 0 1
19
0.5 0.7499999999999999 0
1 11 0 1
20
1 0.2499999999993471 0
1 12 0 1
21
1 0.7499999999999999 0
2 1 0 1
22
0.2499999999996736 0.2499999999996736 0
2 2 0 1
23
0.2499999999996736 0.75 0
2 3 0 1
24
0.75 0.2499999999996736 0
2 4 0 1
25
0.75 0.75 0
$EndNodes
$Elements
25 49 1 49
0 1 15 1
1 1 
0 2 15 1
2 2 
0 3 15 1
3 3 
0 4 15 1
4 4 
0 5 15 1
5 5 
0 6 15 1
6 6 
0 7 15 1
7 7 
0 8 15 1
8 8 
0 9 15 1
9 9 
1 1 1 2
10 1 10 
11 10 4 
1 2 1 2
12 4 11 
13 11 7 
1 3 1 2
14 2 12 
15 12 5 
1 4 1 2
16 5 13 
17 13 8 
1 5 1 2
18 3 14 
19 14 6 
1 6 1 2
20 6 15 
21 15 9 
1 7 1 2
22 1 16 
23 16 2 
1 8 1 2
24 2 17 
25 17 3 
1 9 1 2
26 4 18 
27 18 5 
1 10 1 2
28 5 19 
29 19 6 
1 11 1 2
30 7 20 
31 20 8 
1 12 1 2
32 8 21 
33 21 9 
2 1 3 4
34 4 18 22 10 
35 5 12 22 18 
36 2 16 22 12 
37 1 10 22 16 
2 2 3 4
38 5 19 23 12 
39 6 14 23 19 
40 3 17 23 14 
41 2 12 23 17 
2 3 3 4
42 7 20 24 11 
43 8 13 24 20 
44 5 18 24 13 
45 4 11 24 18 
2 4 3 4
46 8 21 25 13 
47 9 15 25 21 
48 6 19 25 15 
49 5 13 25 19 
$EndElements
