$MeshFormat
4.1 0 8
$EndMeshFormat
$Entities
81 144 64 0
1 0 0 0 0 
2 0 0.125 0 0 
3 0 0.25 0 0 
4 0 0.375 0 0 
5 0 0.5 0 0 
6 0 0.625 0 0 
7 0 0.75 0 0 
8 0 0.875 0 0 
9 0 1 0 0 
10 0.125 0 0 0 
11 0.125 0.125 0 0 
12 0.125 0.25 0 0 
13 0.125 0.375 0 0 
14 0.125 0.5 0 0 
15 0.125 0.625 0 0 
16 0.125 0.75 0 0 
17 0.125 0.875 0 0 
18 0.125 1 0 0 
19 0.25 0 0 0 
20 0.25 0.125 0 0 
21 0.25 0.25 0 0 
22 0.25 0.375 0 0 
23 0.25 0.5 0 0 
24 0.25 0.625 0 0 
25 0.25 0.75 0 0 
26 0.25 0.875 0 0 
27 0.25 1 0 0 
28 0.375 0 0 0 
29 0.375 0.125 0 0 
30 0.375 0.25 0 0 
31 0.375 0.375 0 0 
32 0.375 0.5 0 0 
33 0.375 0.625 0 0 
34 0.375 0.75 0 0 
35 0.375 0.875 0 0 
36 0.375 1 0 0 
37 0.5 0 0 0 
38 0.5 0.125 0 0 
39 0.5 0.25 0 0 
40 0.5 0.375 0 0 
41 0.5 0.5 0 0 
42 0.5 0.625 0 0 
43 0.5 0.75 0 0 
44 0.5 0.875 0 0 
45 0.5 1 0 0 
46 0.625 0 0 0 
47 0.625 0.125 0 0 
48 0.625 0.25 0 0 
49 0.625 0.375 0 0 
50 0.625 0.5 0 0 
51 0.625 0.625 0 0 
52 0.625 0.75 0 0 
53 0.625 0.875 0 0 
54 0.625 1 0 0 
55 0.75 0 0 0 
56 0.75 0.125 0 0 
57 0.75 0.25 0 0 
58 0.75 0.375 0 0 
59 0.75 0.5 0 0 
60 0.75 0.625 0 0 
61 0.75 0.75 0 0 
62 0.75 0.875 0 0 
63 0.75 1 0 0 
64 0.875 0 0 0 
65 0.875 0.125 0 0 
66 0.875 0.25 0 0 
67 0.875 0.375 0 0 
68 0.875 0.5 0 0 
69 0.875 0.625 0 0 
70 0.875 0.75 0 0 
71 0.875 0.875 0 0 
72 0.875 1 0 0 
73 1 0 0 0 
74 1 0.125 0 0 
75 1 0.25 0 0 
76 1 0.375 0 0 
77 1 0.5 0 0 
78 1 0.625 0 0 
79 1 0.75 0 0 
80 1 0.875 0 0 
81 1 1 0 0 
1 0 0 0 0.125 0 0 0 2 1 -10 
2 0.125 0 0 0.25 0 0 0 2 10 -19 
3 0.25 0 0 0.375 0 0 0 2 19 -28 
4 0.375 0 0 0.5 0 0 0 2 28 -37 
5 0.5 0 0 0.625 0 0 0 2 37 -46 
6 0.625 0 0 0.75 0 0 0 2 46 -55 
7 0.75 0 0 0.875 0 0 0 2 55 -64 
8 0.875 0 0 1 0 0 0 2 64 -73 
9 0 0.125 0 0.125 0.125 0 0 2 2 -11 
10 0.125 0.125 0 0.25 0.125 0 0 2 11 -20 
11 0.25 0.125 0 0.375 0.125 0 0 2 20 -29 
12 0.375 0.125 0 0.5 0.125 0 0 2 29 -38 
13 0.5 0.125 0 0.625 0.125 0 0 2 38 -47 
14 0.625 0.125 0 0.75 0.125 0 0 2 47 -56 
15 0.75 0.125 0 0.875 0.125 0 0 2 56 -65 
16 0.875 0.125 0 1 0.125 0 0 2 65 -74 
17 0 0.25 0 0.125 0.25 0 0 2 3 -12 
18 0.125 0.25 0 0.25 0.25 0 0 2 12 -21 
19 0.25 0.25 0 0.375 0.25 0 0 2 21 -30 
20 0.375 0.25 0 0.5 0.25 0 0 2 30 -39 
21 0.5 0.25 0 0.625 0.25 0 0 2 39 -48 
22 0.625 0.25 0 0.75 0.25 0 0 2 48 -57 
23 0.75 0.25 0 0.875 0.25 0 0 2 57 -66 
24 0.875 0.25 0 1 0.25 0 0 2 66 -75 
25 0 0.375 0 0.125 0.375 0 0 2 4 -13 
26 0.125 0.375 0 0.25 0.375 0 0 2 13 -22 
27 0.25 0.375 0 0.375 0.375 0 0 2 22 -31 
28 0.375 0.375 0 0.5 0.375 0 0 2 31 -40 
29 0.5 0.375 0 0.625 0.375 0 0 2 40 -49 
30 0.625 0.375 0 0.75 0.375 0 0 2 49 -58 
31 0.75 0.375 0 0.875 0.375 0 0 2 58 -67 
32 0.875 0.375 0 1 0.375 0 0 2 67 -76 
33 0 0.5 0 0.125 0.5 0 0 2 5 -14 
34 0.125 0.5 0 0.25 0.5 0 0 2 14 -23 
35 0.25 0.5 0 0.375 0.5 0 0 2 23 -32 
36 0.375 0.5 0 0.5 0.5 0 0 2 32 -41 
37 0.5 0.5 0 0.625 0.5 0 0 2 41 -50 
38 0.625 0.5 0 0.75 0.5 0 0 2 50 -59 
39 0.75 0.5 0 0.875 0.5 0 0 2 59 -68 
40 0.875 0.5 0 1 0.5 0 0 2 68 -77 
41 0 0.625 0 0.125 0.625 0 0 2 6 -15 
42 0.125 0.625 0 0.25 0.625 0 0 2 15 -24 
43 0.25 0.625 0 0.375 0.625 0 0 2 24 -33 
44 0.375 0.625 0 0.5 0.625 0 0 2 33 -42 
45 0.5 0.625 0 0.625 0.625 0 0 2 42 -51 
46 0.625 0.625 0 0.75 0.625 0 0 2 51 -60 
47 0.75 0.625 0 0.875 0.625 0 0 2 60 -69 
48 0.875 0.625 0 1 0.625 0 0 2 69 -78 
49 0 0.75 0 0.125 0.75 0 0 2 7 -16 
50 0.125 0.75 0 0.25 0.75 0 0 2 16 -25 
51 0.25 0.75 0 0.375 0.75 0 0 2 25 -34 
52 0.375 0.75 0 0.5 0.75 0 0 2 34 -43 
53 0.5 0.75 0 0.625 0.75 0 0 2 43 -52 
54 0.625 0.75 0 0.75 0.75 0 0 2 52 -61 
55 0.75 0.75 0 0.875 0.75 0 0 2 61 -70 
56 0.875 0.75 0 1 0.75 0 0 2 70 -79 
57 0 0.875 0 0.125 0.875 0 0 2 8 -17 
58 0.125 0.875 0 0.25 0.875 0 0 2 17 -26 
59 0.25 0.875 0 0.375 0.875 0 0 2 26 -35 
60 0.375 0.875 0 0.5 0.875 0 0 2 35 -44 
61 0.5 0.875 0 0.625 0.875 0 0 2 44 -53 
62 0.625 0.875 0 0.75 0.875 0 0 2 53 -62 
63 0.75 0.875 0 0.875 0.875 0 0 2 62 -71 
64 0.875 0.875 0 1 0.875 0 0 2 71 -80 
65 0 1 0 0.125 1 0 0 2 9 -18 
66 0.125 1 0 0.25 1 0 0 2 18 -27 
67 0.25 1 0 0.375 1 0 0 2 27 -36 
68 0.375 1 0 0.5 1 0 0 2 36 -45 
69 0.5 1 0 0.625 1 0 0 2 45 -54 
70 0.625 1 0 0.75 1 0 0 2 54 -63 
71 0.75 1 0 0.875 1 0 0 2 63 -72 
72 0.875 1 0 1 1 0 0 2 72 -81 
73 0 0 0 0 0.125 0 0 2 1 -2 
74 0 0.125 0 0 0.25 0 0 2 2 -3 
75 0 0.25 0 0 0.375 0 0 2 3 -4 
76 0 0.375 0 0 0.5 0 0 2 4 -5 
77 0 0.5 0 0 0.625 0 0 2 5 -6 
78 0 0.625 0 0 0.75 0 0 2 6 -7 
79 0 0.75 0 0 0.875 0 0 2 7 -8 
80 0 0.875 0 0 1 0 0 2 8 -9 
81 0.125 0 0 0.125 0.125 0 0 2 10 -11 
82 0.125 0.125 0 0.125 0.25 0 0 2 11 -12 
83 0.125 0.25 0 0.125 0.375 0 0 2 12 -13 
84 0.125 0.375 0 0.125 0.5 0 0 2 13 -14 
85 0.125 0.5 0 0.125 0.625 0 0 2 14 -15 
86 0.125 0.625 0 0.125 0.75 0 0 2 15 -16 
87 0.125 0.75 0 0.125 0.875 0 0 2 16 -17 
88 0.125 0.875 0 0.125 1 0 0 2 17 -18 
89 0.25 0 0 0.25 0.125 0 0 2 19 -20 
90 0.25 0.125 0 0.25 0.25 0 0 2 20 -21 
91 0.25 0.25 0 0.25 0.375 0 0 2 21 -22 
92 0.25 0.375 0 0.25 0.5 0 0 2 22 -23 
93 0.25 0.5 0 0.25 0.625 0 0 2 23 -24 
94 0.25 0.625 0 0.25 0.75 0 0 2 24 -25 
95 0.25 0.75 0 0.25 0.875 0 0 2 25 -26 
96 0.25 0.875 0 0.25 1 0 0 2 26 -27 
97 0.375 0 0 0.375 0.125 0 0 2 28 -29 
98 0.375 0.125 0 0.375 0.25 0 0 2 29 -30 
99 0.375 0.25 0 0.375 0.375 0 0 2 30 -31 
100 0.375 0.375 0 0.375 0.5 0 0 2 31 -32 
101 0.375 0.5 0 0.375 0.625 0 0 2 32 -33 
102 0.375 0.625 0 0.375 0.75 0 0 2 33 -34 
103 0.375 0.75 0 0.375 0.875 0 0 2 34 -35 
104 0.375 0.875 0 0.375 1 0 0 2 35 -36 
105 0.5 0 0 0.5 0.125 0 0 2 37 -38 
106 0.5 0.125 0 0.5 0.25 0 0 2 38 -39 
107 0.5 0.25 0 0.5 0.375 0 0 2 39 -40 
108 0.5 0.375 0 0.5 0.5 0 0 2 40 -41 
109 0.5 0.5 0 0.5 0.625 0 0 2 41 -42 
110 0.5 0.625 0 0.5 0.75 0 0 2 42 -43 
111 0.5 0.75 0 0.5 0.875 0 0 2 43 -44 
112 0.5 0.875 0 0.5 1 0 0 2 44 -45 
113 0.625 0 0 0.625 0.125 0 0 2 46 -47 
114 0.625 0.125 0 0.625 0.25 0 0 2 47 -48 
115 0.625 0.25 0 0.625 0.375 0 0 2 48 -49 
116 0.625 0.375 0 0.625 0.5 0 0 2 49 -50 
117 0.625 0.5 0 0.625 0.625 0 0 2 50 -51 
118 0.625 0.625 0 0.625 0.75 0 0 2 51 -52 
119 0.625 0.75 0 0.625 0.875 0 0 2 52 -53 
120 0.625 0.875 0 0.625 1 0 0 2 53 -54 
121 0.75 0 0 0.75 0.125 0 0 2 55 -56 
122 0.75 0.125 0 0.75 0.25 0 0 2 56 -57 
123 0.75 0.25 0 0.75 0.375 0 0 2 57 -58 
124 0.75 0.375 0 0.75 0.5 0 0 2 58 -59 
125 0.75 0.5 0 0.75 0.625 0 0 2 59 -60 
126 0.75 0.625 0 0.75 0.75 0 0 2 60 -61 
127 0.75 0.75 0 0.75 0.875 0 0 2 61 -62 
128 0.75 0.875 0 0.75 1 0 0 2 62 -63 
129 0.875 0 0 0.875 0.125 0 0 2 64 -65 
130 0.875 0.125 0 0.875 0.25 0 0 2 65 -66 
131 0.875 0.25 0 0.875 0.375 0 0 2 66 -67 
132 0.875 0.375 0 0.875 0.5 0 0 2 67 -68 
133 0.875 0.5 0 0.875 0.625 0 0 2 68 -69 
134 0.875 0.625 0 0.875 0.75 0 0 2 69 -70 
135 0.875 0.75 0 0.875 0.875 0 0 2 70 -71 
136 0.875 0.875 0 0.875 1 0 0 2 71 -72 
137 1 0 0 1 0.125 0 0 2 73 -74 
138 1 0.125 0 1 0.25 0 0 2 74 -75 
139 1 0.25 0 1 0.375 0 0 2 75 -76 
140 1 0.375 0 1 0.5 0 0 2 76 -77 
141 1 0.5 0 1 0.625 0 0 2 77 -78 
142 1 0.625 0 1 0.75 0 0 2 78 -79 
143 1 0.75 0 1 0.875 0 0 2 79 -80 
144 1 0.875 0 1 1 0 0 2 80 -81 
1 0 0 0 0.125 0.125 0 0 4 1 81 -9 -73 
2 0 0.125 0 0.125 0.25 0 0 4 9 82 -17 -74 
3 0 0.25 0 0.125 0.375 0 0 4 17 83 -25 -75 
4 0 0.375 0 0.125 0.5 0 0 4 25 84 -33 -76 
5 0 0.5 0 0.125 0.625 0 0 4 33 85 -41 -77 
6 0 0.625 0 0.125 0.75 0 0 4 41 86 -49 -78 
7 0 0.75 0 0.125 0.875 0 0 4 49 87 -57 -79 
8 0 0.875 0 0.125 1 0 0 4 57 88 -65 -80 
9 0.125 0 0 0.25 0.125 0 0 4 2 89 -10 -81 
10 0.125 0.125 0 0.25 0.25 0 0 4 10 90 -18 -82 
11 0.125 0.25 0 0.25 0.375 0 0 4 18 91 -26 -83 
12 0.125 0.375 0 0.25 0.5 0 0 4 26 92 -34 -84 
13 0.125 0.5 0 0.25 0.625 0 0 4 34 93 -42 -85 
14 0.125 0.625 0 0.25 0.75 0 0 4 42 94 -50 -86 
15 0.125 0.75 0 0.25 0.875 0 0 4 50 95 -58 -87 
16 0.125 0.875 0 0.25 1 0 0 4 58 96 -66 -88 
17 0.25 0 0 0.375 0.125 0 0 4 3 97 -11 -89 
18 0.25 0.125 0 0.375 0.25 0 0 4 11 98 -19 -90 
19 0.25 0.25 0 0.375 0.375 0 0 4 19 99 -27 -91 
20 0.25 0.375 0 0.375 0.5 0 0 4 27 100 -35 -92 
21 0.25 0.5 0 0.375 0.625 0 0 4 35 101 -43 -93 
22 0.25 0.625 0 0.375 0.75 0 0 4 43 102 -51 -94 
23 0.25 0.75 0 0.375 0.875 0 0 4 51 103 -59 -95 
24 0.25 0.875 0 0.375 1 0 0 4 59 104 -67 -96 
25 0.375 0 0 0.5 0.125 0 0 4 4 105 -12 -97 
26 0.375 0.125 0 0.5 0.25 0 0 4 12 106 -20 -98 
27 0.375 0.25 0 0.5 0.375 0 0 4 20 107 -28 -99 
28 0.375 0.375 0 0.5 0.5 0 0 4 28 108 -36 -100 
29 0.375 0.5 0 0.5 0.625 0 0 4 36 109 -44 -101 
30 0.375 0.625 0 0.5 0.75 0 0 4 44 110 -52 -102 
31 0.375 0.75 0 0.5 0.875 0 0 4 52 111 -60 -103 
32 0.375 0.875 0 0.5 1 0 0 4 60 112 -68 -104 
33 0.5 0 0 0.625 0.125 0 0 4 5 113 -13 -105 
34 0.5 0.125 0 0.625 0.25 0 0 4 13 114 -21 -106 
35 0.5 0.25 0 0.625 0.375 0 0 4 21 115 -29 -107 
36 0.5 0.375 0 0.625 0.5 0 0 4 29 116 -37 -108 
37 0.5 0.5 0 0.625 0.625 0 0 4 37 117 -45 -109 
38 0.5 0.625 0 0.625 0.75 0 0 4 45 118 -53 -110 
39 0.5 0.75 0 0.625 0.875 0 0 4 53 119 -61 -111 
40 0.5 0.875 0 0.625 1 0 0 4 61 120 -69 -112 
41 0.625 0 0 0.75 0.125 0 0 4 6 121 -14 -113 
42 0.625 0.125 0 0.75 0.25 0 0 4 14 122 -22 -114 
43 0.625 0.25 0 0.75 0.375 0 0 4 22 123 -30 -115 
44 0.625 0.375 0 0.75 0.5 0 0 4 30 124 -38 -116 
45 0.625 0.5 0 0.75 0.625 0 0 4 38 125 -46 -117 
46 0.625 0.625 0 0.75 0.75 0 0 4 46 126 -54 -118 
47 0.625 0.75 0 0.75 0.875 0 0 4 54 127 -62 -119 
48 0.625 0.875 0 0.75 1 0 0 4 62 128 -70 -120 
49 0.75 0 0 0.875 0.125 0 0 4 7 129 -15 -121 
50 0.75 0.125 0 0.875 0.25 0 0 4 15 130 -23 -122 
51 0.75 0.25 0 0.875 0.375 0 0 4 23 131 -31 -123 
52 0.75 0.375 0 0.875 0.5 0 0 4 31 132 -39 -124 
53 0.75 0.5 0 0.875 0.625 0 0 4 39 133 -47 -125 
54 0.75 0.625 0 0.875 0.75 0 0 4 47 134 -55 -126 
55 0.75 0.75 0 0.875 0.875 0 0 4 55 135 -63 -127 
56 0.75 0.875 0 0.875 1 0 0 4 63 136 -71 -128 
57 0.875 0 0 1 0.125 0 0 4 8 137 -16 -129 
58 0.875 0.125 0 1 0.25 0 0 4 16 138 -24 -130 
59 0.875 0.25 0 1 0.375 0 0 4 24 139 -32 -131 
60 0.875 0.375 0 1 0.5 0 0 4 32 140 -40 -132 
61 0.875 0.5 0 1 0.625 0 0 4 40 141 -48 -133 
62 0.875 0.625 0 1 0.75 0 0 4 48 142 -56 -134 
63 0.875 0.75 0 1 0.875 0 0 4 56 143 -64 -135 
64 0.875 0.875 0 1 1 0 0 4 64 144 -72 -136 
$EndEntities
$Nodes
289 289 1 289
0 1 0 1
1
0 0 0
0 2 0 1
2
0 0.125 0
0 3 0 1
3
0 0.25 0
0 4 0 1
4
0 0.375 0
0 5 0 1
5
0 0.5 0
0 6 0 1
6
0 0.625 0
0 7 0 1
7
0 0.75 0
0 8 0 1
8
0 0.875 0
0 9 0 1
9
0 1 0
0 10 0 1
10
0.125 0 0
0 11 0 1
11
0.125 0.125 0
0 12 0 1
12
0.125 0.25 0
0 13 0 1
13
0.125 0.375 0
0 14 0 1
14
0.125 0.5 0
0 15 0 1
15
0.125 0.625 0
0 16 0 1
16
0.125 0.75 0
0 17 0 1
17
0.125 0.875 0
0 18 0 1
18
0.125 1 0
0 19 0 1
19
0.25 0 0
0 20 0 1
20
0.25 0.125 0
0 21 0 1
21
0.25 0.25 0
0 22 0 1
22
0.25 0.375 0
0 23 0 1
23
0.25 0.5 0
0 24 0 1
24
0.25 0.625 0
0 25 0 1
25
0.25 0.75 0
0 26 0 1
26
0.25 0.875 0
0 27 0 1
27
0.25 1 0
0 28 0 1
28
0.375 0 0
0 29 0 1
29
0.375 0.125 0
0 30 0 1
30
0.375 0.25 0
0 31 0 1
31
0.375 0.375 0
0 32 0 1
32
0.375 0.5 0
0 33 0 1
33
0.375 0.625 0
0 34 0 1
34
0.375 0.75 0
0 35 0 1
35
0.375 0.875 0
0 36 0 1
36
0.375 1 0
0 37 0 1
37
0.5 0 0
0 38 0 1
38
0.5 0.125 0
0 39 0 1
39
0.5 0.25 0
0 40 0 1
40
0.5 0.375 0
0 41 0 1
41
0.5 0.5 0
0 42 0 1
42
0.5 0.625 0
0 43 0 1
43
0.5 0.75 0
0 44 0 1
44
0.5 0.875 0
0 45 0 1
45
0.5 1 0
0 46 0 1
46
0.625 0 0
0 47 0 1
47
0.625 0.125 0
0 48 0 1
48
0.625 0.25 0
0 49 0 1
49
0.625 0.375 0
0 50 0 1
50
0.625 0.5 0
0 51 0 1
51
0.625 0.625 0
0 52 0 1
52
0.625 0.75 0
0 53 0 1
53
0.625 0.875 0
0 54 0 1
54
0.625 1 0
0 55 0 1
55
0.75 0 0
0 56 0 1
56
0.75 0.125 0
0 57 0 1
57
0.75 0.25 0
0 58 0 1
58
0.75 0.375 0
0 59 0 1
59
0.75 0.5 0
0 60 0 1
60
0.75 0.625 0
0 61 0 1
61
0.75 0.75 0
0 62 0 1
62
0.75 0.875 0
0 63 0 1
63
0.75 1 0
0 64 0 1
64
0.875 0 0
0 65 0 1
65
0.875 0.125 0
0 66 0 1
66
0.875 0.25 0
0 67 0 1
67
0.875 0.375 0
0 68 0 1
68
0.875 0.5 0
0 69 0 1
69
0.875 0.625 0
0 70 0 1
70
0.875 0.75 0
0 71 0 1
71
0.875 0.875 0
0 72 0 1
72
0.875 1 0
0 73 0 1
73
1 0 0
0 74 0 1
74
1 0.125 0
0 75 0 1
75
1 0.25 0
0 76 0 1
76
1 0.375 0
0 77 0 1
77
1 0.5 0
0 78 0 1
78
1 0.625 0
0 79 0 1
79
1 0.75 0
0 80 0 1
80
1 0.875 0
0 81 0 1
81
1 1 0
1 1 0 1
82
0.06249999999983678 0 0
1 2 0 1
83
0.1875 0 0
1 3 0 1
84
0.3124999999999999 0 0
1 4 0 1
85
0.4374999999999999 0 0
1 5 0 1
86
0.5625 0 0
1 6 0 1
87
0.6875 0 0
1 7 0 1
88
0.8125 0 0
1 8 0 1
89
0.9375 0 0
1 9 0 1
90
0.06249999999983678 0.125 0
1 10 0 1
91
0.1875 0.125 0
1 11 0 1
92
0.3124999999999999 0.125 0
1 12 0 1
93
0.4374999999999999 0.125 0
1 13 0 1
94
0.5625 0.125 0
1 14 0 1
95
0.6875 0.125 0
1 15 0 1
96
0.8125 0.125 0
1 16 0 1
97
0.9375 0.125 0
1 17 0 1
98
0.06249999999983678 0.25 0
1 18 0 1
99
0.1875 0.25 0
1 19 0 1
100
0.3124999999999999 0.25 0
1 20 0 1
101
0.4374999999999999 0.25 0
1 21 0 1
102
0.5625 0.25 0
1 22 0 1
103
0.6875 0.25 0
1 23 0 1
104
0.8125 0.25 0
1 24 0 1
105
0.9375 0.25 0
1 25 0 1
106
0.06249999999983678 0.375 0
1 26 0 1
107
0.1875 0.375 0
1 27 0 1
108
0.3124999999999999 0.375 0
1 28 0 1
109
0.4374999999999999 0.375 0
1 29 0 1
110
0.5625 0.375 0
1 30 0 1
111
0.6875 0.375 0
1 31 0 1
112
0.8125 0.375 0
1 32 0 1
113
0.9375 0.375 0
1 33 0 1
114
0.06249999999983678 0.5 0
1 34 0 1
115
0.1875 0.5 0
1 35 0 1
116
0.3124999999999999 0.5 0
1 36 0 1
117
0.4374999999999999 0.5 0
1 37 0 1
118
0.5625 0.5 0
1 38 0 1
119
0.6875 0.5 0
1 39 0 1
120
0.8125 0.5 0
1 40 0 1
121
0.9375 0.5 0
1 41 0 1
122
0.06249999999983678 0.625 0
1 42 0 1
123
0.1875 0.625 0
1 43 0 1
124
0.3124999999999999 0.625 0
1 44 0 1
125
0.4374999999999999 0.625 0
1 45 0 1
126
0.5625 0.625 0
1 46 0 1
127
0.6875 0.625 0
1 47 0 1
128
0.8125 0.625 0
1 48 0 1
129
0.9375 0.625 0
1 49 0 1
130
0.06249999999983678 0.75 0
1 50 0 1
131
0.1875 0.75 0
1 51 0 1
132
0.3124999999999999 0.75 0
1 52 0 1
133
0.4374999999999999 0.75 0
1 53 0 1
134
0.5625 0.75 0
1 54 0 1
135
0.6875 0.75 0
1 55 0 1
136
0.8125 0.75 0
1 56 0 1
137
0.9375 0.75 0
1 57 0 1
138
0.06249999999983678 0.875 0
1 58 0 1
139
0.1875 0.875 0
1 59 0 1
140
0.3124999999999999 0.875 0
1 60 0 1
141
0.4374999999999999 0.875 0
1 61 0 1
142
0.5625 0.875 0
1 62 0 1
143
0.6875 0.875 0
1 63 0 1
144
0.8125 0.875 0
1 64 0 1
145
0.9375 0.875 0
1 65 0 1
146
0.06249999999983678 1 0
1 66 0 1
147
0.1875 1 0
1 67 0 1
148
0.3124999999999999 1 0
1 68 0 1
149
0.4374999999999999 1 0
1 69 0 1
150
0.5625 1 0
1 70 0 1
151
0.6875 1 0
1 71 0 1
152
0.8125 1 0
1 72 0 1
153
0.9375 1 0
1 73 0 1
154
0 0.06249999999983678 0
1 74 0 1
155
0 0.1875 0
1 75 0 1
156
0 0.3124999999999999 0
1 76 0 1
157
0 0.4374999999999999 0
1 77 0 1
158
0 0.5625 0
1 78 0 1
159
0 0.6875 0
1 79 0 1
160
0 0.8125 0
1 80 0 1
161
0 0.9375 0
1 81 0 1
162
0.125 0.06249999999983678 0
1 82 0 1
163
0.125 0.1875 0
1 83 0 1
164
0.125 0.3124999999999999 0
1 84 0 1
165
0.125 0.4374999999999999 0
1 85 0 1
166
0.125 0.5625 0
1 86 0 1
167
0.125 0.6875 0
1 87 0 1
168
0.125 0.8125 0
1 88 0 1
169
0.125 0.9375 0
1 89 0 1
170
0.25 0.06249999999983678 0
1 90 0 1
171
0.25 0.1875 0
1 91 0 1
172
0.25 0.3124999999999999 0
1 92 0 1
173
0.25 0.4374999999999999 0
1 93 0 1
174
0.25 0.5625 0
1 94 0 1
175
0.25 0.6875 0
1 95 0 1
176
0.25 0.8125 0
1 96 0 1
177
0.25 0.9375 0
1 97 0 1
178
0.375 0.06249999999983678 0
1 98 0 1
179
0.375 0.1875 0
1 99 0 1
180
0.375 0.3124999999999999 0
1 100 0 1
181
0.375 0.4374999999999999 0
1 101 0 1
182
0.375 0.5625 0
1 102 0 1
183
0.375 0.6875 0
1 103 0 1
184
0.375 0.8125 0
1 104 0 1
185
0.375 0.9375 0
1 105 0 1
186
0.5 0.06249999999983678 0
1 106 0 1
187
0.5 0.1875 0
1 107 0 1
188
0.5 0.3124999999999999 0
1 108 0 1
189
0.5 0.4374999999999999 0
1 109 0 1
190
0.5 0.5625 0
1 110 0 1
191
0.5 0.6875 0
1 111 0 1
192
0.5 0.8125 0
1 112 0 1
193
0.5 0.9375 0
1 113 0 1
194
0.625 0.06249999999983678 0
1 114 0 1
195
0.625 0.1875 0
1 115 0 1
196
0.625 0.3124999999999999 0
1 116 0 1
197
0.625 0.4374999999999999 0
1 117 0 1
198
0.625 0.5625 0
1 118 0 1
199
0.625 0.6875 0
1 119 0 1
200
0.625 0.8125 0
1 120 0 1
201
0.625 0.9375 0
1 121 0 1
202
0.75 0.06249999999983678 0
1 122 0 1
203
0.75 0.1875 0
1 123 0 1
204
0.75 0.3124999999999999 0
1 124 0 1
205
0.75 0.4374999999999999 0
1 125 0 1
206
0.75 0.5625 0
1 126 0 1
207
0.75 0.6875 0
1 127 0 1
208
0.75 0.8125 0
1 128 0 1
209
0.75 0.9375 0
1 129 0 1
210
0.875 0.06249999999983678 0
1 130 0 1
211
0.875 0.1875 0
1 131 0 1
212
0.875 0.3124999999999999 0
1 132 0 1
213
0.875 0.4374999999999999 0
1 133 0 1
214
0.875 0.5625 0
1 134 0 1
215
0.875 0.6875 0
1 135 0 1
216
0.875 0.8125 0
1 136 0 1
217
0.875 0.9375 0
1 137 0 1
218
1 0.06249999999983678 0
1 138 0 1
219
1 0.1875 0
1 139 0 1
220
1 0.3124999999999999 0
1 140 0 1
221
1 0.4374999999999999 0
1 141 0 1
222
1 0.5625 0
1 142 0 1
223
1 0.6875 0
1 143 0 1
224
1 0.8125 0
1 144 0 1
225
1 0.9375 0
2 1 0 1
226
0.0624999999999184 0.0624999999999184 0
2 2 0 1
227
0.0624999999999184 0.1875 0
2 3 0 1
228
0.0624999999999184 0.3125 0
2 4 0 1
229
0.0624999999999184 0.4375 0
2 5 0 1
230
0.0624999999999184 0.5625 0
2 6 0 1
231
0.0624999999999184 0.6875 0
2 7 0 1
232
0.0624999999999184 0.8125 0
2 8 0 1
233
0.0624999999999184 0.9375 0
2 9 0 1
234
0.1875 0.0624999999999184 0
2 10 0 1
235
0.1875 0.1875 0
2 11 0 1
236
0.1875 0.3125 0
2 12 0 1
237
0.1875 0.4375 0
2 13 0 1
238
0.1875 0.5625 0
2 14 0 1
239
0.1875 0.6875 0
2 15 0 1
240
0.1875 0.8125 0
2 16 0 1
241
0.1875 0.9375 0
2 17 0 1
242
0.3125 0.0624999999999184 0
2 18 0 1
243
0.3125 0.1875 0
2 19 0 1
244
0.3125 0.3125 0
2 20 0 1
245
0.3125 0.4375 0
2 21 0 1
246
0.3125 0.5625 0
2 22 0 1
247
0.3125 0.6875 0
2 23 0 1
248
0.3125 0.8125 0
2 24 0 1
249
0.3125 0.9375 0
2 25 0 1
250
0.4375 0.0624999999999184 0
2 26 0 1
251
0.4375 0.1875 0
2 27 0 1
252
0.4375 0.3125 0
2 28 0 1
253
0.4375 0.4375 0
2 29 0 1
254
0.4375 0.5625 0
2 30 0 1
255
0.4375 0.6875 0
2 31 0 1
256
0.4375 0.8125 0
2 32 0 1
257
0.4375 0.9375 0
2 33 0 1
258
0.5625 0.0624999999999184 0
2 34 0 1
259
0.5625 0.1875 0
2 35 0 1
260
0.5625 0.3125 0
2 36 0 1
261
0.5625 0.4375 0
2 37 0 1
262
0.5625 0.5625 0
2 38 0 1
263
0.5625 0.6875 0
2 39 0 1
264
0.5625 0.8125 0
2 40 0 1
265
0.5625 0.9375 0
2 41 0 1
266
0.6875 0.0624999999999184 0
2 42 0 1
267
0.6875 0.1875 0
2 43 0 1
268
0.6875 0.3125 0
2 44 0 1
269
0.6875 0.4375 0
2 45 0 1
270
0.6875 0.5625 0
2 46 0 1
271
0.6875 0.6875 0
2 47 0 1
272
0.6875 0.8125 0
2 48 0 1
273
0.6875 0.9375 0
2 49 0 1
274
0.8125 0.0624999999999184 0
2 50 0 1
275
0.8125 0.1875 0
2 51 0 1
276
0.8125 0.3125 0
2 52 0 1
277
0.8125 0.4375 0
2 53 0 1
278
0.8125 0.5625 0
2 54 0 1
279
0.8125 0.6875 0
2 55 0 1
280
0.8125 0.8125 0
2 56 0 1
281
0.8125 0.9375 0
2 57 0 1
282
0.9375 0.0624999999999184 0
2 58 0 1
283
0.9375 0.1875 0
2 59 0 1
284
0.9375 0.3125 0
2 60 0 1
285
0.9375 0.4375 0
2 61 0 1
286
0.9375 0.5625 0
2 62 0 1
287
0.9375 0.6875 0
2 63 0 1
288
0.9375 0.8125 0
2 64 0 1
289
0.9375 0.9375 0
$EndNodes
$Elements
289 625 1 625
0 1 15 1
1 1 
0 2 15 1
2 2 
0 3 15 1
3 3 
0 4 15 1
4 4 
0 5 15 1
5 5 
0 6 15 1
6 6 
0 7 15 1
7 7 
0 8 15 1
8 8 
0 9 15 1
9 9 
0 10 15 1
10 10 
0 11 15 1
11 11 
0 12 15 1
12 12 
0 13 15 1
13 13 
0 14 15 1
14 14 
0 15 15 1
15 15 
0 16 15 1
16 16 
0 17 15 1
17 17 
0 18 15 1
18 18 
0 19 15 1
19 19 
0 20 15 1
20 20 
0 21 15 1
21 21 
0 22 15 1
22 22 
0 23 15 1
23 23 
0 24 15 1
24 24 
0 25 15 1
25 25 
0 26 15 1
26 26 
0 27 15 1
27 27 
0 28 15 1
28 28 
0 29 15 1
29 29 
0 30 15 1
30 30 
0 31 15 1
31 31 
0 32 15 1
32 32 
0 33 15 1
33 33 
0 34 15 1
34 34 
0 35 15 1
35 35 
0 36 15 1
36 36 
0 37 15 1
37 37 
0 38 15 1
38 38 
0 39 15 1
39 39 
0 40 15 1
40 40 
0 41 15 1
41 41 
0 42 15 1
42 42 
0 43 15 1
43 43 
0 44 15 1
44 44 
0 45 15 1
45 45 
0 46 15 1
46 46 
0 47 15 1
47 47 
0 48 15 1
48 48 
0 49 15 1
49 49 
0 50 15 1
50 50 
0 51 15 1
51 51 
0 52 15 1
52 52 
0 53 15 1
53 53 
0 54 15 1
54 54 
0 55 15 1
55 55 
0 56 15 1
56 56 
0 57 15 1
57 57 
0 58 15 1
58 58 
0 59 15 1
59 59 
0 60 15 1
60 60 
0 61 15 1
61 61 
0 62 15 1
62 62 
0 63 15 1
63 63 
0 64 15 1
64 64 
0 65 15 1
65 65 
0 66 15 1
66 66 
0 67 15 1
67 67 
0 68 15 1
68 68 
0 69 15 1
69 69 
0 70 15 1
70 70 
0 71 15 1
71 71 
0 72 15 1
72 72 
0 73 15 1
73 73 
0 74 15 1
74 74 
0 75 15 1
75 75 
0 76 15 1
76 76 
0 77 15 1
77 77 
0 78 15 1
78 78 
0 79 15 1
79 79 
0 80 15 1
80 80 
0 81 15 1
81 81 
1 1 1 2
82 1 82 
83 82 10 
1 2 1 2
84 10 83 
85 83 19 
1 3 1 2
86 19 84 
87 84 28 
1 4 1 2
88 28 85 
89 85 37 
1 5 1 2
90 37 86 
91 86 46 
1 6 1 2
92 46 87 
93 87 55 
1 7 1 2
94 55 88 
95 88 64 
1 8 1 2
96 64 89 
97 89 73 
1 9 1 2
98 2 90 
99 90 11 
1 10 1 2
100 11 91 
101 91 20 
1 11 1 2
102 20 92 
103 92 29 
1 12 1 2
104 29 93 
105 93 38 
1 13 1 2
106 38 94 
107 94 47 
1 14 1 2
108 47 95 
109 95 56 
1 15 1 2
110 56 96 
111 96 65 
1 16 1 2
112 65 97 
113 97 74 
1 17 1 2
114 3 98 
115 98 12 
1 18 1 2
116 12 99 
117 99 21 
1 19 1 2
118 21 100 
119 100 30 
1 20 1 2
120 30 101 
121 101 39 
1 21 1 2
122 39 102 
123 102 48 
1 22 1 2
124 48 103 
125 103 57 
1 23 1 2
126 57 104 
127 104 66 
1 24 1 2
128 66 105 
129 105 75 
1 25 1 2
130 4 106 
131 106 13 
1 26 1 2
132 13 107 
133 107 22 
1 27 1 2
134 22 108 
135 108 31 
1 28 1 2
136 31 109 
137 109 40 
1 29 1 2
138 40 110 
139 110 49 
1 30 1 2
140 49 111 
141 111 58 
1 31 1 2
142 58 112 
143 112 67 
1 32 1 2
144 67 113 
145 113 76 
1 33 1 2
146 5 114 
147 114 14 
1 34 1 2
148 14 115 
149 115 23 
1 35 1 2
150 23 116 
151 116 32 
1 36 1 2
152 32 117 
153 117 41 
1 37 1 2
154 41 118 
155 118 50 
1 38 1 2
156 50 119 
157 119 59 
1 39 1 2
158 59 120 
159 120 68 
1 40 1 2
160 68 121 
161 121 77 
1 41 1 2
162 6 122 
163 122 15 
1 42 1 2
164 15 123 
165 123 24 
1 43 1 2
166 24 124 
167 124 33 
1 44 1 2
168 33 125 
169 125 42 
1 45 1 2
170 42 126 
171 126 51 
1 46 1 2
172 51 127 
173 127 60 
1 47 1 2
174 60 128 
175 128 69 
1 48 1 2
176 69 129 
177 129 78 
1 49 1 2
178 7 130 
179 130 16 
1 50 1 2
180 16 131 
181 131 25 
1 51 1 2
182 25 132 
183 132 34 
1 52 1 2
184 34 133 
185 133 43 
1 53 1 2
186 43 134 
187 134 52 
1 54 1 2
188 52 135 
189 135 61 
1 55 1 2
190 61 136 
191 136 70 
1 56 1 2
192 70 137 
193 137 79 
1 57 1 2
194 8 138 
195 138 17 
1 58 1 2
196 17 139 
197 139 26 
1 59 1 2
198 26 140 
199 140 35 
1 60 1 2
200 35 141 
201 141 44 
1 61 1 2
202 44 142 
203 142 53 
1 62 1 2
204 53 143 
205 143 62 
1 63 1 2
206 62 144 
207 144 71 
1 64 1 2
208 71 145 
209 145 80 
1 65 1 2
210 9 146 
211 146 18 
1 66 1 2
212 18 147 
213 147 27 
1 67 1 2
214 27 148 
215 148 36 
1 68 1 2
216 36 149 
217 149 45 
1 69 1 2
218 45 150 
219 150 54 
1 70 1 2
220 54 151 
221 151 63 
1 71 1 2
222 63 152 
223 152 72 
1 72 1 2
224 72 153 
225 153 81 
1 73 1 2
226 1 154 
227 154 2 
1 74 1 2
228 2 155 
229 155 3 
1 75 1 2
230 3 156 
231 156 4 
1 76 1 2
232 4 157 
233 157 5 
1 77 1 2
234 5 158 
235 158 6 
1 78 1 2
236 6 159 
237 159 7 
1 79 1 2
238 7 160 
239 160 8 
1 80 1 2
240 8 161 
241 161 9 
1 81 1 2
242 10 162 
243 162 11 
1 82 1 2
244 11 163 
245 163 12 
1 83 1 2
246 12 164 
247 164 13 
1 84 1 2
248 13 165 
249 165 14 
1 85 1 2
250 14 166 
251 166 15 
1 86 1 2
252 15 167 
253 167 16 
1 87 1 2
254 16 168 
255 168 17 
1 88 1 2
256 17 169 
257 169 18 
1 89 1 2
258 19 170 
259 170 20 
1 90 1 2
260 20 171 
261 171 21 
1 91 1 2
262 21 172 
263 172 22 
1 92 1 2
264 22 173 
265 173 23 
1 93 1 2
266 23 174 
267 174 24 
1 94 1 2
268 24 175 
269 175 25 
1 95 1 2
270 25 176 
271 176 26 
1 96 1 2
272 26 177 
273 177 27 
1 97 1 2
274 28 178 
275 178 29 
1 98 1 2
276 29 179 
277 179 30 
1 99 1 2
278 30 180 
279 180 31 
1 100 1 2
280 31 181 
281 181 32 
1 101 1 2
282 32 182 
283 182 33 
1 102 1 2
284 33 183 
285 183 34 
1 103 1 2
286 34 184 
287 184 35 
1 104 1 2
288 35 185 
289 185 36 
1 105 1 2
290 37 186 
291 186 38 
1 106 1 2
292 38 187 
293 187 39 
1 107 1 2
294 39 188 
295 188 40 
1 108 1 2
296 40 189 
297 189 41 
1 109 1 2
298 41 190 
299 190 42 
1 110 1 2
300 42 191 
301 191 43 
1 111 1 2
302 43 192 
303 192 44 
1 112 1 2
304 44 193 
305 193 45 
1 113 1 2
306 46 194 
307 194 47 
1 114 1 2
308 47 195 
309 195 48 
1 115 1 2
310 48 196 
311 196 49 
1 116 1 2
312 49 197 
313 197 50 
1 117 1 2
314 50 198 
315 198 51 
1 118 1 2
316 51 199 
317 199 52 
1 119 1 2
318 52 200 
319 200 53 
1 120 1 2
320 53 201 
321 201 54 
1 121 1 2
322 55 202 
323 202 56 
1 122 1 2
324 56 203 
325 203 57 
1 123 1 2
326 57 204 
327 204 58 
1 124 1 2
328 58 205 
329 205 59 
1 125 1 2
330 59 206 
331 206 60 
1 126 1 2
332 60 207 
333 207 61 
1 127 1 2
334 61 208 
335 208 62 
1 128 1 2
336 62 209 
337 209 63 
1 129 1 2
338 64 210 
339 210 65 
1 130 1 2
340 65 211 
341 211 66 
1 131 1 2
342 66 212 
343 212 67 
1 132 1 2
344 67 213 
345 213 68 
1 133 1 2
346 68 214 
347 214 69 
1 134 1 2
348 69 215 
349 215 70 
1 135 1 2
350 70 216 
351 216 71 
1 136 1 2
352 71 217 
353 217 72 
1 137 1 2
354 73 218 
355 218 74 
1 138 1 2
356 74 219 
357 219 75 
1 139 1 2
358 75 220 
359 220 76 
1 140 1 2
360 76 221 
361 221 77 
1 141 1 2
362 77 222 
363 222 78 
1 142 1 2
364 78 223 
365 223 79 
1 143 1 2
366 79 224 
367 224 80 
1 144 1 2
368 80 225 
369 225 81 
2 1 3 4
370 10 162 226 82 
371 11 90 226 162 
372 2 154 226 90 
373 1 82 226 154 
2 2 3 4
374 11 163 227 90 
375 12 98 227 163 
376 3 155 227 98 
377 2 90 227 155 
2 3 3 4
378 12 164 228 98 
379 13 106 228 164 
380 4 156 228 106 
381 3 98 228 156 
2 4 3 4
382 13 165 229 106 
383 14 114 229 165 
384 5 157 229 114 
385 4 106 229 157 
2 5 3 4
386 14 166 230 114 
387 15 122 230 166 
388 6 158 230 122 
389 5 114 230 158 
2 6 3 4
390 15 167 231 122 
391 16 130 231 167 
392 7 159 231 130 
393 6 122 231 159 
2 7 3 4
394 16 168 232 130 
395 17 138 232 168 
396 8 160 232 138 
397 7 130 232 160 
2 8 3 4
398 17 169 233 138 
399 18 146 233 169 
400 9 161 233 146 
401 8 138 233 161 
2 9 3 4
402 19 170 234 83 
403 20 91 234 170 
404 11 162 234 91 
405 10 83 234 162 
2 10 3 4
406 20 171 235 91 
407 21 99 235 171 
408 12 163 235 99 
409 11 91 235 163 
2 11 3 4
410 21 172 236 99 
411 22 107 236 172 
412 13 164 236 107 
413 12 99 236 164 
2 12 3 4
414 22 173 237 107 
415 23 115 237 173 
416 14 165 237 115 
417 13 107 237 165 
2 13 3 4
418 23 174 238 115 
419 24 123 238 174 
420 15 166 238 123 
421 14 115 238 166 
2 14 3 4
422 24 175 239 123 
423 25 131 239 175 
424 16 167 239 131 
425 15 123 239 167 
2 15 3 4
426 25 176 240 131 
427 26 139 240 176 
428 17 168 240 139 
429 16 131 240 168 
2 16 3 4
430 26 177 241 139 
431 27 147 241 177 
432 18 169 241 147 
433 17 139 241 169 
2 17 3 4
434 28 178 242 84 
435 29 92 242 178 
436 20 170 242 92 
437 19 84 242 170 
2 18 3 4
438 29 179 243 92 
439 30 100 243 179 
440 21 171 243 100 
441 20 92 243 171 
2 19 3 4
442 30 180 244 100 
443 31 108 244 180 
444 22 172 244 108 
445 21 100 244 172 
2 20 3 4
446 31 181 245 108 
447 32 116 245 181 
448 23 173 245 116 
449 22 108 245 173 
2 21 3 4
450 32 182 246 116 
451 33 124 246 182 
452 24 174 246 124 
453 23 116 246 174 
2 22 3 4
454 33 183 247 124 
455 34 132 247 183 
456 25 175 247 132 
457 24 124 247 175 
2 23 3 4
458 34 184 248 132 
459 35 140 248 184 
460 26 176 248 140 
461 25 132 248 176 
2 24 3 4
462 35 185 249 140 
463 36 148 249 185 
464 27 177 249 148 
465 26 140 249 177 
2 25 3 4
466 37 186 250 85 
467 38 93 250 186 
468 29 178 250 93 
469 28 85 250 178 
2 26 3 4
470 38 187 251 93 
471 39 101 251 187 
472 30 179 251 101 
473 29 93 251 179 
2 27 3 4
474 39 188 252 101 
475 40 109 252 188 
476 31 180 252 109 
477 30 101 252 180 
2 28 3 4
478 40 189 253 109 
479 41 117 253 189 
480 32 181 253 117 
481 31 109 253 181 
2 29 3 4
482 41 190 254 117 
483 42 125 254 190 
484 33 182 254 125 
485 32 117 254 182 
2 30 3 4
486 42 191 255 125 
487 43 133 255 191 
488 34 183 255 133 
489 33 125 255 183 
2 31 3 4
490 43 192 256 133 
491 44 141 256 192 
492 35 184 256 141 
493 34 133 256 184 
2 32 3 4
494 44 193 257 141 
495 45 149 257 193 
496 36 185 257 149 
497 35 141 257 185 
2 33 3 4
498 46 194 258 86 
499 47 94 258 194 
500 38 186 258 94 
501 37 86 258 186 
2 34 3 4
502 47 195 259 94 
503 48 102 259 195 
504 39 187 259 102 
505 38 94 259 187 
2 35 3 4
506 48 196 260 102 
507 49 110 260 196 
508 40 188 260 110 
509 39 102 260 188 
2 36 3 4
510 49 197 261 110 
511 50 118 261 197 
512 41 189 261 118 
513 40 110 261 189 
2 37 3 4
514 50 198 262 118 
515 51 126 262 198 
516 42 190 262 126 
517 41 118 262 190 
2 38 3 4
518 51 199 263 126 
519 52 134 263 199 
520 43 191 263 134 
521 42 126 263 191 
2 39 3 4
522 52 200 264 134 
523 53 142 264 200 
524 44 192 264 142 
525 43 134 264 192 
2 40 3 4
526 53 201 265 142 
527 54 150 265 201 
528 45 193 265 150 
529 44 142 265 193 
2 41 3 4
530 55 202 266 87 
531 56 95 266 202 
532 47 194 266 95 
533 46 87 266 194 
2 42 3 4
534 56 203 267 95 
535 57 103 267 203 
536 48 195 267 103 
537 47 95 267 195 
2 43 3 4
538 57 204 268 103 
539 58 111 268 204 
540 49 196 268 111 
541 48 103 268 196 
2 44 3 4
542 58 205 269 111 
543 59 119 269 205 
544 50 197 269 119 
545 49 111 269 197 
2 45 3 4
546 59 206 270 119 
547 60 127 270 206 
548 51 198 270 127 
549 50 119 270 198 
2 46 3 4
550 60 207 271 127 
551 61 135 271 207 
552 52 199 271 135 
553 51 127 271 199 
2 47 3 4
554 61 208 272 135 
555 62 143 272 208 
556 53 200 272 143 
557 52 135 272 200 
2 48 3 4
558 62 209 273 143 
559 63 151 273 209 
560 54 201 273 151 
561 53 143 273 201 
2 49 3 4
562 64 210 274 88 
563 65 96 274 210 
564 56 202 274 96 
565 55 88 274 202 
2 50 3 4
566 65 211 275 96 
567 66 104 275 211 
568 57 203 275 104 
569 56 96 275 203 
2 51 3 4
570 66 212 276 104 
571 67 112 276 212 
572 58 204 276 112 
573 57 104 276 204 
2 52 3 4
574 67 213 277 112 
575 68 120 277 213 
576 59 205 277 120 
577 58 112 277 205 
2 53 3 4
578 68 214 278 120 
579 69 128 278 214 
580 60 206 278 128 
581 59 120 278 206 
2 54 3 4
582 69 215 279 128 
583 70 136 279 215 
584 61 207 279 136 
585 60 128 279 207 
2 55 3 4
586 70 216 280 136 
587 71 144 280 216 
588 62 208 280 144 
589 61 136 280 208 
2 56 3 4
590 71 217 281 144 
591 72 152 281 217 
592 63 209 281 152 
593 62 144 281 209 
2 57 3 4
594 73 218 282 89 
595 74 97 282 218 
596 65 210 282 97 
597 64 89 282 210 
2 58 3 4
598 74 219 283 97 
599 75 105 283 219 
600 66 211 283 105 
601 65 97 283 211 
2 59 3 4
602 75 220 284 105 
603 76 113 284 220 
604 67 212 284 113 
605 66 105 284 212 
2 60 3 4
606 76 221 285 113 
607 77 121 285 221 
608 68 213 285 121 
609 67 113 285 213 
2 61 3 4
610 77 222 286 121 
611 78 129 286 222 
612 69 214 286 129 
613 68 121 286 214 
2 62 3 4
614 78 223 287 129 
615 79 137 287 223 
616 70 215 287 137 
617 69 129 287 215 
2 63 3 4
618 79 224 288 137 
619 80 145 288 224 
620 71 216 288 145 
621 70 137 288 216 
2 64 3 4
622 80 225 289 145 
623 81 153 289 225 
624 72 217 289 153 
625 71 145 289 217 
$EndElements
