$MeshFormat
4.1 0 8
$EndMeshFormat
$Entities
4 4 1 0
1 0 0 0 0 
2 0 1 0 0 
3 1 0 0 0 
4 1 1 0 0 
1 0 0 0 1 0 0 0 2 1 -3 
2 0 1 0 1 1 0 0 2 2 -4 
3 0 0 0 0 1 0 0 2 1 -2 
4 1 0 0 1 1 0 0 2 3 -4 
1 0 0 0 1 1 0 0 4 1 4 -2 -3 
$EndEntities
$Nodes
9 9 1 9
0 1 0 1
1
0 0 0
0 2 0 1
2
0 1 0
0 3 0 1
3
1 0 0
0 4 0 1
4
1 1 0
1 1 0 1
5
0.4999999999986943 0 0
1 2 0 1
6
0.4999999999986943 1 0
1 3 0 1
7
0 0.4999999999986943 0
1 4 0 1
8
1 0.4999999999986943 0
2 1 0 1
9
0.4999999999993472 0.4999999999993472 0
$EndNodes
$Elements
9 16 1 16
0 1 15 1
1 1 
0 2 15 1
2 2 
0 3 15 1
3 3 
0 4 15 1
4 4 
1 1 1 2
5 1 5 
6 5 3 
1 2 1 2
7 2 6 
8 6 4 
1 3 1 2
9 1 7 
10 7 2 
1 4 1 2
11 3 8 
12 8 4 
2 1 3 4
13 3 8 9 5 
14 4 6 9 8 
15 2 7 9 6 
16 1 5 9 7 
$EndElements
