$MeshFormat
4.1 0 8
$EndMeshFormat
$Entities
25 40 16 0
1 0 0 0 0 
2 0 0.25 0 0 
3 0 0.5 0 0 
4 0 0.75 0 0 
5 0 1 0 0 
6 0.25 0 0 0 
7 0.25 0.25 0 0 
8 0.25 0.5 0 0 
9 0.25 0.75 0 0 
10 0.25 1 0 0 
11 0.5 0 0 0 
12 0.5 0.25 0 0 
13 0.5 0.5 0 0 
14 0.5 0.75 0 0 
15 0.5 1 0 0 
16 0.75 0 0 0 
17 0.75 0.25 0 0 
18 0.75 0.5 0 0 
19 0.75 0.75 0 0 
20 0.75 1 0 0 
21 1 0 0 0 
22 1 0.25 0 0 
23 1 0.5 0 0 
24 1 0.75 0 0 
25 1 1 0 0 
1 0 0 0 0.25 0 0 0 2 1 -6 
2 0.25 0 0 0.5 0 0 0 2 6 -11 
3 0.5 0 0 0.75 0 0 0 2 11 -16 
4 0.75 0 0 1 0 0 0 2 16 -21 
5 0 0.25 0 0.25 0.25 0 0 2 2 -7 
6 0.25 0.25 0 0.5 0.25 0 0 2 7 -12 
7 0.5 0.25 0 0.75 0.25 0 0 2 12 -17 
8 0.75 0.25 0 1 0.25 0 0 2 17 -22 
9 0 0.5 0 0.25 0.5 0 0 2 3 -8 
10 0.25 0.5 0 0.5 0.5 0 0 2 8 -13 
11 0.5 0.5 0 0.75 0.5 0 0 2 13 -18 
12 0.75 0.5 0 1 0.5 0 0 2 18 -23 
13 0 0.75 0 0.25 0.75 0 0 2 4 -9 
14 0.25 0.75 0 0.5 0.75 0 0 2 9 -14 
15 0.5 0.75 0 0.75 0.75 0 0 2 14 -19 
16 0.75 0.75 0 1 0.75 0 0 2 19 -24 
17 0 1 0 0.25 1 0 0 2 5 -10 
18 0.25 1 0 0.5 1 0 0 2 10 -15 
19 0.5 1 0 0.75 1 0 0 2 15 -20 
20 0.75 1 0 1 1 0 0 2 20 -25 
21 0 0 0 0 0.25 0 0 2 1 -2 
22 0 0.25 0 0 0.5 0 0 2 2 -3 
23 0 0.5 0 0 0.75 0 0 2 3 -4 
24 0 0.75 0 0 1 0 0 2 4 -5 
25 0.25 0 0 0.25 0.25 0 0 2 6 -7 
26 0.25 0.25 0 0.25 0.5 0 0 2 7 -8 
27 0.25 0.5 0 0.25 0.75 0 0 2 8 -9 
28 0.25 0.75 0 0.25 1 0 0 2 9 -10 
29 0.5 0 0 0.5 0.25 0 0 2 11 -12 
30 0.5 0.25 0 0.5 0.5 0 0 2 12 -13 
31 0.5 0.5 0 0.5 0.75 0 0 2 13 -14 
32 0.5 0.75 0 0.5 1 0 0 2 14 -15 
33 0.75 0 0 0.75 0.25 0 0 2 16 -17 
34 0.75 0.25 0 0.75 0.5 0 0 2 17 -18 
35 0.75 0.5 0 0.75 0.75 0 0 2 18 -19 
36 0.75 0.75 0 0.75 1 0 0 2 19 -20 
37 1 0 0 1 0.25 0 0 2 21 -22 
38 1 0.25 0 1 0.5 0 0 2 22 -23 
39 1 0.5 0 1 0.75 0 0 2 23 -24 
40 1 0.75 0 1 1 0 0 2 24 -25 
1 0 0 0 0.25 0.25 0 0 4 1 25 -5 -21 
2 0 0.25 0 0.25 0.5 0 0 4 5 26 -9 -22 
3 0 0.5 0 0.25 0.75 0 0 4 9 27 -13 -23 
4 0 0.75 0 0.25 1 0 0 4 13 28 -17 -24 
5 0.25 0 0 0.5 0.25 0 0 4 2 29 -6 -25 
6 0.25 0.25 0 0.5 0.5 0 0 4 6 30 -10 -26 
7 0.25 0.5 0 0.5 0.75 0 0 4 10 31 -14 -27 
8 0.25 0.75 0 0.5 1 0 0 4 14 32 -18 -28 
9 0.5 0 0 0.75 0.25 0 0 4 3 33 -7 -29 
10 0.5 0.25 0 0.75 0.5 0 0 4 7 34 -11 -30 
11 0.5 0.5 0 0.75 0.75 0 0 4 11 35 -15 -31 
12 0.5 0.75 0 0.75 1 0 0 4 15 36 -19 -32 
13 0.75 0 0 1 0.25 0 0 4 4 37 -8 -33 
14 0.75 0.25 0 1 0.5 0 0 4 8 38 -12 -34 
15 0.75 0.5 0 1 0.75 0 0 4 12 39 -16 -35 
16 0.75 0.75 0 1 1 0 0 4 16 40 -20 -36 
$EndEntities
$Nodes
81 81 1 81
0 1 0 1
1
0 0 0
0 2 0 1
2
0 0.25 0
0 3 0 1
3
0 0.5 0
0 4 0 1
4
0 0.75 0
0 5 0 1
5
0 1 0
0 6 0 1
6
0.25 0 0
0 7 0 1
7
0.25 0.25 0
0 8 0 1
8
0.25 0.5 0
0 9 0 1
9
0.25 0.75 0
0 10 0 1
10
0.25 1 0
0 11 0 1
11
0.5 0 0
0 12 0 1
12
0.5 0.25 0
0 13 0 1
13
0.5 0.5 0
0 14 0 1
14
0.5 0.75 0
0 15 0 1
15
0.5 1 0
0 16 0 1
16
0.75 0 0
0 17 0 1
17
0.75 0.25 0
0 18 0 1
18
0.75 0.5 0
0 19 0 1
19
0.75 0.75 0
0 20 0 1
20
0.75 1 0
0 21 0 1
21
1 0 0
0 22 0 1
22
1 0.25 0
0 23 0 1
23
1 0.5 0
0 24 0 1
24
1 0.75 0
0 25 0 1
25
1 1 0
1 1 0 1
26
0.1249999999996736 0 0
1 2 0 1
27
0.3749999999999999 0 0
1 3 0 1
28
0.6249999999999999 0 0
1 4 0 1
29
0.8749999999999999 0 0
1 5 0 1
30
0.1249999999996736 0.25 0
1 6 0 1
31
0.3749999999999999 0.25 0
1 7 0 1
32
0.6249999999999999 0.25 0
1 8 0 1
33
0.8749999999999999 0.25 0
1 9 0 1
34
0.1249999999996736 0.5 0
1 10 0 1
35
0.3749999999999999 0.5 0
1 11 0 1
36
0.6249999999999999 0.5 0
1 12 0 1
37
0.8749999999999999 0.5 0
1 13 0 1
38
0.1249999999996736 0.75 0
1 14 0 1
39
0.3749999999999999 0.75 0
1 15 0 1
40
0.6249999999999999 0.75 0
1 16 0 1
41
0.8749999999999999 0.75 0
1 17 0 1
42
0.1249999999996736 1 0
1 18 0 1
43
0.3749999999999999 1 0
1 19 0 1
44
0.6249999999999999 1 0
1 20 0 1
45
0.8749999999999999 1 0
1 21 0 1
46
0 0.1249999999996736 0
1 22 0 1
47
0 0.3749999999999999 0
1 23 0 1
48
0 0.6249999999999999 0
1 24 0 1
49
0 0.8749999999999999 0
1 25 0 1
50
0.25 0.1249999999996736 0
1 26 0 1
51
0.25 0.3749999999999999 0
1 27 0 1
52
0.25 0.6249999999999999 0
1 28 0 1
53
0.25 0.8749999999999999 0
1 29 0 1
54
0.5 0.1249999999996736 0
1 30 0 1
55
0.5 0.3749999999999999 0
1 31 0 1
56
0.5 0.6249999999999999 0
1 32 0 1
57
0.5 0.8749999999999999 0
1 33 0 1
58
0.75 0.1249999999996736 0
1 34 0 1
59
0.75 0.3749999999999999 0
1 35 0 1
60
0.75 0.6249999999999999 0
1 36 0 1
61
0.75 0.8749999999999999 0
1 37 0 1
62
1 0.1249999999996736 0
1 38 0 1
63
1 0.3749999999999999 0
1 39 0 1
64
1 0.6249999999999999 0
1 40 0 1
65
1 0.8749999999999999 0
2 1 0 1
66
0.1249999999998368 0.1249999999998368 0
2 2 0 1
67
0.1249999999998368 0.375 0
2 3 0 1
68
0.1249999999998368 0.625 0
2 4 0 1
69
0.1249999999998368 0.875 0
2 5 0 1
70
0.375 0.1249999999998368 0
2 6 0 1
71
0.375 0.375 0
2 7 0 1
72
0.375 0.625 0
2 8 0 1
73
0.375 0.875 0
2 9 0 1
74
0.625 0.1249999999998368 0
2 10 0 1
75
0.625 0.375 0
2 11 0 1
76
0.625 0.625 0
2 12 0 1
77
0.625 0.875 0
2 13 0 1
78
0.875 0.1249999999998368 0
2 14 0 1
79
0.875 0.375 0
2 15 0 1
80
0.875 0.625 0
2 16 0 1
81
0.875 0.875 0
$EndNodes
$Elements
81 169 1 169
0 1 15 1
1 1 
0 2 15 1
2 2 
0 3 15 1
3 3 
0 4 15 1
4 4 
0 5 15 1
5 5 
0 6 15 1
6 6 
0 7 15 1
7 7 
0 8 15 1
8 8 
0 9 15 1
9 9 
0 10 15 1
10 10 
0 11 15 1
11 11 
0 12 15 1
12 12 
0 13 15 1
13 13 
0 14 15 1
14 14 
0 15 15 1
15 15 
0 16 15 1
16 16 
0 17 15 1
17 17 
0 18 15 1
18 18 
0 19 15 1
19 19 
0 20 15 1
20 20 
0 21 15 1
21 21 
0 22 15 1
22 22 
0 23 15 1
23 23 
0 24 15 1
24 24 
0 25 15 1
25 25 
1 1 1 2
26 1 26 
27 26 6 
1 2 1 2
28 6 27 
29 27 11 
1 3 1 2
30 11 28 
31 28 16 
1 4 1 2
32 16 29 
33 29 21 
1 5 1 2
34 2 30 
35 30 7 
1 6 1 2
36 7 31 
37 31 12 
1 7 1 2
38 12 32 
39 32 17 
1 8 1 2
40 17 33 
41 33 22 
1 9 1 2
42 3 34 
43 34 8 
1 10 1 2
44 8 35 
45 35 13 
1 11 1 2
46 13 36 
47 36 18 
1 12 1 2
48 18 37 
49 37 23 
1 13 1 2
50 4 38 
51 38 9 
1 14 1 2
52 9 39 
53 39 14 
1 15 1 2
54 14 40 
55 40 19 
1 16 1 2
56 19 41 
57 41 24 
1 17 1 2
58 5 42 
59 42 10 
1 18 1 2
60 10 43 
61 43 15 
1 19 1 2
62 15 44 
63 44 20 
1 20 1 2
64 20 45 
65 45 25 
1 21 1 2
66 1 46 
67 46 2 
1 22 1 2
68 2 47 
69 47 3 
1 23 1 2
70 3 48 
71 48 4 
1 24 1 2
72 4 49 
73 49 5 
1 25 1 2
74 6 50 
75 50 7 
1 26 1 2
76 7 51 
77 51 8 
1 27 1 2
78 8 52 
79 52 9 
1 28 1 2
80 9 53 
81 53 10 
1 29 1 2
82 11 54 
83 54 12 
1 30 1 2
84 12 55 
85 55 13 
1 31 1 2
86 13 56 
87 56 14 
1 32 1 2
88 14 57 
89 57 15 
1 33 1 2
90 16 58 
91 58 17 
1 34 1 2
92 17 59 
93 59 18 
1 35 1 2
94 18 60 
95 60 19 
1 36 1 2
96 19 61 
97 61 20 
1 37 1 2
98 21 62 
99 62 22 
1 38 1 2
100 22 63 
101 63 23 
1 39 1 2
102 23 64 
103 64 24 
1 40 1 2
104 24 65 
105 65 25 
2 1 3 4
106 6 50 66 26 
107 7 30 66 50 
108 2 46 66 30 
109 1 26 66 46 
2 2 3 4
110 7 51 67 30 
111 8 34 67 51 
112 3 47 67 34 
113 2 30 67 47 
2 3 3 4
114 8 52 68 34 
115 9 38 68 52 
116 4 48 68 38 
117 3 34 68 48 
2 4 3 4
118 9 53 69 38 
119 10 42 69 53 
120 5 49 69 42 
121 4 38 69 49 
2 5 3 4
122 11 54 70 27 
123 12 31 70 54 
124 7 50 70 31 
125 6 27 70 50 
2 6 3 4
126 12 55 71 31 
127 13 35 71 55 
128 8 51 71 35 
129 7 31 71 51 
2 7 3 4
130 13 56 72 35 
131 14 39 72 56 
132 9 52 72 39 
133 8 35 72 52 
2 8 3 4
134 14 57 73 39 
135 15 43 73 57 
136 10 53 73 43 
137 9 39 73 53 
2 9 3 4
138 16 58 74 28 
139 17 32 74 58 
140 12 54 74 32 
141 11 28 74 54 
2 10 3 4
142 17 59 75 32 
143 18 36 75 59 
144 13 55 75 36 
145 12 32 75 55 
2 11 3 4
146 18 60 76 36 
147 19 40 76 60 
148 14 56 76 40 
149 13 36 76 56 
2 12 3 4
150 19 61 77 40 
151 20 44 77 61 
152 15 57 77 44 
153 14 40 77 57 
2 13 3 4
154 21 62 78 29 
155 22 33 78 62 
156 17 58 78 33 
157 16 29 78 58 
2 14 3 4
158 22 63 79 33 
159 23 37 79 63 
160 18 59 79 37 
161 17 33 79 59 
2 15 3 4
162 23 64 80 37 
163 24 41 80 64 
164 19 60 80 41 
165 18 37 80 60 
2 16 3 4
166 24 65 81 41 
167 25 45 81 65 
168 20 61 81 45 
169 19 41 81 61 
$EndElements
