NODES 697
0 0
0 0.125
0 0.25
0 0.375
0 0.5
0 0.625
0 0.75
0 0.875
0 1
0.125 0
0.125 0.125
0.125 0.25
0.125 0.375
0.125 0.5
0.125 0.625
0.125 0.75
0.125 0.875
0.125 1
0.25 0
0.25 0.125
0.25 0.25
0.25 0.375
0.25 0.5
0.25 0.625
0.25 0.75
0.25 0.875
0.25 1
0.375 0
0.375 0.125
0.375 0.25
0.375 0.375
0.375 0.5
0.375 0.625
0.375 0.75
0.375 0.875
0.375 1
0.5 0
0.5 0.125
0.5 0.25
0.5 0.375
0.5 0.5
0.5 0.625
0.5 0.75
0.5 0.875
0.5 1
0.625 0
0.625 0.125
0.625 0.25
0.625 0.375
0.625 0.5
0.625 0.625
0.625 0.75
0.625 0.875
0.625 1
0.75 0
0.75 0.125
0.75 0.25
0.75 0.375
0.75 0.5
0.75 0.625
0.75 0.75
0.75 0.875
0.75 1
0.875 0
0.875 0.125
0.875 0.25
0.875 0.375
0.875 0.5
0.875 0.625
0.875 0.75
0.875 0.875
0.875 1
1 0
1 0.125
1 0.25
1 0.375
1 0.5
1 0.625
1 0.75
1 0.875
1 1
0.062499999999836783 0
0.1875 0
0.31249999999999989 0
0.43749999999999989 0
0.5625 0
0.6875 0
0.8125 0
0.9375 0
0.062499999999836783 0.125
0.1875 0.125
0.31249999999999989 0.125
0.43749999999999989 0.125
0.5625 0.125
0.6875 0.125
0.8125 0.125
0.9375 0.125
0.062499999999836783 0.25
0.1875 0.25
0.31249999999999989 0.25
0.43749999999999989 0.25
0.5625 0.25
0.6875 0.25
0.8125 0.25
0.9375 0.25
0.062499999999836783 0.375
0.1875 0.375
0.31249999999999989 0.375
0.43749999999999989 0.375
0.5625 0.375
0.6875 0.375
0.8125 0.375
0.9375 0.375
0.062499999999836783 0.5
0.1875 0.5
0.31249999999999989 0.5
0.43749999999999989 0.5
0.5625 0.5
0.6875 0.5
0.8125 0.5
0.9375 0.5
0.062499999999836783 0.625
0.1875 0.625
0.31249999999999989 0.625
0.43749999999999989 0.625
0.5625 0.625
0.6875 0.625
0.8125 0.625
0.9375 0.625
0.062499999999836783 0.75
0.1875 0.75
0.31249999999999989 0.75
0.43749999999999989 0.75
0.5625 0.75
0.6875 0.75
0.8125 0.75
0.9375 0.75
0.062499999999836783 0.875
0.1875 0.875
0.31249999999999989 0.875
0.43749999999999989 0.875
0.5625 0.875
0.6875 0.875
0.8125 0.875
0.9375 0.875
0.062499999999836783 1
0.1875 1
0.31249999999999989 1
0.43749999999999989 1
0.5625 1
0.6875 1
0.8125 1
0.9375 1
0 0.062499999999836783
0 0.1875
0 0.31249999999999989
0 0.43749999999999989
0 0.5625
0 0.6875
0 0.8125
0 0.9375
0.125 0.062499999999836783
0.125 0.1875
0.125 0.31249999999999989
0.125 0.43749999999999989
0.125 0.5625
0.125 0.6875
0.125 0.8125
0.125 0.9375
0.25 0.062499999999836783
0.25 0.1875
0.25 0.31249999999999989
0.25 0.43749999999999989
0.25 0.5625
0.25 0.6875
0.25 0.8125
0.25 0.9375
0.375 0.062499999999836783
0.375 0.1875
0.375 0.31249999999999989
0.375 0.43749999999999989
0.375 0.5625
0.375 0.6875
0.375 0.8125
0.375 0.9375
0.5 0.062499999999836783
0.5 0.1875
0.5 0.31249999999999989
0.5 0.43749999999999989
0.5 0.5625
0.5 0.6875
0.5 0.8125
0.5 0.9375
0.625 0.062499999999836783
0.625 0.1875
0.625 0.31249999999999989
0.625 0.43749999999999989
0.625 0.5625
0.625 0.6875
0.625 0.8125
0.625 0.9375
0.75 0.062499999999836783
0.75 0.1875
0.75 0.31249999999999989
0.75 0.43749999999999989
0.75 0.5625
0.75 0.6875
0.75 0.8125
0.75 0.9375
0.875 0.062499999999836783
0.875 0.1875
0.875 0.31249999999999989
0.875 0.43749999999999989
0.875 0.5625
0.875 0.6875
0.875 0.8125
0.875 0.9375
1 0.062499999999836783
1 0.1875
1 0.31249999999999989
1 0.43749999999999989
1 0.5625
1 0.6875
1 0.8125
1 0.9375
0.062499999999918399 0.062499999999918399
0.062499999999918399 0.1875
0.062499999999918399 0.3125
0.062499999999918399 0.4375
0.062499999999918399 0.5625
0.062499999999918399 0.6875
0.062499999999918399 0.8125
0.062499999999918399 0.9375
0.1875 0.062499999999918399
0.1875 0.1875
0.1875 0.3125
0.1875 0.4375
0.1875 0.5625
0.1875 0.6875
0.1875 0.8125
0.1875 0.9375
0.3125 0.062499999999918399
0.3125 0.1875
0.3125 0.3125
0.3125 0.4375
0.3125 0.5625
0.3125 0.6875
0.3125 0.8125
0.3125 0.9375
0.4375 0.062499999999918399
0.4375 0.1875
0.4375 0.3125
0.4375 0.4375
0.4375 0.5625
0.4375 0.6875
0.4375 0.8125
0.4375 0.9375
0.5625 0.062499999999918399
0.5625 0.1875
0.5625 0.3125
0.5625 0.4375
0.5625 0.5625
0.5625 0.6875
0.5625 0.8125
0.5625 0.9375
0.6875 0.062499999999918399
0.6875 0.1875
0.6875 0.3125
0.6875 0.4375
0.6875 0.5625
0.6875 0.6875
0.6875 0.8125
0.6875 0.9375
0.8125 0.062499999999918399
0.8125 0.1875
0.8125 0.3125
0.8125 0.4375
0.8125 0.5625
0.8125 0.6875
0.8125 0.8125
0.8125 0.9375
0.9375 0.062499999999918399
0.9375 0.1875
0.9375 0.3125
0.9375 0.4375
0.9375 0.5625
0.9375 0.6875
0.9375 0.8125
0.9375 0.9375
0.375 0.031249999999918392
0.34375 0.062499999999877591
0.31249999999999994 0.031249999999959199
0.34374999999999994 0
0.34374999999999994 0.125
0.31249999999999994 0.093749999999959199
0.375 0.093749999999918399
0.25 0.093749999999918399
0.28125 0.062499999999877591
0.28124999999999994 0.125
0.28124999999999994 0
0.25 0.031249999999918392
0.375 0.15625
0.34375 0.1875
0.31249999999999994 0.15625
0.34374999999999994 0.25
0.31249999999999994 0.21875
0.375 0.21875
0.25 0.21875
0.28125 0.1875
0.28124999999999994 0.25
0.25 0.15625
0.375 0.28124999999999994
0.34375 0.31249999999999994
0.31249999999999994 0.28125
0.34374999999999994 0.375
0.31249999999999994 0.34375
0.375 0.34374999999999994
0.25 0.34374999999999994
0.28125 0.31249999999999994
0.28124999999999994 0.375
0.25 0.28124999999999994
0.375 0.40624999999999994
0.34375 0.43749999999999994
0.31249999999999994 0.40625
0.34374999999999994 0.5
0.31249999999999994 0.46875
0.375 0.46874999999999994
0.25 0.46874999999999994
0.28125 0.43749999999999994
0.28124999999999994 0.5
0.25 0.40624999999999994
0.375 0.53125
0.34375 0.5625
0.31249999999999994 0.53125
0.34374999999999994 0.625
0.31249999999999994 0.59375
0.375 0.59375
0.25 0.59375
0.28125 0.5625
0.28124999999999994 0.625
0.25 0.53125
0.375 0.65625
0.34375 0.6875
0.31249999999999994 0.65625
0.34374999999999994 0.75
0.31249999999999994 0.71875
0.375 0.71875
0.25 0.71875
0.28125 0.6875
0.28124999999999994 0.75
0.25 0.65625
0.375 0.78125
0.34375 0.8125
0.31249999999999994 0.78125
0.34374999999999994 0.875
0.31249999999999994 0.84375
0.375 0.84375
0.25 0.84375
0.28125 0.8125
0.28124999999999994 0.875
0.25 0.78125
0.375 0.90625
0.34375 0.9375
0.31249999999999994 0.90625
0.34374999999999994 1
0.31249999999999994 0.96875
0.375 0.96875
0.25 0.96875
0.28125 0.9375
0.28124999999999994 1
0.25 0.90625
0.5 0.031249999999918392
0.46875 0.062499999999877591
0.43749999999999994 0.031249999999959199
0.46874999999999994 0
0.46874999999999994 0.125
0.43749999999999994 0.093749999999959199
0.5 0.093749999999918399
0.40625 0.062499999999877591
0.40624999999999994 0.125
0.40624999999999994 0
0.5 0.15625
0.46875 0.1875
0.43749999999999994 0.15625
0.46874999999999994 0.25
0.43749999999999994 0.21875
0.5 0.21875
0.40625 0.1875
0.40624999999999994 0.25
0.5 0.28124999999999994
0.46875 0.31249999999999994
0.43749999999999994 0.28125
0.46874999999999994 0.375
0.43749999999999994 0.34375
0.5 0.34374999999999994
0.40625 0.31249999999999994
0.40624999999999994 0.375
0.5 0.40624999999999994
0.46875 0.43749999999999994
0.43749999999999994 0.40625
0.46874999999999994 0.5
0.43749999999999994 0.46875
0.5 0.46874999999999994
0.40625 0.43749999999999994
0.40624999999999994 0.5
0.5 0.53125
0.46875 0.5625
0.43749999999999994 0.53125
0.46874999999999994 0.625
0.43749999999999994 0.59375
0.5 0.59375
0.40625 0.5625
0.40624999999999994 0.625
0.5 0.65625
0.46875 0.6875
0.43749999999999994 0.65625
0.46874999999999994 0.75
0.43749999999999994 0.71875
0.5 0.71875
0.40625 0.6875
0.40624999999999994 0.75
0.5 0.78125
0.46875 0.8125
0.43749999999999994 0.78125
0.46874999999999994 0.875
0.43749999999999994 0.84375
0.5 0.84375
0.40625 0.8125
0.40624999999999994 0.875
0.5 0.90625
0.46875 0.9375
0.43749999999999994 0.90625
0.46874999999999994 1
0.43749999999999994 0.96875
0.5 0.96875
0.40625 0.9375
0.40624999999999994 1
0.625 0.031249999999918392
0.59375 0.062499999999877591
0.5625 0.031249999999959199
0.59375 0
0.59375 0.125
0.5625 0.093749999999959199
0.625 0.093749999999918399
0.53125 0.062499999999877591
0.53125 0.125
0.53125 0
0.625 0.15625
0.59375 0.1875
0.5625 0.15625
0.59375 0.25
0.5625 0.21875
0.625 0.21875
0.53125 0.1875
0.53125 0.25
0.625 0.28124999999999994
0.59375 0.31249999999999994
0.5625 0.28125
0.59375 0.375
0.5625 0.34375
0.625 0.34374999999999994
0.53125 0.31249999999999994
0.53125 0.375
0.625 0.40624999999999994
0.59375 0.43749999999999994
0.5625 0.40625
0.59375 0.5
0.5625 0.46875
0.625 0.46874999999999994
0.53125 0.43749999999999994
0.53125 0.5
0.625 0.53125
0.59375 0.5625
0.5625 0.53125
0.59375 0.625
0.5625 0.59375
0.625 0.59375
0.53125 0.5625
0.53125 0.625
0.625 0.65625
0.59375 0.6875
0.5625 0.65625
0.59375 0.75
0.5625 0.71875
0.625 0.71875
0.53125 0.6875
0.53125 0.75
0.625 0.78125
0.59375 0.8125
0.5625 0.78125
0.59375 0.875
0.5625 0.84375
0.625 0.84375
0.53125 0.8125
0.53125 0.875
0.625 0.90625
0.59375 0.9375
0.5625 0.90625
0.59375 1
0.5625 0.96875
0.625 0.96875
0.53125 0.9375
0.53125 1
0.75 0.031249999999918392
0.71875 0.062499999999877591
0.6875 0.031249999999959199
0.71875 0
0.71875 0.125
0.6875 0.093749999999959199
0.75 0.093749999999918399
0.65625 0.062499999999877591
0.65625 0.125
0.65625 0
0.75 0.15625
0.71875 0.1875
0.6875 0.15625
0.71875 0.25
0.6875 0.21875
0.75 0.21875
0.65625 0.1875
0.65625 0.25
0.75 0.28124999999999994
0.71875 0.31249999999999994
0.6875 0.28125
0.71875 0.375
0.6875 0.34375
0.75 0.34374999999999994
0.65625 0.31249999999999994
0.65625 0.375
0.75 0.40624999999999994
0.71875 0.43749999999999994
0.6875 0.40625
0.71875 0.5
0.6875 0.46875
0.75 0.46874999999999994
0.65625 0.43749999999999994
0.65625 0.5
0.75 0.53125
0.71875 0.5625
0.6875 0.53125
0.71875 0.625
0.6875 0.59375
0.75 0.59375
0.65625 0.5625
0.65625 0.625
0.75 0.65625
0.71875 0.6875
0.6875 0.65625
0.71875 0.75
0.6875 0.71875
0.75 0.71875
0.65625 0.6875
0.65625 0.75
0.75 0.78125
0.71875 0.8125
0.6875 0.78125
0.71875 0.875
0.6875 0.84375
0.75 0.84375
0.65625 0.8125
0.65625 0.875
0.75 0.90625
0.71875 0.9375
0.6875 0.90625
0.71875 1
0.6875 0.96875
0.75 0.96875
0.65625 0.9375
0.65625 1
0.34375 0.031249999999938795
0.34375 0.093749999999938799
0.28125 0.093749999999938799
0.28125 0.031249999999938795
0.34375 0.15625
0.34375 0.21875
0.28125 0.21875
0.28125 0.15625
0.34375 0.28125
0.34375 0.34375
0.28125 0.34375
0.28125 0.28125
0.34375 0.40625
0.34375 0.46875
0.28125 0.46875
0.28125 0.40625
0.34375 0.53125
0.34375 0.59375
0.28125 0.59375
0.28125 0.53125
0.34375 0.65625
0.34375 0.71875
0.28125 0.71875
0.28125 0.65625
0.34375 0.78125
0.34375 0.84375
0.28125 0.84375
0.28125 0.78125
0.34375 0.90625
0.34375 0.96875
0.28125 0.96875
0.28125 0.90625
0.46875 0.031249999999938795
0.46875 0.093749999999938799
0.40625 0.093749999999938799
0.40625 0.031249999999938795
0.46875 0.15625
0.46875 0.21875
0.40625 0.21875
0.40625 0.15625
0.46875 0.28125
0.46875 0.34375
0.40625 0.34375
0.40625 0.28125
0.46875 0.40625
0.46875 0.46875
0.40625 0.46875
0.40625 0.40625
0.46875 0.53125
0.46875 0.59375
0.40625 0.59375
0.40625 0.53125
0.46875 0.65625
0.46875 0.71875
0.40625 0.71875
0.40625 0.65625
0.46875 0.78125
0.46875 0.84375
0.40625 0.84375
0.40625 0.78125
0.46875 0.90625
0.46875 0.96875
0.40625 0.96875
0.40625 0.90625
0.59375 0.031249999999938795
0.59375 0.093749999999938799
0.53125 0.093749999999938799
0.53125 0.031249999999938795
0.59375 0.15625
0.59375 0.21875
0.53125 0.21875
0.53125 0.15625
0.59375 0.28125
0.59375 0.34375
0.53125 0.34375
0.53125 0.28125
0.59375 0.40625
0.59375 0.46875
0.53125 0.46875
0.53125 0.40625
0.59375 0.53125
0.59375 0.59375
0.53125 0.59375
0.53125 0.53125
0.59375 0.65625
0.59375 0.71875
0.53125 0.71875
0.53125 0.65625
0.59375 0.78125
0.59375 0.84375
0.53125 0.84375
0.53125 0.78125
0.59375 0.90625
0.59375 0.96875
0.53125 0.96875
0.53125 0.90625
0.71875 0.031249999999938795
0.71875 0.093749999999938799
0.65625 0.093749999999938799
0.65625 0.031249999999938795
0.71875 0.15625
0.71875 0.21875
0.65625 0.21875
0.65625 0.15625
0.71875 0.28125
0.71875 0.34375
0.65625 0.34375
0.65625 0.28125
0.71875 0.40625
0.71875 0.46875
0.65625 0.46875
0.65625 0.40625
0.71875 0.53125
0.71875 0.59375
0.65625 0.59375
0.65625 0.53125
0.71875 0.65625
0.71875 0.71875
0.65625 0.71875
0.65625 0.65625
0.71875 0.78125
0.71875 0.84375
0.65625 0.84375
0.65625 0.78125
0.71875 0.90625
0.71875 0.96875
0.65625 0.96875
0.65625 0.90625
CELLS 640
4 9 161 225 81
4 10 89 225 161
4 1 153 225 89
4 0 81 225 153
4 10 162 226 89
4 11 97 226 162
4 2 154 226 97
4 1 89 226 154
4 11 163 227 97
4 12 105 227 163
4 3 155 227 105
4 2 97 227 155
4 12 164 228 105
4 13 113 228 164
4 4 156 228 113
4 3 105 228 156
4 13 165 229 113
4 14 121 229 165
4 5 157 229 121
4 4 113 229 157
4 14 166 230 121
4 15 129 230 166
4 6 158 230 129
4 5 121 230 158
4 15 167 231 129
4 16 137 231 167
4 7 159 231 137
4 6 129 231 159
4 16 168 232 137
4 17 145 232 168
4 8 160 232 145
4 7 137 232 160
5 18 300 169 233 82
5 19 90 233 169 296
4 10 161 233 90
4 9 82 233 161
5 19 310 170 234 90
5 20 98 234 170 307
4 11 162 234 98
4 10 90 234 162
5 20 320 171 235 98
5 21 106 235 171 317
4 12 163 235 106
4 11 98 235 163
5 21 330 172 236 106
5 22 114 236 172 327
4 13 164 236 114
4 12 106 236 164
5 22 340 173 237 114
5 23 122 237 173 337
4 14 165 237 122
4 13 114 237 165
5 23 350 174 238 122
5 24 130 238 174 347
4 15 166 238 130
4 14 122 238 166
5 24 360 175 239 130
5 25 138 239 175 357
4 16 167 239 138
4 15 130 239 167
5 25 370 176 240 138
5 26 146 240 176 367
4 17 168 240 146
4 16 138 240 168
4 27 289 569 292
4 289 177 290 569
4 569 290 241 291
4 292 569 291 83
4 28 293 570 295
4 293 91 294 570
4 570 294 241 290
4 295 570 290 177
4 19 296 571 298
4 296 169 297 571
4 571 297 241 294
4 298 571 294 91
4 18 299 572 300
4 299 83 291 572
4 572 291 241 297
4 300 572 297 169
4 28 301 573 293
4 301 178 302 573
4 573 302 242 303
4 293 573 303 91
4 29 304 574 306
4 304 99 305 574
4 574 305 242 302
4 306 574 302 178
4 20 307 575 309
4 307 170 308 575
4 575 308 242 305
4 309 575 305 99
4 19 298 576 310
4 298 91 303 576
4 576 303 242 308
4 310 576 308 170
4 29 311 577 304
4 311 179 312 577
4 577 312 243 313
4 304 577 313 99
4 30 314 578 316
4 314 107 315 578
4 578 315 243 312
4 316 578 312 179
4 21 317 579 319
4 317 171 318 579
4 579 318 243 315
4 319 579 315 107
4 20 309 580 320
4 309 99 313 580
4 580 313 243 318
4 320 580 318 171
4 30 321 581 314
4 321 180 322 581
4 581 322 244 323
4 314 581 323 107
4 31 324 582 326
4 324 115 325 582
4 582 325 244 322
4 326 582 322 180
4 22 327 583 329
4 327 172 328 583
4 583 328 244 325
4 329 583 325 115
4 21 319 584 330
4 319 107 323 584
4 584 323 244 328
4 330 584 328 172
4 31 331 585 324
4 331 181 332 585
4 585 332 245 333
4 324 585 333 115
4 32 334 586 336
4 334 123 335 586
4 586 335 245 332
4 336 586 332 181
4 23 337 587 339
4 337 173 338 587
4 587 338 245 335
4 339 587 335 123
4 22 329 588 340
4 329 115 333 588
4 588 333 245 338
4 340 588 338 173
4 32 341 589 334
4 341 182 342 589
4 589 342 246 343
4 334 589 343 123
4 33 344 590 346
4 344 131 345 590
4 590 345 246 342
4 346 590 342 182
4 24 347 591 349
4 347 174 348 591
4 591 348 246 345
4 349 591 345 131
4 23 339 592 350
4 339 123 343 592
4 592 343 246 348
4 350 592 348 174
4 33 351 593 344
4 351 183 352 593
4 593 352 247 353
4 344 593 353 131
4 34 354 594 356
4 354 139 355 594
4 594 355 247 352
4 356 594 352 183
4 25 357 595 359
4 357 175 358 595
4 595 358 247 355
4 359 595 355 139
4 24 349 596 360
4 349 131 353 596
4 596 353 247 358
4 360 596 358 175
4 34 361 597 354
4 361 184 362 597
4 597 362 248 363
4 354 597 363 139
4 35 364 598 366
4 364 147 365 598
4 598 365 248 362
4 366 598 362 184
4 26 367 599 369
4 367 176 368 599
4 599 368 248 365
4 369 599 365 147
4 25 359 600 370
4 359 139 363 600
4 600 363 248 368
4 370 600 368 176
4 36 371 601 374
4 371 185 372 601
4 601 372 249 373
4 374 601 373 84
4 37 375 602 377
4 375 92 376 602
4 602 376 249 372
4 377 602 372 185
4 28 295 603 379
4 295 177 378 603
4 603 378 249 376
4 379 603 376 92
4 27 380 604 289
4 380 84 373 604
4 604 373 249 378
4 289 604 378 177
4 37 381 605 375
4 381 186 382 605
4 605 382 250 383
4 375 605 383 92
4 38 384 606 386
4 384 100 385 606
4 606 385 250 382
4 386 606 382 186
4 29 306 607 388
4 306 178 387 607
4 607 387 250 385
4 388 607 385 100
4 28 379 608 301
4 379 92 383 608
4 608 383 250 387
4 301 608 387 178
4 38 389 609 384
4 389 187 390 609
4 609 390 251 391
4 384 609 391 100
4 39 392 610 394
4 392 108 393 610
4 610 393 251 390
4 394 610 390 187
4 30 316 611 396
4 316 179 395 611
4 611 395 251 393
4 396 611 393 108
4 29 388 612 311
4 388 100 391 612
4 612 391 251 395
4 311 612 395 179
4 39 397 613 392
4 397 188 398 613
4 613 398 252 399
4 392 613 399 108
4 40 400 614 402
4 400 116 401 614
4 614 401 252 398
4 402 614 398 188
4 31 326 615 404
4 326 180 403 615
4 615 403 252 401
4 404 615 401 116
4 30 396 616 321
4 396 108 399 616
4 616 399 252 403
4 321 616 403 180
4 40 405 617 400
4 405 189 406 617
4 617 406 253 407
4 400 617 407 116
4 41 408 618 410
4 408 124 409 618
4 618 409 253 406
4 410 618 406 189
4 32 336 619 412
4 336 181 411 619
4 619 411 253 409
4 412 619 409 124
4 31 404 620 331
4 404 116 407 620
4 620 407 253 411
4 331 620 411 181
4 41 413 621 408
4 413 190 414 621
4 621 414 254 415
4 408 621 415 124
4 42 416 622 418
4 416 132 417 622
4 622 417 254 414
4 418 622 414 190
4 33 346 623 420
4 346 182 419 623
4 623 419 254 417
4 420 623 417 132
4 32 412 624 341
4 412 124 415 624
4 624 415 254 419
4 341 624 419 182
4 42 421 625 416
4 421 191 422 625
4 625 422 255 423
4 416 625 423 132
4 43 424 626 426
4 424 140 425 626
4 626 425 255 422
4 426 626 422 191
4 34 356 627 428
4 356 183 427 627
4 627 427 255 425
4 428 627 425 140
4 33 420 628 351
4 420 132 423 628
4 628 423 255 427
4 351 628 427 183
4 43 429 629 424
4 429 192 430 629
4 629 430 256 431
4 424 629 431 140
4 44 432 630 434
4 432 148 433 630
4 630 433 256 430
4 434 630 430 192
4 35 366 631 436
4 366 184 435 631
4 631 435 256 433
4 436 631 433 148
4 34 428 632 361
4 428 140 431 632
4 632 431 256 435
4 361 632 435 184
4 45 437 633 440
4 437 193 438 633
4 633 438 257 439
4 440 633 439 85
4 46 441 634 443
4 441 93 442 634
4 634 442 257 438
4 443 634 438 193
4 37 377 635 445
4 377 185 444 635
4 635 444 257 442
4 445 635 442 93
4 36 446 636 371
4 446 85 439 636
4 636 439 257 444
4 371 636 444 185
4 46 447 637 441
4 447 194 448 637
4 637 448 258 449
4 441 637 449 93
4 47 450 638 452
4 450 101 451 638
4 638 451 258 448
4 452 638 448 194
4 38 386 639 454
4 386 186 453 639
4 639 453 258 451
4 454 639 451 101
4 37 445 640 381
4 445 93 449 640
4 640 449 258 453
4 381 640 453 186
4 47 455 641 450
4 455 195 456 641
4 641 456 259 457
4 450 641 457 101
4 48 458 642 460
4 458 109 459 642
4 642 459 259 456
4 460 642 456 195
4 39 394 643 462
4 394 187 461 643
4 643 461 259 459
4 462 643 459 109
4 38 454 644 389
4 454 101 457 644
4 644 457 259 461
4 389 644 461 187
4 48 463 645 458
4 463 196 464 645
4 645 464 260 465
4 458 645 465 109
4 49 466 646 468
4 466 117 467 646
4 646 467 260 464
4 468 646 464 196
4 40 402 647 470
4 402 188 469 647
4 647 469 260 467
4 470 647 467 117
4 39 462 648 397
4 462 109 465 648
4 648 465 260 469
4 397 648 469 188
4 49 471 649 466
4 471 197 472 649
4 649 472 261 473
4 466 649 473 117
4 50 474 650 476
4 474 125 475 650
4 650 475 261 472
4 476 650 472 197
4 41 410 651 478
4 410 189 477 651
4 651 477 261 475
4 478 651 475 125
4 40 470 652 405
4 470 117 473 652
4 652 473 261 477
4 405 652 477 189
4 50 479 653 474
4 479 198 480 653
4 653 480 262 481
4 474 653 481 125
4 51 482 654 484
4 482 133 483 654
4 654 483 262 480
4 484 654 480 198
4 42 418 655 486
4 418 190 485 655
4 655 485 262 483
4 486 655 483 133
4 41 478 656 413
4 478 125 481 656
4 656 481 262 485
4 413 656 485 190
4 51 487 657 482
4 487 199 488 657
4 657 488 263 489
4 482 657 489 133
4 52 490 658 492
4 490 141 491 658
4 658 491 263 488
4 492 658 488 199
4 43 426 659 494
4 426 191 493 659
4 659 493 263 491
4 494 659 491 141
4 42 486 660 421
4 486 133 489 660
4 660 489 263 493
4 421 660 493 191
4 52 495 661 490
4 495 200 496 661
4 661 496 264 497
4 490 661 497 141
4 53 498 662 500
4 498 149 499 662
4 662 499 264 496
4 500 662 496 200
4 44 434 663 502
4 434 192 501 663
4 663 501 264 499
4 502 663 499 149
4 43 494 664 429
4 494 141 497 664
4 664 497 264 501
4 429 664 501 192
4 54 503 665 506
4 503 201 504 665
4 665 504 265 505
4 506 665 505 86
4 55 507 666 509
4 507 94 508 666
4 666 508 265 504
4 509 666 504 201
4 46 443 667 511
4 443 193 510 667
4 667 510 265 508
4 511 667 508 94
4 45 512 668 437
4 512 86 505 668
4 668 505 265 510
4 437 668 510 193
4 55 513 669 507
4 513 202 514 669
4 669 514 266 515
4 507 669 515 94
4 56 516 670 518
4 516 102 517 670
4 670 517 266 514
4 518 670 514 202
4 47 452 671 520
4 452 194 519 671
4 671 519 266 517
4 520 671 517 102
4 46 511 672 447
4 511 94 515 672
4 672 515 266 519
4 447 672 519 194
4 56 521 673 516
4 521 203 522 673
4 673 522 267 523
4 516 673 523 102
4 57 524 674 526
4 524 110 525 674
4 674 525 267 522
4 526 674 522 203
4 48 460 675 528
4 460 195 527 675
4 675 527 267 525
4 528 675 525 110
4 47 520 676 455
4 520 102 523 676
4 676 523 267 527
4 455 676 527 195
4 57 529 677 524
4 529 204 530 677
4 677 530 268 531
4 524 677 531 110
4 58 532 678 534
4 532 118 533 678
4 678 533 268 530
4 534 678 530 204
4 49 468 679 536
4 468 196 535 679
4 679 535 268 533
4 536 679 533 118
4 48 528 680 463
4 528 110 531 680
4 680 531 268 535
4 463 680 535 196
4 58 537 681 532
4 537 205 538 681
4 681 538 269 539
4 532 681 539 118
4 59 540 682 542
4 540 126 541 682
4 682 541 269 538
4 542 682 538 205
4 50 476 683 544
4 476 197 543 683
4 683 543 269 541
4 544 683 541 126
4 49 536 684 471
4 536 118 539 684
4 684 539 269 543
4 471 684 543 197
4 59 545 685 540
4 545 206 546 685
4 685 546 270 547
4 540 685 547 126
4 60 548 686 550
4 548 134 549 686
4 686 549 270 546
4 550 686 546 206
4 51 484 687 552
4 484 198 551 687
4 687 551 270 549
4 552 687 549 134
4 50 544 688 479
4 544 126 547 688
4 688 547 270 551
4 479 688 551 198
4 60 553 689 548
4 553 207 554 689
4 689 554 271 555
4 548 689 555 134
4 61 556 690 558
4 556 142 557 690
4 690 557 271 554
4 558 690 554 207
4 52 492 691 560
4 492 199 559 691
4 691 559 271 557
4 560 691 557 142
4 51 552 692 487
4 552 134 555 692
4 692 555 271 559
4 487 692 559 199
4 61 561 693 556
4 561 208 562 693
4 693 562 272 563
4 556 693 563 142
4 62 564 694 566
4 564 150 565 694
4 694 565 272 562
4 566 694 562 208
4 53 500 695 568
4 500 200 567 695
4 695 567 272 565
4 568 695 565 150
4 52 560 696 495
4 560 142 563 696
4 696 563 272 567
4 495 696 567 200
4 63 209 273 87
4 64 95 273 209
5 55 509 201 273 95
5 54 87 273 201 503
4 64 210 274 95
4 65 103 274 210
5 56 518 202 274 103
5 55 95 274 202 513
4 65 211 275 103
4 66 111 275 211
5 57 526 203 275 111
5 56 103 275 203 521
4 66 212 276 111
4 67 119 276 212
5 58 534 204 276 119
5 57 111 276 204 529
4 67 213 277 119
4 68 127 277 213
5 59 542 205 277 127
5 58 119 277 205 537
4 68 214 278 127
4 69 135 278 214
5 60 550 206 278 135
5 59 127 278 206 545
4 69 215 279 135
4 70 143 279 215
5 61 558 207 279 143
5 60 135 279 207 553
4 70 216 280 143
4 71 151 280 216
5 62 566 208 280 151
5 61 143 280 208 561
4 72 217 281 88
4 73 96 281 217
4 64 209 281 96
4 63 88 281 209
4 73 218 282 96
4 74 104 282 218
4 65 210 282 104
4 64 96 282 210
4 74 219 283 104
4 75 112 283 219
4 66 211 283 112
4 65 104 283 211
4 75 220 284 112
4 76 120 284 220
4 67 212 284 120
4 66 112 284 212
4 76 221 285 120
4 77 128 285 221
4 68 213 285 128
4 67 120 285 213
4 77 222 286 128
4 78 136 286 222
4 69 214 286 136
4 68 128 286 214
4 78 223 287 136
4 79 144 287 223
4 70 215 287 144
4 69 136 287 215
4 79 224 288 144
4 80 152 288 224
4 71 216 288 152
4 70 144 288 216
