NODES 189
0 0
0 0.25
0 0.5
0 0.75
0 1
0.25 0
0.25 0.25
0.25 0.5
0.25 0.75
0.25 1
0.5 0
0.5 0.25
0.5 0.5
0.5 0.75
0.5 1
0.75 0
0.75 0.25
0.75 0.5
0.75 0.75
0.75 1
1 0
1 0.25
1 0.5
1 0.75
1 1
0.12499999999967359 0
0.37499999999999989 0
0.62499999999999989 0
0.87499999999999989 0
0.12499999999967359 0.25
0.37499999999999989 0.25
0.62499999999999989 0.25
0.87499999999999989 0.25
0.12499999999967359 0.5
0.37499999999999989 0.5
0.62499999999999989 0.5
0.87499999999999989 0.5
0.12499999999967359 0.75
0.37499999999999989 0.75
0.62499999999999989 0.75
0.87499999999999989 0.75
0.12499999999967359 1
0.37499999999999989 1
0.62499999999999989 1
0.87499999999999989 1
0 0.12499999999967359
0 0.37499999999999989
0 0.62499999999999989
0 0.87499999999999989
0.25 0.12499999999967359
0.25 0.37499999999999989
0.25 0.62499999999999989
0.25 0.87499999999999989
0.5 0.12499999999967359
0.5 0.37499999999999989
0.5 0.62499999999999989
0.5 0.87499999999999989
0.75 0.12499999999967359
0.75 0.37499999999999989
0.75 0.62499999999999989
0.75 0.87499999999999989
1 0.12499999999967359
1 0.37499999999999989
1 0.62499999999999989
1 0.87499999999999989
0.1249999999998368 0.1249999999998368
0.1249999999998368 0.375
0.1249999999998368 0.625
0.1249999999998368 0.875
0.375 0.1249999999998368
0.375 0.375
0.375 0.625
0.375 0.875
0.625 0.1249999999998368
0.625 0.375
0.625 0.625
0.625 0.875
0.875 0.1249999999998368
0.875 0.375
0.875 0.625
0.875 0.875
0.5 0.062499999999836797
0.4375 0.1249999999997552
0.37499999999999994 0.062499999999918399
0.43749999999999994 0
0.43749999999999994 0.25
0.37499999999999994 0.1874999999999184
0.5 0.1874999999998368
0.25 0.1874999999998368
0.3125 0.1249999999997552
0.31249999999999994 0.25
0.31249999999999994 0
0.25 0.062499999999836797
0.5 0.31249999999999994
0.4375 0.37499999999999994
0.37499999999999994 0.3125
0.43749999999999994 0.5
0.37499999999999994 0.4375
0.5 0.43749999999999994
0.25 0.43749999999999994
0.3125 0.37499999999999994
0.31249999999999994 0.5
0.25 0.31249999999999994
0.5 0.5625
0.4375 0.625
0.37499999999999994 0.5625
0.43749999999999994 0.75
0.37499999999999994 0.6875
0.5 0.6875
0.25 0.6875
0.3125 0.625
0.31249999999999994 0.75
0.25 0.5625
0.5 0.8125
0.4375 0.875
0.37499999999999994 0.8125
0.43749999999999994 1
0.37499999999999994 0.9375
0.5 0.9375
0.25 0.9375
0.3125 0.875
0.31249999999999994 1
0.25 0.8125
0.75 0.062499999999836797
0.6875 0.1249999999997552
0.625 0.062499999999918399
0.6875 0
0.6875 0.25
0.625 0.1874999999999184
0.75 0.1874999999998368
0.5625 0.1249999999997552
0.5625 0.25
0.5625 0
0.75 0.31249999999999994
0.6875 0.37499999999999994
0.625 0.3125
0.6875 0.5
0.625 0.4375
0.75 0.43749999999999994
0.5625 0.37499999999999994
0.5625 0.5
0.75 0.5625
0.6875 0.625
0.625 0.5625
0.6875 0.75
0.625 0.6875
0.75 0.6875
0.5625 0.625
0.5625 0.75
0.75 0.8125
0.6875 0.875
0.625 0.8125
0.6875 1
0.625 0.9375
0.75 0.9375
0.5625 0.875
0.5625 1
0.4375 0.062499999999877598
0.4375 0.1874999999998776
0.3125 0.1874999999998776
0.3125 0.062499999999877598
0.4375 0.3125
0.4375 0.4375
0.3125 0.4375
0.3125 0.3125
0.4375 0.5625
0.4375 0.6875
0.3125 0.6875
0.3125 0.5625
0.4375 0.8125
0.4375 0.9375
0.3125 0.9375
0.3125 0.8125
0.6875 0.062499999999877598
0.6875 0.1874999999998776
0.5625 0.1874999999998776
0.5625 0.062499999999877598
0.6875 0.3125
0.6875 0.4375
0.5625 0.4375
0.5625 0.3125
0.6875 0.5625
0.6875 0.6875
0.5625 0.6875
0.5625 0.5625
0.6875 0.8125
0.6875 0.9375
0.5625 0.9375
0.5625 0.8125
CELLS 160
5 5 92 49 65 25
5 6 29 65 49 88
4 1 45 65 29
4 0 25 65 45
5 6 102 50 66 29
5 7 33 66 50 99
4 2 46 66 33
4 1 29 66 46
5 7 112 51 67 33
5 8 37 67 51 109
4 3 47 67 37
4 2 33 67 47
5 8 122 52 68 37
5 9 41 68 52 119
4 4 48 68 41
4 3 37 68 48
4 10 81 157 84
4 81 53 82 157
4 157 82 69 83
4 84 157 83 26
4 11 85 158 87
4 85 30 86 158
4 158 86 69 82
4 87 158 82 53
4 6 88 159 90
4 88 49 89 159
4 159 89 69 86
4 90 159 86 30
4 5 91 160 92
4 91 26 83 160
4 160 83 69 89
4 92 160 89 49
4 11 93 161 85
4 93 54 94 161
4 161 94 70 95
4 85 161 95 30
4 12 96 162 98
4 96 34 97 162
4 162 97 70 94
4 98 162 94 54
4 7 99 163 101
4 99 50 100 163
4 163 100 70 97
4 101 163 97 34
4 6 90 164 102
4 90 30 95 164
4 164 95 70 100
4 102 164 100 50
4 12 103 165 96
4 103 55 104 165
4 165 104 71 105
4 96 165 105 34
4 13 106 166 108
4 106 38 107 166
4 166 107 71 104
4 108 166 104 55
4 8 109 167 111
4 109 51 110 167
4 167 110 71 107
4 111 167 107 38
4 7 101 168 112
4 101 34 105 168
4 168 105 71 110
4 112 168 110 51
4 13 113 169 106
4 113 56 114 169
4 169 114 72 115
4 106 169 115 38
4 14 116 170 118
4 116 42 117 170
4 170 117 72 114
4 118 170 114 56
4 9 119 171 121
4 119 52 120 171
4 171 120 72 117
4 121 171 117 42
4 8 111 172 122
4 111 38 115 172
4 172 115 72 120
4 122 172 120 52
4 15 123 173 126
4 123 57 124 173
4 173 124 73 125
4 126 173 125 27
4 16 127 174 129
4 127 31 128 174
4 174 128 73 124
4 129 174 124 57
4 11 87 175 131
4 87 53 130 175
4 175 130 73 128
4 131 175 128 31
4 10 132 176 81
4 132 27 125 176
4 176 125 73 130
4 81 176 130 53
4 16 133 177 127
4 133 58 134 177
4 177 134 74 135
4 127 177 135 31
4 17 136 178 138
4 136 35 137 178
4 178 137 74 134
4 138 178 134 58
4 12 98 179 140
4 98 54 139 179
4 179 139 74 137
4 140 179 137 35
4 11 131 180 93
4 131 31 135 180
4 180 135 74 139
4 93 180 139 54
4 17 141 181 136
4 141 59 142 181
4 181 142 75 143
4 136 181 143 35
4 18 144 182 146
4 144 39 145 182
4 182 145 75 142
4 146 182 142 59
4 13 108 183 148
4 108 55 147 183
4 183 147 75 145
4 148 183 145 39
4 12 140 184 103
4 140 35 143 184
4 184 143 75 147
4 103 184 147 55
4 18 149 185 144
4 149 60 150 185
4 185 150 76 151
4 144 185 151 39
4 19 152 186 154
4 152 43 153 186
4 186 153 76 150
4 154 186 150 60
4 14 118 187 156
4 118 56 155 187
4 187 155 76 153
4 156 187 153 43
4 13 148 188 113
4 148 39 151 188
4 188 151 76 155
4 113 188 155 56
4 20 61 77 28
4 21 32 77 61
5 16 129 57 77 32
5 15 28 77 57 123
4 21 62 78 32
4 22 36 78 62
5 17 138 58 78 36
5 16 32 78 58 133
4 22 63 79 36
4 23 40 79 63
5 18 146 59 79 40
5 17 36 79 59 141
4 23 64 80 40
4 24 44 80 64
5 19 154 60 80 44
5 18 40 80 60 149
