NODES 55
0 0
0 0.5
0 1
0.5 0
0.5 0.5
0.5 1
1 0
1 0.5
1 1
0.24999999999934711 0
0.74999999999999989 0
0.24999999999934711 0.5
0.74999999999999989 0.5
0.24999999999934711 1
0.74999999999999989 1
0 0.24999999999934711
0 0.74999999999999989
0.5 0.24999999999934711
0.5 0.74999999999999989
1 0.24999999999934711
1 0.74999999999999989
0.24999999999967359 0.24999999999967359
0.24999999999967359 0.75
0.75 0.24999999999967359
0.75 0.75
0.5 0.12499999999967355
0.3749999999998368 0.24999999999951034
0.24999999999951034 0.1249999999998368
0.37499999999967354 0
0.37499999999967354 0.5
0.24999999999951034 0.3749999999998368
0.5 0.37499999999967354
0.5 0.625
0.3749999999998368 0.75
0.24999999999951034 0.625
0.37499999999967354 1
0.24999999999951034 0.875
0.5 0.875
0.625 0.24999999999951034
0.75 0.3749999999998368
0.625 0.5
0.625 0
0.75 0.1249999999998368
0.625 0.75
0.75 0.875
0.625 1
0.75 0.625
0.3749999999997552 0.12499999999975517
0.3749999999997552 0.3749999999997552
0.3749999999997552 0.625
0.3749999999997552 0.875
0.625 0.3749999999997552
0.625 0.12499999999975517
0.625 0.875
0.625 0.625
CELLS 40
4 3 25 47 28
4 25 17 26 47
4 47 26 21 27
4 28 47 27 9
4 4 29 48 31
4 29 11 30 48
4 48 30 21 26
4 31 48 26 17
5 1 15 21 30 11
5 0 9 27 21 15
4 4 32 49 29
4 32 18 33 49
4 49 33 22 34
4 29 49 34 11
4 5 35 50 37
4 35 13 36 50
4 50 36 22 33
4 37 50 33 18
5 2 16 22 36 13
5 1 11 34 22 16
5 6 19 23 42 10
5 7 12 39 23 19
4 4 31 51 40
4 31 17 38 51
4 51 38 23 39
4 40 51 39 12
4 3 41 52 25
4 41 10 42 52
4 52 42 23 38
4 25 52 38 17
5 7 20 24 46 12
5 8 14 44 24 20
4 5 37 53 45
4 37 18 43 53
4 53 43 24 44
4 45 53 44 14
4 4 40 54 32
4 40 12 46 54
4 54 46 24 43
4 32 54 43 18
