NODES 2673
0 0
0 0.0625
0 0.125
0 0.1875
0 0.25
0 0.3125
0 0.375
0 0.4375
0 0.5
0 0.5625
0 0.625
0 0.6875
0 0.75
0 0.8125
0 0.875
0 0.9375
0 1
0.0625 0
0.0625 0.0625
0.0625 0.125
0.0625 0.1875
0.0625 0.25
0.0625 0.3125
0.0625 0.375
0.0625 0.4375
0.0625 0.5
0.0625 0.5625
0.0625 0.625
0.0625 0.6875
0.0625 0.75
0.0625 0.8125
0.0625 0.875
0.0625 0.9375
0.0625 1
0.125 0
0.125 0.0625
0.125 0.125
0.125 0.1875
0.125 0.25
0.125 0.3125
0.125 0.375
0.125 0.4375
0.125 0.5
0.125 0.5625
0.125 0.625
0.125 0.6875
0.125 0.75
0.125 0.8125
0.125 0.875
0.125 0.9375
0.125 1
0.1875 0
0.1875 0.0625
0.1875 0.125
0.1875 0.1875
0.1875 0.25
0.1875 0.3125
0.1875 0.375
0.1875 0.4375
0.1875 0.5
0.1875 0.5625
0.1875 0.625
0.1875 0.6875
0.1875 0.75
0.1875 0.8125
0.1875 0.875
0.1875 0.9375
0.1875 1
0.25 0
0.25 0.0625
0.25 0.125
0.25 0.1875
0.25 0.25
0.25 0.3125
0.25 0.375
0.25 0.4375
0.25 0.5
0.25 0.5625
0.25 0.625
0.25 0.6875
0.25 0.75
0.25 0.8125
0.25 0.875
0.25 0.9375
0.25 1
0.3125 0
0.3125 0.0625
0.3125 0.125
0.3125 0.1875
0.3125 0.25
0.3125 0.3125
0.3125 0.375
0.3125 0.4375
0.3125 0.5
0.3125 0.5625
0.3125 0.625
0.3125 0.6875
0.3125 0.75
0.3125 0.8125
0.3125 0.875
0.3125 0.9375
0.3125 1
0.375 0
0.375 0.0625
0.375 0.125
0.375 0.1875
0.375 0.25
0.375 0.3125
0.375 0.375
0.375 0.4375
0.375 0.5
0.375 0.5625
0.375 0.625
0.375 0.6875
0.375 0.75
0.375 0.8125
0.375 0.875
0.375 0.9375
0.375 1
0.4375 0
0.4375 0.0625
0.4375 0.125
0.4375 0.1875
0.4375 0.25
0.4375 0.3125
0.4375 0.375
0.4375 0.4375
0.4375 0.5
0.4375 0.5625
0.4375 0.625
0.4375 0.6875
0.4375 0.75
0.4375 0.8125
0.4375 0.875
0.4375 0.9375
0.4375 1
0.5 0
0.5 0.0625
0.5 0.125
0.5 0.1875
0.5 0.25
0.5 0.3125
0.5 0.375
0.5 0.4375
0.5 0.5
0.5 0.5625
0.5 0.625
0.5 0.6875
0.5 0.75
0.5 0.8125
0.5 0.875
0.5 0.9375
0.5 1
0.5625 0
0.5625 0.0625
0.5625 0.125
0.5625 0.1875
0.5625 0.25
0.5625 0.3125
0.5625 0.375
0.5625 0.4375
0.5625 0.5
0.5625 0.5625
0.5625 0.625
0.5625 0.6875
0.5625 0.75
0.5625 0.8125
0.5625 0.875
0.5625 0.9375
0.5625 1
0.625 0
0.625 0.0625
0.625 0.125
0.625 0.1875
0.625 0.25
0.625 0.3125
0.625 0.375
0.625 0.4375
0.625 0.5
0.625 0.5625
0.625 0.625
0.625 0.6875
0.625 0.75
0.625 0.8125
0.625 0.875
0.625 0.9375
0.625 1
0.6875 0
0.6875 0.0625
0.6875 0.125
0.6875 0.1875
0.6875 0.25
0.6875 0.3125
0.6875 0.375
0.6875 0.4375
0.6875 0.5
0.6875 0.5625
0.6875 0.625
0.6875 0.6875
0.6875 0.75
0.6875 0.8125
0.6875 0.875
0.6875 0.9375
0.6875 1
0.75 0
0.75 0.0625
0.75 0.125
0.75 0.1875
0.75 0.25
0.75 0.3125
0.75 0.375
0.75 0.4375
0.75 0.5
0.75 0.5625
0.75 0.625
0.75 0.6875
0.75 0.75
0.75 0.8125
0.75 0.875
0.75 0.9375
0.75 1
0.8125 0
0.8125 0.0625
0.8125 0.125
0.8125 0.1875
0.8125 0.25
0.8125 0.3125
0.8125 0.375
0.8125 0.4375
0.8125 0.5
0.8125 0.5625
0.8125 0.625
0.8125 0.6875
0.8125 0.75
0.8125 0.8125
0.8125 0.875
0.8125 0.9375
0.8125 1
0.875 0
0.875 0.0625
0.875 0.125
0.875 0.1875
0.875 0.25
0.875 0.3125
0.875 0.375
0.875 0.4375
0.875 0.5
0.875 0.5625
0.875 0.625
0.875 0.6875
0.875 0.75
0.875 0.8125
0.875 0.875
0.875 0.9375
0.875 1
0.9375 0
0.9375 0.0625
0.9375 0.125
0.9375 0.1875
0.9375 0.25
0.9375 0.3125
0.9375 0.375
0.9375 0.4375
0.9375 0.5
0.9375 0.5625
0.9375 0.625
0.9375 0.6875
0.9375 0.75
0.9375 0.8125
0.9375 0.875
0.9375 0.9375
0.9375 1
1 0
1 0.0625
1 0.125
1 0.1875
1 0.25
1 0.3125
1 0.375
1 0.4375
1 0.5
1 0.5625
1 0.625
1 0.6875
1 0.75
1 0.8125
1 0.875
1 0.9375
1 1
0.031249999999918392 0
0.093749999999999986 0
0.15625 0
0.21875 0
0.28125 0
0.34375 0
0.40625 0
0.46875 0
0.53125 0
0.59375 0
0.65625 0
0.71875 0
0.78125 0
0.84375 0
0.90625 0
0.96875 0
0.031249999999918392 0.0625
0.093749999999999986 0.0625
0.15625 0.0625
0.21875 0.0625
0.28125 0.0625
0.34375 0.0625
0.40625 0.0625
0.46875 0.0625
0.53125 0.0625
0.59375 0.0625
0.65625 0.0625
0.71875 0.0625
0.78125 0.0625
0.84375 0.0625
0.90625 0.0625
0.96875 0.0625
0.031249999999918392 0.125
0.093749999999999986 0.125
0.15625 0.125
0.21875 0.125
0.28125 0.125
0.34375 0.125
0.40625 0.125
0.46875 0.125
0.53125 0.125
0.59375 0.125
0.65625 0.125
0.71875 0.125
0.78125 0.125
0.84375 0.125
0.90625 0.125
0.96875 0.125
0.031249999999918392 0.1875
0.093749999999999986 0.1875
0.15625 0.1875
0.21875 0.1875
0.28125 0.1875
0.34375 0.1875
0.40625 0.1875
0.46875 0.1875
0.53125 0.1875
0.59375 0.1875
0.65625 0.1875
0.71875 0.1875
0.78125 0.1875
0.84375 0.1875
0.90625 0.1875
0.96875 0.1875
0.031249999999918392 0.25
0.093749999999999986 0.25
0.15625 0.25
0.21875 0.25
0.28125 0.25
0.34375 0.25
0.40625 0.25
0.46875 0.25
0.53125 0.25
0.59375 0.25
0.65625 0.25
0.71875 0.25
0.78125 0.25
0.84375 0.25
0.90625 0.25
0.96875 0.25
0.031249999999918392 0.3125
0.093749999999999986 0.3125
0.15625 0.3125
0.21875 0.3125
0.28125 0.3125
0.34375 0.3125
0.40625 0.3125
0.46875 0.3125
0.53125 0.3125
0.59375 0.3125
0.65625 0.3125
0.71875 0.3125
0.78125 0.3125
0.84375 0.3125
0.90625 0.3125
0.96875 0.3125
0.031249999999918392 0.375
0.093749999999999986 0.375
0.15625 0.375
0.21875 0.375
0.28125 0.375
0.34375 0.375
0.40625 0.375
0.46875 0.375
0.53125 0.375
0.59375 0.375
0.65625 0.375
0.71875 0.375
0.78125 0.375
0.84375 0.375
0.90625 0.375
0.96875 0.375
0.031249999999918392 0.4375
0.093749999999999986 0.4375
0.15625 0.4375
0.21875 0.4375
0.28125 0.4375
0.34375 0.4375
0.40625 0.4375
0.46875 0.4375
0.53125 0.4375
0.59375 0.4375
0.65625 0.4375
0.71875 0.4375
0.78125 0.4375
0.84375 0.4375
0.90625 0.4375
0.96875 0.4375
0.031249999999918392 0.5
0.093749999999999986 0.5
0.15625 0.5
0.21875 0.5
0.28125 0.5
0.34375 0.5
0.40625 0.5
0.46875 0.5
0.53125 0.5
0.59375 0.5
0.65625 0.5
0.71875 0.5
0.78125 0.5
0.84375 0.5
0.90625 0.5
0.96875 0.5
0.031249999999918392 0.5625
0.093749999999999986 0.5625
0.15625 0.5625
0.21875 0.5625
0.28125 0.5625
0.34375 0.5625
0.40625 0.5625
0.46875 0.5625
0.53125 0.5625
0.59375 0.5625
0.65625 0.5625
0.71875 0.5625
0.78125 0.5625
0.84375 0.5625
0.90625 0.5625
0.96875 0.5625
0.031249999999918392 0.625
0.093749999999999986 0.625
0.15625 0.625
0.21875 0.625
0.28125 0.625
0.34375 0.625
0.40625 0.625
0.46875 0.625
0.53125 0.625
0.59375 0.625
0.65625 0.625
0.71875 0.625
0.78125 0.625
0.84375 0.625
0.90625 0.625
0.96875 0.625
0.031249999999918392 0.6875
0.093749999999999986 0.6875
0.15625 0.6875
0.21875 0.6875
0.28125 0.6875
0.34375 0.6875
0.40625 0.6875
0.46875 0.6875
0.53125 0.6875
0.59375 0.6875
0.65625 0.6875
0.71875 0.6875
0.78125 0.6875
0.84375 0.6875
0.90625 0.6875
0.96875 0.6875
0.031249999999918392 0.75
0.093749999999999986 0.75
0.15625 0.75
0.21875 0.75
0.28125 0.75
0.34375 0.75
0.40625 0.75
0.46875 0.75
0.53125 0.75
0.59375 0.75
0.65625 0.75
0.71875 0.75
0.78125 0.75
0.84375 0.75
0.90625 0.75
0.96875 0.75
0.031249999999918392 0.8125
0.093749999999999986 0.8125
0.15625 0.8125
0.21875 0.8125
0.28125 0.8125
0.34375 0.8125
0.40625 0.8125
0.46875 0.8125
0.53125 0.8125
0.59375 0.8125
0.65625 0.8125
0.71875 0.8125
0.78125 0.8125
0.84375 0.8125
0.90625 0.8125
0.96875 0.8125
0.031249999999918392 0.875
0.093749999999999986 0.875
0.15625 0.875
0.21875 0.875
0.28125 0.875
0.34375 0.875
0.40625 0.875
0.46875 0.875
0.53125 0.875
0.59375 0.875
0.65625 0.875
0.71875 0.875
0.78125 0.875
0.84375 0.875
0.90625 0.875
0.96875 0.875
0.031249999999918392 0.9375
0.093749999999999986 0.9375
0.15625 0.9375
0.21875 0.9375
0.28125 0.9375
0.34375 0.9375
0.40625 0.9375
0.46875 0.9375
0.53125 0.9375
0.59375 0.9375
0.65625 0.9375
0.71875 0.9375
0.78125 0.9375
0.84375 0.9375
0.90625 0.9375
0.96875 0.9375
0.031249999999918392 1
0.093749999999999986 1
0.15625 1
0.21875 1
0.28125 1
0.34375 1
0.40625 1
0.46875 1
0.53125 1
0.59375 1
0.65625 1
0.71875 1
0.78125 1
0.84375 1
0.90625 1
0.96875 1
0 0.031249999999918392
0 0.093749999999999986
0 0.15625
0 0.21875
0 0.28125
0 0.34375
0 0.40625
0 0.46875
0 0.53125
0 0.59375
0 0.65625
0 0.71875
0 0.78125
0 0.84375
0 0.90625
0 0.96875
0.0625 0.031249999999918392
0.0625 0.093749999999999986
0.0625 0.15625
0.0625 0.21875
0.0625 0.28125
0.0625 0.34375
0.0625 0.40625
0.0625 0.46875
0.0625 0.53125
0.0625 0.59375
0.0625 0.65625
0.0625 0.71875
0.0625 0.78125
0.0625 0.84375
0.0625 0.90625
0.0625 0.96875
0.125 0.031249999999918392
0.125 0.093749999999999986
0.125 0.15625
0.125 0.21875
0.125 0.28125
0.125 0.34375
0.125 0.40625
0.125 0.46875
0.125 0.53125
0.125 0.59375
0.125 0.65625
0.125 0.71875
0.125 0.78125
0.125 0.84375
0.125 0.90625
0.125 0.96875
0.1875 0.031249999999918392
0.1875 0.093749999999999986
0.1875 0.15625
0.1875 0.21875
0.1875 0.28125
0.1875 0.34375
0.1875 0.40625
0.1875 0.46875
0.1875 0.53125
0.1875 0.59375
0.1875 0.65625
0.1875 0.71875
0.1875 0.78125
0.1875 0.84375
0.1875 0.90625
0.1875 0.96875
0.25 0.031249999999918392
0.25 0.093749999999999986
0.25 0.15625
0.25 0.21875
0.25 0.28125
0.25 0.34375
0.25 0.40625
0.25 0.46875
0.25 0.53125
0.25 0.59375
0.25 0.65625
0.25 0.71875
0.25 0.78125
0.25 0.84375
0.25 0.90625
0.25 0.96875
0.3125 0.031249999999918392
0.3125 0.093749999999999986
0.3125 0.15625
0.3125 0.21875
0.3125 0.28125
0.3125 0.34375
0.3125 0.40625
0.3125 0.46875
0.3125 0.53125
0.3125 0.59375
0.3125 0.65625
0.3125 0.71875
0.3125 0.78125
0.3125 0.84375
0.3125 0.90625
0.3125 0.96875
0.375 0.031249999999918392
0.375 0.093749999999999986
0.375 0.15625
0.375 0.21875
0.375 0.28125
0.375 0.34375
0.375 0.40625
0.375 0.46875
0.375 0.53125
0.375 0.59375
0.375 0.65625
0.375 0.71875
0.375 0.78125
0.375 0.84375
0.375 0.90625
0.375 0.96875
0.4375 0.031249999999918392
0.4375 0.093749999999999986
0.4375 0.15625
0.4375 0.21875
0.4375 0.28125
0.4375 0.34375
0.4375 0.40625
0.4375 0.46875
0.4375 0.53125
0.4375 0.59375
0.4375 0.65625
0.4375 0.71875
0.4375 0.78125
0.4375 0.84375
0.4375 0.90625
0.4375 0.96875
0.5 0.031249999999918392
0.5 0.093749999999999986
0.5 0.15625
0.5 0.21875
0.5 0.28125
0.5 0.34375
0.5 0.40625
0.5 0.46875
0.5 0.53125
0.5 0.59375
0.5 0.65625
0.5 0.71875
0.5 0.78125
0.5 0.84375
0.5 0.90625
0.5 0.96875
0.5625 0.031249999999918392
0.5625 0.093749999999999986
0.5625 0.15625
0.5625 0.21875
0.5625 0.28125
0.5625 0.34375
0.5625 0.40625
0.5625 0.46875
0.5625 0.53125
0.5625 0.59375
0.5625 0.65625
0.5625 0.71875
0.5625 0.78125
0.5625 0.84375
0.5625 0.90625
0.5625 0.96875
0.625 0.031249999999918392
0.625 0.093749999999999986
0.625 0.15625
0.625 0.21875
0.625 0.28125
0.625 0.34375
0.625 0.40625
0.625 0.46875
0.625 0.53125
0.625 0.59375
0.625 0.65625
0.625 0.71875
0.625 0.78125
0.625 0.84375
0.625 0.90625
0.625 0.96875
0.6875 0.031249999999918392
0.6875 0.093749999999999986
0.6875 0.15625
0.6875 0.21875
0.6875 0.28125
0.6875 0.34375
0.6875 0.40625
0.6875 0.46875
0.6875 0.53125
0.6875 0.59375
0.6875 0.65625
0.6875 0.71875
0.6875 0.78125
0.6875 0.84375
0.6875 0.90625
0.6875 0.96875
0.75 0.031249999999918392
0.75 0.093749999999999986
0.75 0.15625
0.75 0.21875
0.75 0.28125
0.75 0.34375
0.75 0.40625
0.75 0.46875
0.75 0.53125
0.75 0.59375
0.75 0.65625
0.75 0.71875
0.75 0.78125
0.75 0.84375
0.75 0.90625
0.75 0.96875
0.8125 0.031249999999918392
0.8125 0.093749999999999986
0.8125 0.15625
0.8125 0.21875
0.8125 0.28125
0.8125 0.34375
0.8125 0.40625
0.8125 0.46875
0.8125 0.53125
0.8125 0.59375
0.8125 0.65625
0.8125 0.71875
0.8125 0.78125
0.8125 0.84375
0.8125 0.90625
0.8125 0.96875
0.875 0.031249999999918392
0.875 0.093749999999999986
0.875 0.15625
0.875 0.21875
0.875 0.28125
0.875 0.34375
0.875 0.40625
0.875 0.46875
0.875 0.53125
0.875 0.59375
0.875 0.65625
0.875 0.71875
0.875 0.78125
0.875 0.84375
0.875 0.90625
0.875 0.96875
0.9375 0.031249999999918392
0.9375 0.093749999999999986
0.9375 0.15625
0.9375 0.21875
0.9375 0.28125
0.9375 0.34375
0.9375 0.40625
0.9375 0.46875
0.9375 0.53125
0.9375 0.59375
0.9375 0.65625
0.9375 0.71875
0.9375 0.78125
0.9375 0.84375
0.9375 0.90625
0.9375 0.96875
1 0.031249999999918392
1 0.093749999999999986
1 0.15625
1 0.21875
1 0.28125
1 0.34375
1 0.40625
1 0.46875
1 0.53125
1 0.59375
1 0.65625
1 0.71875
1 0.78125
1 0.84375
1 0.90625
1 0.96875
0.031249999999959199 0.031249999999959199
0.031249999999959199 0.09375
0.031249999999959199 0.15625
0.031249999999959199 0.21875
0.031249999999959199 0.28125
0.031249999999959199 0.34375
0.031249999999959199 0.40625
0.031249999999959199 0.46875
0.031249999999959199 0.53125
0.031249999999959199 0.59375
0.031249999999959199 0.65625
0.031249999999959199 0.71875
0.031249999999959199 0.78125
0.031249999999959199 0.84375
0.031249999999959199 0.90625
0.031249999999959199 0.96875
0.09375 0.031249999999959199
0.09375 0.09375
0.09375 0.15625
0.09375 0.21875
0.09375 0.28125
0.09375 0.34375
0.09375 0.40625
0.09375 0.46875
0.09375 0.53125
0.09375 0.59375
0.09375 0.65625
0.09375 0.71875
0.09375 0.78125
0.09375 0.84375
0.09375 0.90625
0.09375 0.96875
0.15625 0.031249999999959199
0.15625 0.09375
0.15625 0.15625
0.15625 0.21875
0.15625 0.28125
0.15625 0.34375
0.15625 0.40625
0.15625 0.46875
0.15625 0.53125
0.15625 0.59375
0.15625 0.65625
0.15625 0.71875
0.15625 0.78125
0.15625 0.84375
0.15625 0.90625
0.15625 0.96875
0.21875 0.031249999999959199
0.21875 0.09375
0.21875 0.15625
0.21875 0.21875
0.21875 0.28125
0.21875 0.34375
0.21875 0.40625
0.21875 0.46875
0.21875 0.53125
0.21875 0.59375
0.21875 0.65625
0.21875 0.71875
0.21875 0.78125
0.21875 0.84375
0.21875 0.90625
0.21875 0.96875
0.28125 0.031249999999959199
0.28125 0.09375
0.28125 0.15625
0.28125 0.21875
0.28125 0.28125
0.28125 0.34375
0.28125 0.40625
0.28125 0.46875
0.28125 0.53125
0.28125 0.59375
0.28125 0.65625
0.28125 0.71875
0.28125 0.78125
0.28125 0.84375
0.28125 0.90625
0.28125 0.96875
0.34375 0.031249999999959199
0.34375 0.09375
0.34375 0.15625
0.34375 0.21875
0.34375 0.28125
0.34375 0.34375
0.34375 0.40625
0.34375 0.46875
0.34375 0.53125
0.34375 0.59375
0.34375 0.65625
0.34375 0.71875
0.34375 0.78125
0.34375 0.84375
0.34375 0.90625
0.34375 0.96875
0.40625 0.031249999999959199
0.40625 0.09375
0.40625 0.15625
0.40625 0.21875
0.40625 0.28125
0.40625 0.34375
0.40625 0.40625
0.40625 0.46875
0.40625 0.53125
0.40625 0.59375
0.40625 0.65625
0.40625 0.71875
0.40625 0.78125
0.40625 0.84375
0.40625 0.90625
0.40625 0.96875
0.46875 0.031249999999959199
0.46875 0.09375
0.46875 0.15625
0.46875 0.21875
0.46875 0.28125
0.46875 0.34375
0.46875 0.40625
0.46875 0.46875
0.46875 0.53125
0.46875 0.59375
0.46875 0.65625
0.46875 0.71875
0.46875 0.78125
0.46875 0.84375
0.46875 0.90625
0.46875 0.96875
0.53125 0.031249999999959199
0.53125 0.09375
0.53125 0.15625
0.53125 0.21875
0.53125 0.28125
0.53125 0.34375
0.53125 0.40625
0.53125 0.46875
0.53125 0.53125
0.53125 0.59375
0.53125 0.65625
0.53125 0.71875
0.53125 0.78125
0.53125 0.84375
0.53125 0.90625
0.53125 0.96875
0.59375 0.031249999999959199
0.59375 0.09375
0.59375 0.15625
0.59375 0.21875
0.59375 0.28125
0.59375 0.34375
0.59375 0.40625
0.59375 0.46875
0.59375 0.53125
0.59375 0.59375
0.59375 0.65625
0.59375 0.71875
0.59375 0.78125
0.59375 0.84375
0.59375 0.90625
0.59375 0.96875
0.65625 0.031249999999959199
0.65625 0.09375
0.65625 0.15625
0.65625 0.21875
0.65625 0.28125
0.65625 0.34375
0.65625 0.40625
0.65625 0.46875
0.65625 0.53125
0.65625 0.59375
0.65625 0.65625
0.65625 0.71875
0.65625 0.78125
0.65625 0.84375
0.65625 0.90625
0.65625 0.96875
0.71875 0.031249999999959199
0.71875 0.09375
0.71875 0.15625
0.71875 0.21875
0.71875 0.28125
0.71875 0.34375
0.71875 0.40625
0.71875 0.46875
0.71875 0.53125
0.71875 0.59375
0.71875 0.65625
0.71875 0.71875
0.71875 0.78125
0.71875 0.84375
0.71875 0.90625
0.71875 0.96875
0.78125 0.031249999999959199
0.78125 0.09375
0.78125 0.15625
0.78125 0.21875
0.78125 0.28125
0.78125 0.34375
0.78125 0.40625
0.78125 0.46875
0.78125 0.53125
0.78125 0.59375
0.78125 0.65625
0.78125 0.71875
0.78125 0.78125
0.78125 0.84375
0.78125 0.90625
0.78125 0.96875
0.84375 0.031249999999959199
0.84375 0.09375
0.84375 0.15625
0.84375 0.21875
0.84375 0.28125
0.84375 0.34375
0.84375 0.40625
0.84375 0.46875
0.84375 0.53125
0.84375 0.59375
0.84375 0.65625
0.84375 0.71875
0.84375 0.78125
0.84375 0.84375
0.84375 0.90625
0.84375 0.96875
0.90625 0.031249999999959199
0.90625 0.09375
0.90625 0.15625
0.90625 0.21875
0.90625 0.28125
0.90625 0.34375
0.90625 0.40625
0.90625 0.46875
0.90625 0.53125
0.90625 0.59375
0.90625 0.65625
0.90625 0.71875
0.90625 0.78125
0.90625 0.84375
0.90625 0.90625
0.90625 0.96875
0.96875 0.031249999999959199
0.96875 0.09375
0.96875 0.15625
0.96875 0.21875
0.96875 0.28125
0.96875 0.34375
0.96875 0.40625
0.96875 0.46875
0.96875 0.53125
0.96875 0.59375
0.96875 0.65625
0.96875 0.71875
0.96875 0.78125
0.96875 0.84375
0.96875 0.90625
0.96875 0.96875
0.3125 0.015624999999959196
0.296875 0.031249999999938795
0.28125 0.0156249999999796
0.296875 0
0.296875 0.0625
0.28125 0.0468749999999796
0.3125 0.046874999999959199
0.25 0.046874999999959199
0.265625 0.031249999999938795
0.265625 0.0625
0.265625 0
0.25 0.015624999999959196
0.3125 0.078125
0.296875 0.09375
0.28125 0.078125
0.296875 0.125
0.28125 0.109375
0.3125 0.109375
0.25 0.109375
0.265625 0.09375
0.265625 0.125
0.25 0.078125
0.3125 0.140625
0.296875 0.15625
0.28125 0.140625
0.296875 0.1875
0.28125 0.171875
0.3125 0.171875
0.25 0.171875
0.265625 0.15625
0.265625 0.1875
0.25 0.140625
0.3125 0.203125
0.296875 0.21875
0.28125 0.203125
0.296875 0.25
0.28125 0.234375
0.3125 0.234375
0.25 0.234375
0.265625 0.21875
0.265625 0.25
0.25 0.203125
0.3125 0.265625
0.296875 0.28125
0.28125 0.265625
0.296875 0.3125
0.28125 0.296875
0.3125 0.296875
0.25 0.296875
0.265625 0.28125
0.265625 0.3125
0.25 0.265625
0.3125 0.328125
0.296875 0.34375
0.28125 0.328125
0.296875 0.375
0.28125 0.359375
0.3125 0.359375
0.25 0.359375
0.265625 0.34375
0.265625 0.375
0.25 0.328125
0.3125 0.390625
0.296875 0.40625
0.28125 0.390625
0.296875 0.4375
0.28125 0.421875
0.3125 0.421875
0.25 0.421875
0.265625 0.40625
0.265625 0.4375
0.25 0.390625
0.3125 0.453125
0.296875 0.46875
0.28125 0.453125
0.296875 0.5
0.28125 0.484375
0.3125 0.484375
0.25 0.484375
0.265625 0.46875
0.265625 0.5
0.25 0.453125
0.3125 0.515625
0.296875 0.53125
0.28125 0.515625
0.296875 0.5625
0.28125 0.546875
0.3125 0.546875
0.25 0.546875
0.265625 0.53125
0.265625 0.5625
0.25 0.515625
0.3125 0.578125
0.296875 0.59375
0.28125 0.578125
0.296875 0.625
0.28125 0.609375
0.3125 0.609375
0.25 0.609375
0.265625 0.59375
0.265625 0.625
0.25 0.578125
0.3125 0.640625
0.296875 0.65625
0.28125 0.640625
0.296875 0.6875
0.28125 0.671875
0.3125 0.671875
0.25 0.671875
0.265625 0.65625
0.265625 0.6875
0.25 0.640625
0.3125 0.703125
0.296875 0.71875
0.28125 0.703125
0.296875 0.75
0.28125 0.734375
0.3125 0.734375
0.25 0.734375
0.265625 0.71875
0.265625 0.75
0.25 0.703125
0.3125 0.765625
0.296875 0.78125
0.28125 0.765625
0.296875 0.8125
0.28125 0.796875
0.3125 0.796875
0.25 0.796875
0.265625 0.78125
0.265625 0.8125
0.25 0.765625
0.3125 0.828125
0.296875 0.84375
0.28125 0.828125
0.296875 0.875
0.28125 0.859375
0.3125 0.859375
0.25 0.859375
0.265625 0.84375
0.265625 0.875
0.25 0.828125
0.3125 0.890625
0.296875 0.90625
0.28125 0.890625
0.296875 0.9375
0.28125 0.921875
0.3125 0.921875
0.25 0.921875
0.265625 0.90625
0.265625 0.9375
0.25 0.890625
0.3125 0.953125
0.296875 0.96875
0.28125 0.953125
0.296875 1
0.28125 0.984375
0.3125 0.984375
0.25 0.984375
0.265625 0.96875
0.265625 1
0.25 0.953125
0.375 0.015624999999959196
0.359375 0.031249999999938795
0.34375 0.0156249999999796
0.359375 0
0.359375 0.0625
0.34375 0.0468749999999796
0.375 0.046874999999959199
0.328125 0.031249999999938795
0.328125 0.0625
0.328125 0
0.375 0.078125
0.359375 0.09375
0.34375 0.078125
0.359375 0.125
0.34375 0.109375
0.375 0.109375
0.328125 0.09375
0.328125 0.125
0.375 0.140625
0.359375 0.15625
0.34375 0.140625
0.359375 0.1875
0.34375 0.171875
0.375 0.171875
0.328125 0.15625
0.328125 0.1875
0.375 0.203125
0.359375 0.21875
0.34375 0.203125
0.359375 0.25
0.34375 0.234375
0.375 0.234375
0.328125 0.21875
0.328125 0.25
0.375 0.265625
0.359375 0.28125
0.34375 0.265625
0.359375 0.3125
0.34375 0.296875
0.375 0.296875
0.328125 0.28125
0.328125 0.3125
0.375 0.328125
0.359375 0.34375
0.34375 0.328125
0.359375 0.375
0.34375 0.359375
0.375 0.359375
0.328125 0.34375
0.328125 0.375
0.375 0.390625
0.359375 0.40625
0.34375 0.390625
0.359375 0.4375
0.34375 0.421875
0.375 0.421875
0.328125 0.40625
0.328125 0.4375
0.375 0.453125
0.359375 0.46875
0.34375 0.453125
0.359375 0.5
0.34375 0.484375
0.375 0.484375
0.328125 0.46875
0.328125 0.5
0.375 0.515625
0.359375 0.53125
0.34375 0.515625
0.359375 0.5625
0.34375 0.546875
0.375 0.546875
0.328125 0.53125
0.328125 0.5625
0.375 0.578125
0.359375 0.59375
0.34375 0.578125
0.359375 0.625
0.34375 0.609375
0.375 0.609375
0.328125 0.59375
0.328125 0.625
0.375 0.640625
0.359375 0.65625
0.34375 0.640625
0.359375 0.6875
0.34375 0.671875
0.375 0.671875
0.328125 0.65625
0.328125 0.6875
0.375 0.703125
0.359375 0.71875
0.34375 0.703125
0.359375 0.75
0.34375 0.734375
0.375 0.734375
0.328125 0.71875
0.328125 0.75
0.375 0.765625
0.359375 0.78125
0.34375 0.765625
0.359375 0.8125
0.34375 0.796875
0.375 0.796875
0.328125 0.78125
0.328125 0.8125
0.375 0.828125
0.359375 0.84375
0.34375 0.828125
0.359375 0.875
0.34375 0.859375
0.375 0.859375
0.328125 0.84375
0.328125 0.875
0.375 0.890625
0.359375 0.90625
0.34375 0.890625
0.359375 0.9375
0.34375 0.921875
0.375 0.921875
0.328125 0.90625
0.328125 0.9375
0.375 0.953125
0.359375 0.96875
0.34375 0.953125
0.359375 1
0.34375 0.984375
0.375 0.984375
0.328125 0.96875
0.328125 1
0.4375 0.015624999999959196
0.421875 0.031249999999938795
0.40625 0.0156249999999796
0.421875 0
0.421875 0.0625
0.40625 0.0468749999999796
0.4375 0.046874999999959199
0.390625 0.031249999999938795
0.390625 0.0625
0.390625 0
0.4375 0.078125
0.421875 0.09375
0.40625 0.078125
0.421875 0.125
0.40625 0.109375
0.4375 0.109375
0.390625 0.09375
0.390625 0.125
0.4375 0.140625
0.421875 0.15625
0.40625 0.140625
0.421875 0.1875
0.40625 0.171875
0.4375 0.171875
0.390625 0.15625
0.390625 0.1875
0.4375 0.203125
0.421875 0.21875
0.40625 0.203125
0.421875 0.25
0.40625 0.234375
0.4375 0.234375
0.390625 0.21875
0.390625 0.25
0.4375 0.265625
0.421875 0.28125
0.40625 0.265625
0.421875 0.3125
0.40625 0.296875
0.4375 0.296875
0.390625 0.28125
0.390625 0.3125
0.4375 0.328125
0.421875 0.34375
0.40625 0.328125
0.421875 0.375
0.40625 0.359375
0.4375 0.359375
0.390625 0.34375
0.390625 0.375
0.4375 0.390625
0.421875 0.40625
0.40625 0.390625
0.421875 0.4375
0.40625 0.421875
0.4375 0.421875
0.390625 0.40625
0.390625 0.4375
0.4375 0.453125
0.421875 0.46875
0.40625 0.453125
0.421875 0.5
0.40625 0.484375
0.4375 0.484375
0.390625 0.46875
0.390625 0.5
0.4375 0.515625
0.421875 0.53125
0.40625 0.515625
0.421875 0.5625
0.40625 0.546875
0.4375 0.546875
0.390625 0.53125
0.390625 0.5625
0.4375 0.578125
0.421875 0.59375
0.40625 0.578125
0.421875 0.625
0.40625 0.609375
0.4375 0.609375
0.390625 0.59375
0.390625 0.625
0.4375 0.640625
0.421875 0.65625
0.40625 0.640625
0.421875 0.6875
0.40625 0.671875
0.4375 0.671875
0.390625 0.65625
0.390625 0.6875
0.4375 0.703125
0.421875 0.71875
0.40625 0.703125
0.421875 0.75
0.40625 0.734375
0.4375 0.734375
0.390625 0.71875
0.390625 0.75
0.4375 0.765625
0.421875 0.78125
0.40625 0.765625
0.421875 0.8125
0.40625 0.796875
0.4375 0.796875
0.390625 0.78125
0.390625 0.8125
0.4375 0.828125
0.421875 0.84375
0.40625 0.828125
0.421875 0.875
0.40625 0.859375
0.4375 0.859375
0.390625 0.84375
0.390625 0.875
0.4375 0.890625
0.421875 0.90625
0.40625 0.890625
0.421875 0.9375
0.40625 0.921875
0.4375 0.921875
0.390625 0.90625
0.390625 0.9375
0.4375 0.953125
0.421875 0.96875
0.40625 0.953125
0.421875 1
0.40625 0.984375
0.4375 0.984375
0.390625 0.96875
0.390625 1
0.5 0.015624999999959196
0.484375 0.031249999999938795
0.46875 0.0156249999999796
0.484375 0
0.484375 0.0625
0.46875 0.0468749999999796
0.5 0.046874999999959199
0.453125 0.031249999999938795
0.453125 0.0625
0.453125 0
0.5 0.078125
0.484375 0.09375
0.46875 0.078125
0.484375 0.125
0.46875 0.109375
0.5 0.109375
0.453125 0.09375
0.453125 0.125
0.5 0.140625
0.484375 0.15625
0.46875 0.140625
0.484375 0.1875
0.46875 0.171875
0.5 0.171875
0.453125 0.15625
0.453125 0.1875
0.5 0.203125
0.484375 0.21875
0.46875 0.203125
0.484375 0.25
0.46875 0.234375
0.5 0.234375
0.453125 0.21875
0.453125 0.25
0.5 0.265625
0.484375 0.28125
0.46875 0.265625
0.484375 0.3125
0.46875 0.296875
0.5 0.296875
0.453125 0.28125
0.453125 0.3125
0.5 0.328125
0.484375 0.34375
0.46875 0.328125
0.484375 0.375
0.46875 0.359375
0.5 0.359375
0.453125 0.34375
0.453125 0.375
0.5 0.390625
0.484375 0.40625
0.46875 0.390625
0.484375 0.4375
0.46875 0.421875
0.5 0.421875
0.453125 0.40625
0.453125 0.4375
0.5 0.453125
0.484375 0.46875
0.46875 0.453125
0.484375 0.5
0.46875 0.484375
0.5 0.484375
0.453125 0.46875
0.453125 0.5
0.5 0.515625
0.484375 0.53125
0.46875 0.515625
0.484375 0.5625
0.46875 0.546875
0.5 0.546875
0.453125 0.53125
0.453125 0.5625
0.5 0.578125
0.484375 0.59375
0.46875 0.578125
0.484375 0.625
0.46875 0.609375
0.5 0.609375
0.453125 0.59375
0.453125 0.625
0.5 0.640625
0.484375 0.65625
0.46875 0.640625
0.484375 0.6875
0.46875 0.671875
0.5 0.671875
0.453125 0.65625
0.453125 0.6875
0.5 0.703125
0.484375 0.71875
0.46875 0.703125
0.484375 0.75
0.46875 0.734375
0.5 0.734375
0.453125 0.71875
0.453125 0.75
0.5 0.765625
0.484375 0.78125
0.46875 0.765625
0.484375 0.8125
0.46875 0.796875
0.5 0.796875
0.453125 0.78125
0.453125 0.8125
0.5 0.828125
0.484375 0.84375
0.46875 0.828125
0.484375 0.875
0.46875 0.859375
0.5 0.859375
0.453125 0.84375
0.453125 0.875
0.5 0.890625
0.484375 0.90625
0.46875 0.890625
0.484375 0.9375
0.46875 0.921875
0.5 0.921875
0.453125 0.90625
0.453125 0.9375
0.5 0.953125
0.484375 0.96875
0.46875 0.953125
0.484375 1
0.46875 0.984375
0.5 0.984375
0.453125 0.96875
0.453125 1
0.5625 0.015624999999959196
0.546875 0.031249999999938795
0.53125 0.0156249999999796
0.546875 0
0.546875 0.0625
0.53125 0.0468749999999796
0.5625 0.046874999999959199
0.515625 0.031249999999938795
0.515625 0.0625
0.515625 0
0.5625 0.078125
0.546875 0.09375
0.53125 0.078125
0.546875 0.125
0.53125 0.109375
0.5625 0.109375
0.515625 0.09375
0.515625 0.125
0.5625 0.140625
0.546875 0.15625
0.53125 0.140625
0.546875 0.1875
0.53125 0.171875
0.5625 0.171875
0.515625 0.15625
0.515625 0.1875
0.5625 0.203125
0.546875 0.21875
0.53125 0.203125
0.546875 0.25
0.53125 0.234375
0.5625 0.234375
0.515625 0.21875
0.515625 0.25
0.5625 0.265625
0.546875 0.28125
0.53125 0.265625
0.546875 0.3125
0.53125 0.296875
0.5625 0.296875
0.515625 0.28125
0.515625 0.3125
0.5625 0.328125
0.546875 0.34375
0.53125 0.328125
0.546875 0.375
0.53125 0.359375
0.5625 0.359375
0.515625 0.34375
0.515625 0.375
0.5625 0.390625
0.546875 0.40625
0.53125 0.390625
0.546875 0.4375
0.53125 0.421875
0.5625 0.421875
0.515625 0.40625
0.515625 0.4375
0.5625 0.453125
0.546875 0.46875
0.53125 0.453125
0.546875 0.5
0.53125 0.484375
0.5625 0.484375
0.515625 0.46875
0.515625 0.5
0.5625 0.515625
0.546875 0.53125
0.53125 0.515625
0.546875 0.5625
0.53125 0.546875
0.5625 0.546875
0.515625 0.53125
0.515625 0.5625
0.5625 0.578125
0.546875 0.59375
0.53125 0.578125
0.546875 0.625
0.53125 0.609375
0.5625 0.609375
0.515625 0.59375
0.515625 0.625
0.5625 0.640625
0.546875 0.65625
0.53125 0.640625
0.546875 0.6875
0.53125 0.671875
0.5625 0.671875
0.515625 0.65625
0.515625 0.6875
0.5625 0.703125
0.546875 0.71875
0.53125 0.703125
0.546875 0.75
0.53125 0.734375
0.5625 0.734375
0.515625 0.71875
0.515625 0.75
0.5625 0.765625
0.546875 0.78125
0.53125 0.765625
0.546875 0.8125
0.53125 0.796875
0.5625 0.796875
0.515625 0.78125
0.515625 0.8125
0.5625 0.828125
0.546875 0.84375
0.53125 0.828125
0.546875 0.875
0.53125 0.859375
0.5625 0.859375
0.515625 0.84375
0.515625 0.875
0.5625 0.890625
0.546875 0.90625
0.53125 0.890625
0.546875 0.9375
0.53125 0.921875
0.5625 0.921875
0.515625 0.90625
0.515625 0.9375
0.5625 0.953125
0.546875 0.96875
0.53125 0.953125
0.546875 1
0.53125 0.984375
0.5625 0.984375
0.515625 0.96875
0.515625 1
0.625 0.015624999999959196
0.609375 0.031249999999938795
0.59375 0.0156249999999796
0.609375 0
0.609375 0.0625
0.59375 0.0468749999999796
0.625 0.046874999999959199
0.578125 0.031249999999938795
0.578125 0.0625
0.578125 0
0.625 0.078125
0.609375 0.09375
0.59375 0.078125
0.609375 0.125
0.59375 0.109375
0.625 0.109375
0.578125 0.09375
0.578125 0.125
0.625 0.140625
0.609375 0.15625
0.59375 0.140625
0.609375 0.1875
0.59375 0.171875
0.625 0.171875
0.578125 0.15625
0.578125 0.1875
0.625 0.203125
0.609375 0.21875
0.59375 0.203125
0.609375 0.25
0.59375 0.234375
0.625 0.234375
0.578125 0.21875
0.578125 0.25
0.625 0.265625
0.609375 0.28125
0.59375 0.265625
0.609375 0.3125
0.59375 0.296875
0.625 0.296875
0.578125 0.28125
0.578125 0.3125
0.625 0.328125
0.609375 0.34375
0.59375 0.328125
0.609375 0.375
0.59375 0.359375
0.625 0.359375
0.578125 0.34375
0.578125 0.375
0.625 0.390625
0.609375 0.40625
0.59375 0.390625
0.609375 0.4375
0.59375 0.421875
0.625 0.421875
0.578125 0.40625
0.578125 0.4375
0.625 0.453125
0.609375 0.46875
0.59375 0.453125
0.609375 0.5
0.59375 0.484375
0.625 0.484375
0.578125 0.46875
0.578125 0.5
0.625 0.515625
0.609375 0.53125
0.59375 0.515625
0.609375 0.5625
0.59375 0.546875
0.625 0.546875
0.578125 0.53125
0.578125 0.5625
0.625 0.578125
0.609375 0.59375
0.59375 0.578125
0.609375 0.625
0.59375 0.609375
0.625 0.609375
0.578125 0.59375
0.578125 0.625
0.625 0.640625
0.609375 0.65625
0.59375 0.640625
0.609375 0.6875
0.59375 0.671875
0.625 0.671875
0.578125 0.65625
0.578125 0.6875
0.625 0.703125
0.609375 0.71875
0.59375 0.703125
0.609375 0.75
0.59375 0.734375
0.625 0.734375
0.578125 0.71875
0.578125 0.75
0.625 0.765625
0.609375 0.78125
0.59375 0.765625
0.609375 0.8125
0.59375 0.796875
0.625 0.796875
0.578125 0.78125
0.578125 0.8125
0.625 0.828125
0.609375 0.84375
0.59375 0.828125
0.609375 0.875
0.59375 0.859375
0.625 0.859375
0.578125 0.84375
0.578125 0.875
0.625 0.890625
0.609375 0.90625
0.59375 0.890625
0.609375 0.9375
0.59375 0.921875
0.625 0.921875
0.578125 0.90625
0.578125 0.9375
0.625 0.953125
0.609375 0.96875
0.59375 0.953125
0.609375 1
0.59375 0.984375
0.625 0.984375
0.578125 0.96875
0.578125 1
0.6875 0.015624999999959196
0.671875 0.031249999999938795
0.65625 0.0156249999999796
0.671875 0
0.671875 0.0625
0.65625 0.0468749999999796
0.6875 0.046874999999959199
0.640625 0.031249999999938795
0.640625 0.0625
0.640625 0
0.6875 0.078125
0.671875 0.09375
0.65625 0.078125
0.671875 0.125
0.65625 0.109375
0.6875 0.109375
0.640625 0.09375
0.640625 0.125
0.6875 0.140625
0.671875 0.15625
0.65625 0.140625
0.671875 0.1875
0.65625 0.171875
0.6875 0.171875
0.640625 0.15625
0.640625 0.1875
0.6875 0.203125
0.671875 0.21875
0.65625 0.203125
0.671875 0.25
0.65625 0.234375
0.6875 0.234375
0.640625 0.21875
0.640625 0.25
0.6875 0.265625
0.671875 0.28125
0.65625 0.265625
0.671875 0.3125
0.65625 0.296875
0.6875 0.296875
0.640625 0.28125
0.640625 0.3125
0.6875 0.328125
0.671875 0.34375
0.65625 0.328125
0.671875 0.375
0.65625 0.359375
0.6875 0.359375
0.640625 0.34375
0.640625 0.375
0.6875 0.390625
0.671875 0.40625
0.65625 0.390625
0.671875 0.4375
0.65625 0.421875
0.6875 0.421875
0.640625 0.40625
0.640625 0.4375
0.6875 0.453125
0.671875 0.46875
0.65625 0.453125
0.671875 0.5
0.65625 0.484375
0.6875 0.484375
0.640625 0.46875
0.640625 0.5
0.6875 0.515625
0.671875 0.53125
0.65625 0.515625
0.671875 0.5625
0.65625 0.546875
0.6875 0.546875
0.640625 0.53125
0.640625 0.5625
0.6875 0.578125
0.671875 0.59375
0.65625 0.578125
0.671875 0.625
0.65625 0.609375
0.6875 0.609375
0.640625 0.59375
0.640625 0.625
0.6875 0.640625
0.671875 0.65625
0.65625 0.640625
0.671875 0.6875
0.65625 0.671875
0.6875 0.671875
0.640625 0.65625
0.640625 0.6875
0.6875 0.703125
0.671875 0.71875
0.65625 0.703125
0.671875 0.75
0.65625 0.734375
0.6875 0.734375
0.640625 0.71875
0.640625 0.75
0.6875 0.765625
0.671875 0.78125
0.65625 0.765625
0.671875 0.8125
0.65625 0.796875
0.6875 0.796875
0.640625 0.78125
0.640625 0.8125
0.6875 0.828125
0.671875 0.84375
0.65625 0.828125
0.671875 0.875
0.65625 0.859375
0.6875 0.859375
0.640625 0.84375
0.640625 0.875
0.6875 0.890625
0.671875 0.90625
0.65625 0.890625
0.671875 0.9375
0.65625 0.921875
0.6875 0.921875
0.640625 0.90625
0.640625 0.9375
0.6875 0.953125
0.671875 0.96875
0.65625 0.953125
0.671875 1
0.65625 0.984375
0.6875 0.984375
0.640625 0.96875
0.640625 1
0.75 0.015624999999959196
0.734375 0.031249999999938795
0.71875 0.0156249999999796
0.734375 0
0.734375 0.0625
0.71875 0.0468749999999796
0.75 0.046874999999959199
0.703125 0.031249999999938795
0.703125 0.0625
0.703125 0
0.75 0.078125
0.734375 0.09375
0.71875 0.078125
0.734375 0.125
0.71875 0.109375
0.75 0.109375
0.703125 0.09375
0.703125 0.125
0.75 0.140625
0.734375 0.15625
0.71875 0.140625
0.734375 0.1875
0.71875 0.171875
0.75 0.171875
0.703125 0.15625
0.703125 0.1875
0.75 0.203125
0.734375 0.21875
0.71875 0.203125
0.734375 0.25
0.71875 0.234375
0.75 0.234375
0.703125 0.21875
0.703125 0.25
0.75 0.265625
0.734375 0.28125
0.71875 0.265625
0.734375 0.3125
0.71875 0.296875
0.75 0.296875
0.703125 0.28125
0.703125 0.3125
0.75 0.328125
0.734375 0.34375
0.71875 0.328125
0.734375 0.375
0.71875 0.359375
0.75 0.359375
0.703125 0.34375
0.703125 0.375
0.75 0.390625
0.734375 0.40625
0.71875 0.390625
0.734375 0.4375
0.71875 0.421875
0.75 0.421875
0.703125 0.40625
0.703125 0.4375
0.75 0.453125
0.734375 0.46875
0.71875 0.453125
0.734375 0.5
0.71875 0.484375
0.75 0.484375
0.703125 0.46875
0.703125 0.5
0.75 0.515625
0.734375 0.53125
0.71875 0.515625
0.734375 0.5625
0.71875 0.546875
0.75 0.546875
0.703125 0.53125
0.703125 0.5625
0.75 0.578125
0.734375 0.59375
0.71875 0.578125
0.734375 0.625
0.71875 0.609375
0.75 0.609375
0.703125 0.59375
0.703125 0.625
0.75 0.640625
0.734375 0.65625
0.71875 0.640625
0.734375 0.6875
0.71875 0.671875
0.75 0.671875
0.703125 0.65625
0.703125 0.6875
0.75 0.703125
0.734375 0.71875
0.71875 0.703125
0.734375 0.75
0.71875 0.734375
0.75 0.734375
0.703125 0.71875
0.703125 0.75
0.75 0.765625
0.734375 0.78125
0.71875 0.765625
0.734375 0.8125
0.71875 0.796875
0.75 0.796875
0.703125 0.78125
0.703125 0.8125
0.75 0.828125
0.734375 0.84375
0.71875 0.828125
0.734375 0.875
0.71875 0.859375
0.75 0.859375
0.703125 0.84375
0.703125 0.875
0.75 0.890625
0.734375 0.90625
0.71875 0.890625
0.734375 0.9375
0.71875 0.921875
0.75 0.921875
0.703125 0.90625
0.703125 0.9375
0.75 0.953125
0.734375 0.96875
0.71875 0.953125
0.734375 1
0.71875 0.984375
0.75 0.984375
0.703125 0.96875
0.703125 1
0.296875 0.015624999999969398
0.296875 0.046874999999969399
0.265625 0.046874999999969399
0.265625 0.015624999999969398
0.296875 0.078125
0.296875 0.109375
0.265625 0.109375
0.265625 0.078125
0.296875 0.140625
0.296875 0.171875
0.265625 0.171875
0.265625 0.140625
0.296875 0.203125
0.296875 0.234375
0.265625 0.234375
0.265625 0.203125
0.296875 0.265625
0.296875 0.296875
0.265625 0.296875
0.265625 0.265625
0.296875 0.328125
0.296875 0.359375
0.265625 0.359375
0.265625 0.328125
0.296875 0.390625
0.296875 0.421875
0.265625 0.421875
0.265625 0.390625
0.296875 0.453125
0.296875 0.484375
0.265625 0.484375
0.265625 0.453125
0.296875 0.515625
0.296875 0.546875
0.265625 0.546875
0.265625 0.515625
0.296875 0.578125
0.296875 0.609375
0.265625 0.609375
0.265625 0.578125
0.296875 0.640625
0.296875 0.671875
0.265625 0.671875
0.265625 0.640625
0.296875 0.703125
0.296875 0.734375
0.265625 0.734375
0.265625 0.703125
0.296875 0.765625
0.296875 0.796875
0.265625 0.796875
0.265625 0.765625
0.296875 0.828125
0.296875 0.859375
0.265625 0.859375
0.265625 0.828125
0.296875 0.890625
0.296875 0.921875
0.265625 0.921875
0.265625 0.890625
0.296875 0.953125
0.296875 0.984375
0.265625 0.984375
0.265625 0.953125
0.359375 0.015624999999969398
0.359375 0.046874999999969399
0.328125 0.046874999999969399
0.328125 0.015624999999969398
0.359375 0.078125
0.359375 0.109375
0.328125 0.109375
0.328125 0.078125
0.359375 0.140625
0.359375 0.171875
0.328125 0.171875
0.328125 0.140625
0.359375 0.203125
0.359375 0.234375
0.328125 0.234375
0.328125 0.203125
0.359375 0.265625
0.359375 0.296875
0.328125 0.296875
0.328125 0.265625
0.359375 0.328125
0.359375 0.359375
0.328125 0.359375
0.328125 0.328125
0.359375 0.390625
0.359375 0.421875
0.328125 0.421875
0.328125 0.390625
0.359375 0.453125
0.359375 0.484375
0.328125 0.484375
0.328125 0.453125
0.359375 0.515625
0.359375 0.546875
0.328125 0.546875
0.328125 0.515625
0.359375 0.578125
0.359375 0.609375
0.328125 0.609375
0.328125 0.578125
0.359375 0.640625
0.359375 0.671875
0.328125 0.671875
0.328125 0.640625
0.359375 0.703125
0.359375 0.734375
0.328125 0.734375
0.328125 0.703125
0.359375 0.765625
0.359375 0.796875
0.328125 0.796875
0.328125 0.765625
0.359375 0.828125
0.359375 0.859375
0.328125 0.859375
0.328125 0.828125
0.359375 0.890625
0.359375 0.921875
0.328125 0.921875
0.328125 0.890625
0.359375 0.953125
0.359375 0.984375
0.328125 0.984375
0.328125 0.953125
0.421875 0.015624999999969398
0.421875 0.046874999999969399
0.390625 0.046874999999969399
0.390625 0.015624999999969398
0.421875 0.078125
0.421875 0.109375
0.390625 0.109375
0.390625 0.078125
0.421875 0.140625
0.421875 0.171875
0.390625 0.171875
0.390625 0.140625
0.421875 0.203125
0.421875 0.234375
0.390625 0.234375
0.390625 0.203125
0.421875 0.265625
0.421875 0.296875
0.390625 0.296875
0.390625 0.265625
0.421875 0.328125
0.421875 0.359375
0.390625 0.359375
0.390625 0.328125
0.421875 0.390625
0.421875 0.421875
0.390625 0.421875
0.390625 0.390625
0.421875 0.453125
0.421875 0.484375
0.390625 0.484375
0.390625 0.453125
0.421875 0.515625
0.421875 0.546875
0.390625 0.546875
0.390625 0.515625
0.421875 0.578125
0.421875 0.609375
0.390625 0.609375
0.390625 0.578125
0.421875 0.640625
0.421875 0.671875
0.390625 0.671875
0.390625 0.640625
0.421875 0.703125
0.421875 0.734375
0.390625 0.734375
0.390625 0.703125
0.421875 0.765625
0.421875 0.796875
0.390625 0.796875
0.390625 0.765625
0.421875 0.828125
0.421875 0.859375
0.390625 0.859375
0.390625 0.828125
0.421875 0.890625
0.421875 0.921875
0.390625 0.921875
0.390625 0.890625
0.421875 0.953125
0.421875 0.984375
0.390625 0.984375
0.390625 0.953125
0.484375 0.015624999999969398
0.484375 0.046874999999969399
0.453125 0.046874999999969399
0.453125 0.015624999999969398
0.484375 0.078125
0.484375 0.109375
0.453125 0.109375
0.453125 0.078125
0.484375 0.140625
0.484375 0.171875
0.453125 0.171875
0.453125 0.140625
0.484375 0.203125
0.484375 0.234375
0.453125 0.234375
0.453125 0.203125
0.484375 0.265625
0.484375 0.296875
0.453125 0.296875
0.453125 0.265625
0.484375 0.328125
0.484375 0.359375
0.453125 0.359375
0.453125 0.328125
0.484375 0.390625
0.484375 0.421875
0.453125 0.421875
0.453125 0.390625
0.484375 0.453125
0.484375 0.484375
0.453125 0.484375
0.453125 0.453125
0.484375 0.515625
0.484375 0.546875
0.453125 0.546875
0.453125 0.515625
0.484375 0.578125
0.484375 0.609375
0.453125 0.609375
0.453125 0.578125
0.484375 0.640625
0.484375 0.671875
0.453125 0.671875
0.453125 0.640625
0.484375 0.703125
0.484375 0.734375
0.453125 0.734375
0.453125 0.703125
0.484375 0.765625
0.484375 0.796875
0.453125 0.796875
0.453125 0.765625
0.484375 0.828125
0.484375 0.859375
0.453125 0.859375
0.453125 0.828125
0.484375 0.890625
0.484375 0.921875
0.453125 0.921875
0.453125 0.890625
0.484375 0.953125
0.484375 0.984375
0.453125 0.984375
0.453125 0.953125
0.546875 0.015624999999969398
0.546875 0.046874999999969399
0.515625 0.046874999999969399
0.515625 0.015624999999969398
0.546875 0.078125
0.546875 0.109375
0.515625 0.109375
0.515625 0.078125
0.546875 0.140625
0.546875 0.171875
0.515625 0.171875
0.515625 0.140625
0.546875 0.203125
0.546875 0.234375
0.515625 0.234375
0.515625 0.203125
0.546875 0.265625
0.546875 0.296875
0.515625 0.296875
0.515625 0.265625
0.546875 0.328125
0.546875 0.359375
0.515625 0.359375
0.515625 0.328125
0.546875 0.390625
0.546875 0.421875
0.515625 0.421875
0.515625 0.390625
0.546875 0.453125
0.546875 0.484375
0.515625 0.484375
0.515625 0.453125
0.546875 0.515625
0.546875 0.546875
0.515625 0.546875
0.515625 0.515625
0.546875 0.578125
0.546875 0.609375
0.515625 0.609375
0.515625 0.578125
0.546875 0.640625
0.546875 0.671875
0.515625 0.671875
0.515625 0.640625
0.546875 0.703125
0.546875 0.734375
0.515625 0.734375
0.515625 0.703125
0.546875 0.765625
0.546875 0.796875
0.515625 0.796875
0.515625 0.765625
0.546875 0.828125
0.546875 0.859375
0.515625 0.859375
0.515625 0.828125
0.546875 0.890625
0.546875 0.921875
0.515625 0.921875
0.515625 0.890625
0.546875 0.953125
0.546875 0.984375
0.515625 0.984375
0.515625 0.953125
0.609375 0.015624999999969398
0.609375 0.046874999999969399
0.578125 0.046874999999969399
0.578125 0.015624999999969398
0.609375 0.078125
0.609375 0.109375
0.578125 0.109375
0.578125 0.078125
0.609375 0.140625
0.609375 0.171875
0.578125 0.171875
0.578125 0.140625
0.609375 0.203125
0.609375 0.234375
0.578125 0.234375
0.578125 0.203125
0.609375 0.265625
0.609375 0.296875
0.578125 0.296875
0.578125 0.265625
0.609375 0.328125
0.609375 0.359375
0.578125 0.359375
0.578125 0.328125
0.609375 0.390625
0.609375 0.421875
0.578125 0.421875
0.578125 0.390625
0.609375 0.453125
0.609375 0.484375
0.578125 0.484375
0.578125 0.453125
0.609375 0.515625
0.609375 0.546875
0.578125 0.546875
0.578125 0.515625
0.609375 0.578125
0.609375 0.609375
0.578125 0.609375
0.578125 0.578125
0.609375 0.640625
0.609375 0.671875
0.578125 0.671875
0.578125 0.640625
0.609375 0.703125
0.609375 0.734375
0.578125 0.734375
0.578125 0.703125
0.609375 0.765625
0.609375 0.796875
0.578125 0.796875
0.578125 0.765625
0.609375 0.828125
0.609375 0.859375
0.578125 0.859375
0.578125 0.828125
0.609375 0.890625
0.609375 0.921875
0.578125 0.921875
0.578125 0.890625
0.609375 0.953125
0.609375 0.984375
0.578125 0.984375
0.578125 0.953125
0.671875 0.015624999999969398
0.671875 0.046874999999969399
0.640625 0.046874999999969399
0.640625 0.015624999999969398
0.671875 0.078125
0.671875 0.109375
0.640625 0.109375
0.640625 0.078125
0.671875 0.140625
0.671875 0.171875
0.640625 0.171875
0.640625 0.140625
0.671875 0.203125
0.671875 0.234375
0.640625 0.234375
0.640625 0.203125
0.671875 0.265625
0.671875 0.296875
0.640625 0.296875
0.640625 0.265625
0.671875 0.328125
0.671875 0.359375
0.640625 0.359375
0.640625 0.328125
0.671875 0.390625
0.671875 0.421875
0.640625 0.421875
0.640625 0.390625
0.671875 0.453125
0.671875 0.484375
0.640625 0.484375
0.640625 0.453125
0.671875 0.515625
0.671875 0.546875
0.640625 0.546875
0.640625 0.515625
0.671875 0.578125
0.671875 0.609375
0.640625 0.609375
0.640625 0.578125
0.671875 0.640625
0.671875 0.671875
0.640625 0.671875
0.640625 0.640625
0.671875 0.703125
0.671875 0.734375
0.640625 0.734375
0.640625 0.703125
0.671875 0.765625
0.671875 0.796875
0.640625 0.796875
0.640625 0.765625
0.671875 0.828125
0.671875 0.859375
0.640625 0.859375
0.640625 0.828125
0.671875 0.890625
0.671875 0.921875
0.640625 0.921875
0.640625 0.890625
0.671875 0.953125
0.671875 0.984375
0.640625 0.984375
0.640625 0.953125
0.734375 0.015624999999969398
0.734375 0.046874999999969399
0.703125 0.046874999999969399
0.703125 0.015624999999969398
0.734375 0.078125
0.734375 0.109375
0.703125 0.109375
0.703125 0.078125
0.734375 0.140625
0.734375 0.171875
0.703125 0.171875
0.703125 0.140625
0.734375 0.203125
0.734375 0.234375
0.703125 0.234375
0.703125 0.203125
0.734375 0.265625
0.734375 0.296875
0.703125 0.296875
0.703125 0.265625
0.734375 0.328125
0.734375 0.359375
0.703125 0.359375
0.703125 0.328125
0.734375 0.390625
0.734375 0.421875
0.703125 0.421875
0.703125 0.390625
0.734375 0.453125
0.734375 0.484375
0.703125 0.484375
0.703125 0.453125
0.734375 0.515625
0.734375 0.546875
0.703125 0.546875
0.703125 0.515625
0.734375 0.578125
0.734375 0.609375
0.703125 0.609375
0.703125 0.578125
0.734375 0.640625
0.734375 0.671875
0.703125 0.671875
0.703125 0.640625
0.734375 0.703125
0.734375 0.734375
0.703125 0.734375
0.703125 0.703125
0.734375 0.765625
0.734375 0.796875
0.703125 0.796875
0.703125 0.765625
0.734375 0.828125
0.734375 0.859375
0.703125 0.859375
0.703125 0.828125
0.734375 0.890625
0.734375 0.921875
0.703125 0.921875
0.703125 0.890625
0.734375 0.953125
0.734375 0.984375
0.703125 0.984375
0.703125 0.953125
CELLS 2560
4 17 577 833 289
4 18 305 833 577
4 1 561 833 305
4 0 289 833 561
4 18 578 834 305
4 19 321 834 578
4 2 562 834 321
4 1 305 834 562
4 19 579 835 321
4 20 337 835 579
4 3 563 835 337
4 2 321 835 563
4 20 580 836 337
4 21 353 836 580
4 4 564 836 353
4 3 337 836 564
4 21 581 837 353
4 22 369 837 581
4 5 565 837 369
4 4 353 837 565
4 22 582 838 369
4 23 385 838 582
4 6 566 838 385
4 5 369 838 566
4 23 583 839 385
4 24 401 839 583
4 7 567 839 401
4 6 385 839 567
4 24 584 840 401
4 25 417 840 584
4 8 568 840 417
4 7 401 840 568
4 25 585 841 417
4 26 433 841 585
4 9 569 841 433
4 8 417 841 569
4 26 586 842 433
4 27 449 842 586
4 10 570 842 449
4 9 433 842 570
4 27 587 843 449
4 28 465 843 587
4 11 571 843 465
4 10 449 843 571
4 28 588 844 465
4 29 481 844 588
4 12 572 844 481
4 11 465 844 572
4 29 589 845 481
4 30 497 845 589
4 13 573 845 497
4 12 481 845 573
4 30 590 846 497
4 31 513 846 590
4 14 574 846 513
4 13 497 846 574
4 31 591 847 513
4 32 529 847 591
4 15 575 847 529
4 14 513 847 575
4 32 592 848 529
4 33 545 848 592
4 16 576 848 545
4 15 529 848 576
4 34 593 849 290
4 35 306 849 593
4 18 577 849 306
4 17 290 849 577
4 35 594 850 306
4 36 322 850 594
4 19 578 850 322
4 18 306 850 578
4 36 595 851 322
4 37 338 851 595
4 20 579 851 338
4 19 322 851 579
4 37 596 852 338
4 38 354 852 596
4 21 580 852 354
4 20 338 852 580
4 38 597 853 354
4 39 370 853 597
4 22 581 853 370
4 21 354 853 581
4 39 598 854 370
4 40 386 854 598
4 23 582 854 386
4 22 370 854 582
4 40 599 855 386
4 41 402 855 599
4 24 583 855 402
4 23 386 855 583
4 41 600 856 402
4 42 418 856 600
4 25 584 856 418
4 24 402 856 584
4 42 601 857 418
4 43 434 857 601
4 26 585 857 434
4 25 418 857 585
4 43 602 858 434
4 44 450 858 602
4 27 586 858 450
4 26 434 858 586
4 44 603 859 450
4 45 466 859 603
4 28 587 859 466
4 27 450 859 587
4 45 604 860 466
4 46 482 860 604
4 29 588 860 482
4 28 466 860 588
4 46 605 861 482
4 47 498 861 605
4 30 589 861 498
4 29 482 861 589
4 47 606 862 498
4 48 514 862 606
4 31 590 862 514
4 30 498 862 590
4 48 607 863 514
4 49 530 863 607
4 32 591 863 530
4 31 514 863 591
4 49 608 864 530
4 50 546 864 608
4 33 592 864 546
4 32 530 864 592
4 51 609 865 291
4 52 307 865 609
4 35 593 865 307
4 34 291 865 593
4 52 610 866 307
4 53 323 866 610
4 36 594 866 323
4 35 307 866 594
4 53 611 867 323
4 54 339 867 611
4 37 595 867 339
4 36 323 867 595
4 54 612 868 339
4 55 355 868 612
4 38 596 868 355
4 37 339 868 596
4 55 613 869 355
4 56 371 869 613
4 39 597 869 371
4 38 355 869 597
4 56 614 870 371
4 57 387 870 614
4 40 598 870 387
4 39 371 870 598
4 57 615 871 387
4 58 403 871 615
4 41 599 871 403
4 40 387 871 599
4 58 616 872 403
4 59 419 872 616
4 42 600 872 419
4 41 403 872 600
4 59 617 873 419
4 60 435 873 617
4 43 601 873 435
4 42 419 873 601
4 60 618 874 435
4 61 451 874 618
4 44 602 874 451
4 43 435 874 602
4 61 619 875 451
4 62 467 875 619
4 45 603 875 467
4 44 451 875 603
4 62 620 876 467
4 63 483 876 620
4 46 604 876 483
4 45 467 876 604
4 63 621 877 483
4 64 499 877 621
4 47 605 877 499
4 46 483 877 605
4 64 622 878 499
4 65 515 878 622
4 48 606 878 515
4 47 499 878 606
4 65 623 879 515
4 66 531 879 623
4 49 607 879 531
4 48 515 879 607
4 66 624 880 531
4 67 547 880 624
4 50 608 880 547
4 49 531 880 608
5 68 1100 625 881 292
5 69 308 881 625 1096
4 52 609 881 308
4 51 292 881 609
5 69 1110 626 882 308
5 70 324 882 626 1107
4 53 610 882 324
4 52 308 882 610
5 70 1120 627 883 324
5 71 340 883 627 1117
4 54 611 883 340
4 53 324 883 611
5 71 1130 628 884 340
5 72 356 884 628 1127
4 55 612 884 356
4 54 340 884 612
5 72 1140 629 885 356
5 73 372 885 629 1137
4 56 613 885 372
4 55 356 885 613
5 73 1150 630 886 372
5 74 388 886 630 1147
4 57 614 886 388
4 56 372 886 614
5 74 1160 631 887 388
5 75 404 887 631 1157
4 58 615 887 404
4 57 388 887 615
5 75 1170 632 888 404
5 76 420 888 632 1167
4 59 616 888 420
4 58 404 888 616
5 76 1180 633 889 420
5 77 436 889 633 1177
4 60 617 889 436
4 59 420 889 617
5 77 1190 634 890 436
5 78 452 890 634 1187
4 61 618 890 452
4 60 436 890 618
5 78 1200 635 891 452
5 79 468 891 635 1197
4 62 619 891 468
4 61 452 891 619
5 79 1210 636 892 468
5 80 484 892 636 1207
4 63 620 892 484
4 62 468 892 620
5 80 1220 637 893 484
5 81 500 893 637 1217
4 64 621 893 500
4 63 484 893 621
5 81 1230 638 894 500
5 82 516 894 638 1227
4 65 622 894 516
4 64 500 894 622
5 82 1240 639 895 516
5 83 532 895 639 1237
4 66 623 895 532
4 65 516 895 623
5 83 1250 640 896 532
5 84 548 896 640 1247
4 67 624 896 548
4 66 532 896 624
4 85 1089 2161 1092
4 1089 641 1090 2161
4 2161 1090 897 1091
4 1092 2161 1091 293
4 86 1093 2162 1095
4 1093 309 1094 2162
4 2162 1094 897 1090
4 1095 2162 1090 641
4 69 1096 2163 1098
4 1096 625 1097 2163
4 2163 1097 897 1094
4 1098 2163 1094 309
4 68 1099 2164 1100
4 1099 293 1091 2164
4 2164 1091 897 1097
4 1100 2164 1097 625
4 86 1101 2165 1093
4 1101 642 1102 2165
4 2165 1102 898 1103
4 1093 2165 1103 309
4 87 1104 2166 1106
4 1104 325 1105 2166
4 2166 1105 898 1102
4 1106 2166 1102 642
4 70 1107 2167 1109
4 1107 626 1108 2167
4 2167 1108 898 1105
4 1109 2167 1105 325
4 69 1098 2168 1110
4 1098 309 1103 2168
4 2168 1103 898 1108
4 1110 2168 1108 626
4 87 1111 2169 1104
4 1111 643 1112 2169
4 2169 1112 899 1113
4 1104 2169 1113 325
4 88 1114 2170 1116
4 1114 341 1115 2170
4 2170 1115 899 1112
4 1116 2170 1112 643
4 71 1117 2171 1119
4 1117 627 1118 2171
4 2171 1118 899 1115
4 1119 2171 1115 341
4 70 1109 2172 1120
4 1109 325 1113 2172
4 2172 1113 899 1118
4 1120 2172 1118 627
4 88 1121 2173 1114
4 1121 644 1122 2173
4 2173 1122 900 1123
4 1114 2173 1123 341
4 89 1124 2174 1126
4 1124 357 1125 2174
4 2174 1125 900 1122
4 1126 2174 1122 644
4 72 1127 2175 1129
4 1127 628 1128 2175
4 2175 1128 900 1125
4 1129 2175 1125 357
4 71 1119 2176 1130
4 1119 341 1123 2176
4 2176 1123 900 1128
4 1130 2176 1128 628
4 89 1131 2177 1124
4 1131 645 1132 2177
4 2177 1132 901 1133
4 1124 2177 1133 357
4 90 1134 2178 1136
4 1134 373 1135 2178
4 2178 1135 901 1132
4 1136 2178 1132 645
4 73 1137 2179 1139
4 1137 629 1138 2179
4 2179 1138 901 1135
4 1139 2179 1135 373
4 72 1129 2180 1140
4 1129 357 1133 2180
4 2180 1133 901 1138
4 1140 2180 1138 629
4 90 1141 2181 1134
4 1141 646 1142 2181
4 2181 1142 902 1143
4 1134 2181 1143 373
4 91 1144 2182 1146
4 1144 389 1145 2182
4 2182 1145 902 1142
4 1146 2182 1142 646
4 74 1147 2183 1149
4 1147 630 1148 2183
4 2183 1148 902 1145
4 1149 2183 1145 389
4 73 1139 2184 1150
4 1139 373 1143 2184
4 2184 1143 902 1148
4 1150 2184 1148 630
4 91 1151 2185 1144
4 1151 647 1152 2185
4 2185 1152 903 1153
4 1144 2185 1153 389
4 92 1154 2186 1156
4 1154 405 1155 2186
4 2186 1155 903 1152
4 1156 2186 1152 647
4 75 1157 2187 1159
4 1157 631 1158 2187
4 2187 1158 903 1155
4 1159 2187 1155 405
4 74 1149 2188 1160
4 1149 389 1153 2188
4 2188 1153 903 1158
4 1160 2188 1158 631
4 92 1161 2189 1154
4 1161 648 1162 2189
4 2189 1162 904 1163
4 1154 2189 1163 405
4 93 1164 2190 1166
4 1164 421 1165 2190
4 2190 1165 904 1162
4 1166 2190 1162 648
4 76 1167 2191 1169
4 1167 632 1168 2191
4 2191 1168 904 1165
4 1169 2191 1165 421
4 75 1159 2192 1170
4 1159 405 1163 2192
4 2192 1163 904 1168
4 1170 2192 1168 632
4 93 1171 2193 1164
4 1171 649 1172 2193
4 2193 1172 905 1173
4 1164 2193 1173 421
4 94 1174 2194 1176
4 1174 437 1175 2194
4 2194 1175 905 1172
4 1176 2194 1172 649
4 77 1177 2195 1179
4 1177 633 1178 2195
4 2195 1178 905 1175
4 1179 2195 1175 437
4 76 1169 2196 1180
4 1169 421 1173 2196
4 2196 1173 905 1178
4 1180 2196 1178 633
4 94 1181 2197 1174
4 1181 650 1182 2197
4 2197 1182 906 1183
4 1174 2197 1183 437
4 95 1184 2198 1186
4 1184 453 1185 2198
4 2198 1185 906 1182
4 1186 2198 1182 650
4 78 1187 2199 1189
4 1187 634 1188 2199
4 2199 1188 906 1185
4 1189 2199 1185 453
4 77 1179 2200 1190
4 1179 437 1183 2200
4 2200 1183 906 1188
4 1190 2200 1188 634
4 95 1191 2201 1184
4 1191 651 1192 2201
4 2201 1192 907 1193
4 1184 2201 1193 453
4 96 1194 2202 1196
4 1194 469 1195 2202
4 2202 1195 907 1192
4 1196 2202 1192 651
4 79 1197 2203 1199
4 1197 635 1198 2203
4 2203 1198 907 1195
4 1199 2203 1195 469
4 78 1189 2204 1200
4 1189 453 1193 2204
4 2204 1193 907 1198
4 1200 2204 1198 635
4 96 1201 2205 1194
4 1201 652 1202 2205
4 2205 1202 908 1203
4 1194 2205 1203 469
4 97 1204 2206 1206
4 1204 485 1205 2206
4 2206 1205 908 1202
4 1206 2206 1202 652
4 80 1207 2207 1209
4 1207 636 1208 2207
4 2207 1208 908 1205
4 1209 2207 1205 485
4 79 1199 2208 1210
4 1199 469 1203 2208
4 2208 1203 908 1208
4 1210 2208 1208 636
4 97 1211 2209 1204
4 1211 653 1212 2209
4 2209 1212 909 1213
4 1204 2209 1213 485
4 98 1214 2210 1216
4 1214 501 1215 2210
4 2210 1215 909 1212
4 1216 2210 1212 653
4 81 1217 2211 1219
4 1217 637 1218 2211
4 2211 1218 909 1215
4 1219 2211 1215 501
4 80 1209 2212 1220
4 1209 485 1213 2212
4 2212 1213 909 1218
4 1220 2212 1218 637
4 98 1221 2213 1214
4 1221 654 1222 2213
4 2213 1222 910 1223
4 1214 2213 1223 501
4 99 1224 2214 1226
4 1224 517 1225 2214
4 2214 1225 910 1222
4 1226 2214 1222 654
4 82 1227 2215 1229
4 1227 638 1228 2215
4 2215 1228 910 1225
4 1229 2215 1225 517
4 81 1219 2216 1230
4 1219 501 1223 2216
4 2216 1223 910 1228
4 1230 2216 1228 638
4 99 1231 2217 1224
4 1231 655 1232 2217
4 2217 1232 911 1233
4 1224 2217 1233 517
4 100 1234 2218 1236
4 1234 533 1235 2218
4 2218 1235 911 1232
4 1236 2218 1232 655
4 83 1237 2219 1239
4 1237 639 1238 2219
4 2219 1238 911 1235
4 1239 2219 1235 533
4 82 1229 2220 1240
4 1229 517 1233 2220
4 2220 1233 911 1238
4 1240 2220 1238 639
4 100 1241 2221 1234
4 1241 656 1242 2221
4 2221 1242 912 1243
4 1234 2221 1243 533
4 101 1244 2222 1246
4 1244 549 1245 2222
4 2222 1245 912 1242
4 1246 2222 1242 656
4 84 1247 2223 1249
4 1247 640 1248 2223
4 2223 1248 912 1245
4 1249 2223 1245 549
4 83 1239 2224 1250
4 1239 533 1243 2224
4 2224 1243 912 1248
4 1250 2224 1248 640
4 102 1251 2225 1254
4 1251 657 1252 2225
4 2225 1252 913 1253
4 1254 2225 1253 294
4 103 1255 2226 1257
4 1255 310 1256 2226
4 2226 1256 913 1252
4 1257 2226 1252 657
4 86 1095 2227 1259
4 1095 641 1258 2227
4 2227 1258 913 1256
4 1259 2227 1256 310
4 85 1260 2228 1089
4 1260 294 1253 2228
4 2228 1253 913 1258
4 1089 2228 1258 641
4 103 1261 2229 1255
4 1261 658 1262 2229
4 2229 1262 914 1263
4 1255 2229 1263 310
4 104 1264 2230 1266
4 1264 326 1265 2230
4 2230 1265 914 1262
4 1266 2230 1262 658
4 87 1106 2231 1268
4 1106 642 1267 2231
4 2231 1267 914 1265
4 1268 2231 1265 326
4 86 1259 2232 1101
4 1259 310 1263 2232
4 2232 1263 914 1267
4 1101 2232 1267 642
4 104 1269 2233 1264
4 1269 659 1270 2233
4 2233 1270 915 1271
4 1264 2233 1271 326
4 105 1272 2234 1274
4 1272 342 1273 2234
4 2234 1273 915 1270
4 1274 2234 1270 659
4 88 1116 2235 1276
4 1116 643 1275 2235
4 2235 1275 915 1273
4 1276 2235 1273 342
4 87 1268 2236 1111
4 1268 326 1271 2236
4 2236 1271 915 1275
4 1111 2236 1275 643
4 105 1277 2237 1272
4 1277 660 1278 2237
4 2237 1278 916 1279
4 1272 2237 1279 342
4 106 1280 2238 1282
4 1280 358 1281 2238
4 2238 1281 916 1278
4 1282 2238 1278 660
4 89 1126 2239 1284
4 1126 644 1283 2239
4 2239 1283 916 1281
4 1284 2239 1281 358
4 88 1276 2240 1121
4 1276 342 1279 2240
4 2240 1279 916 1283
4 1121 2240 1283 644
4 106 1285 2241 1280
4 1285 661 1286 2241
4 2241 1286 917 1287
4 1280 2241 1287 358
4 107 1288 2242 1290
4 1288 374 1289 2242
4 2242 1289 917 1286
4 1290 2242 1286 661
4 90 1136 2243 1292
4 1136 645 1291 2243
4 2243 1291 917 1289
4 1292 2243 1289 374
4 89 1284 2244 1131
4 1284 358 1287 2244
4 2244 1287 917 1291
4 1131 2244 1291 645
4 107 1293 2245 1288
4 1293 662 1294 2245
4 2245 1294 918 1295
4 1288 2245 1295 374
4 108 1296 2246 1298
4 1296 390 1297 2246
4 2246 1297 918 1294
4 1298 2246 1294 662
4 91 1146 2247 1300
4 1146 646 1299 2247
4 2247 1299 918 1297
4 1300 2247 1297 390
4 90 1292 2248 1141
4 1292 374 1295 2248
4 2248 1295 918 1299
4 1141 2248 1299 646
4 108 1301 2249 1296
4 1301 663 1302 2249
4 2249 1302 919 1303
4 1296 2249 1303 390
4 109 1304 2250 1306
4 1304 406 1305 2250
4 2250 1305 919 1302
4 1306 2250 1302 663
4 92 1156 2251 1308
4 1156 647 1307 2251
4 2251 1307 919 1305
4 1308 2251 1305 406
4 91 1300 2252 1151
4 1300 390 1303 2252
4 2252 1303 919 1307
4 1151 2252 1307 647
4 109 1309 2253 1304
4 1309 664 1310 2253
4 2253 1310 920 1311
4 1304 2253 1311 406
4 110 1312 2254 1314
4 1312 422 1313 2254
4 2254 1313 920 1310
4 1314 2254 1310 664
4 93 1166 2255 1316
4 1166 648 1315 2255
4 2255 1315 920 1313
4 1316 2255 1313 422
4 92 1308 2256 1161
4 1308 406 1311 2256
4 2256 1311 920 1315
4 1161 2256 1315 648
4 110 1317 2257 1312
4 1317 665 1318 2257
4 2257 1318 921 1319
4 1312 2257 1319 422
4 111 1320 2258 1322
4 1320 438 1321 2258
4 2258 1321 921 1318
4 1322 2258 1318 665
4 94 1176 2259 1324
4 1176 649 1323 2259
4 2259 1323 921 1321
4 1324 2259 1321 438
4 93 1316 2260 1171
4 1316 422 1319 2260
4 2260 1319 921 1323
4 1171 2260 1323 649
4 111 1325 2261 1320
4 1325 666 1326 2261
4 2261 1326 922 1327
4 1320 2261 1327 438
4 112 1328 2262 1330
4 1328 454 1329 2262
4 2262 1329 922 1326
4 1330 2262 1326 666
4 95 1186 2263 1332
4 1186 650 1331 2263
4 2263 1331 922 1329
4 1332 2263 1329 454
4 94 1324 2264 1181
4 1324 438 1327 2264
4 2264 1327 922 1331
4 1181 2264 1331 650
4 112 1333 2265 1328
4 1333 667 1334 2265
4 2265 1334 923 1335
4 1328 2265 1335 454
4 113 1336 2266 1338
4 1336 470 1337 2266
4 2266 1337 923 1334
4 1338 2266 1334 667
4 96 1196 2267 1340
4 1196 651 1339 2267
4 2267 1339 923 1337
4 1340 2267 1337 470
4 95 1332 2268 1191
4 1332 454 1335 2268
4 2268 1335 923 1339
4 1191 2268 1339 651
4 113 1341 2269 1336
4 1341 668 1342 2269
4 2269 1342 924 1343
4 1336 2269 1343 470
4 114 1344 2270 1346
4 1344 486 1345 2270
4 2270 1345 924 1342
4 1346 2270 1342 668
4 97 1206 2271 1348
4 1206 652 1347 2271
4 2271 1347 924 1345
4 1348 2271 1345 486
4 96 1340 2272 1201
4 1340 470 1343 2272
4 2272 1343 924 1347
4 1201 2272 1347 652
4 114 1349 2273 1344
4 1349 669 1350 2273
4 2273 1350 925 1351
4 1344 2273 1351 486
4 115 1352 2274 1354
4 1352 502 1353 2274
4 2274 1353 925 1350
4 1354 2274 1350 669
4 98 1216 2275 1356
4 1216 653 1355 2275
4 2275 1355 925 1353
4 1356 2275 1353 502
4 97 1348 2276 1211
4 1348 486 1351 2276
4 2276 1351 925 1355
4 1211 2276 1355 653
4 115 1357 2277 1352
4 1357 670 1358 2277
4 2277 1358 926 1359
4 1352 2277 1359 502
4 116 1360 2278 1362
4 1360 518 1361 2278
4 2278 1361 926 1358
4 1362 2278 1358 670
4 99 1226 2279 1364
4 1226 654 1363 2279
4 2279 1363 926 1361
4 1364 2279 1361 518
4 98 1356 2280 1221
4 1356 502 1359 2280
4 2280 1359 926 1363
4 1221 2280 1363 654
4 116 1365 2281 1360
4 1365 671 1366 2281
4 2281 1366 927 1367
4 1360 2281 1367 518
4 117 1368 2282 1370
4 1368 534 1369 2282
4 2282 1369 927 1366
4 1370 2282 1366 671
4 100 1236 2283 1372
4 1236 655 1371 2283
4 2283 1371 927 1369
4 1372 2283 1369 534
4 99 1364 2284 1231
4 1364 518 1367 2284
4 2284 1367 927 1371
4 1231 2284 1371 655
4 117 1373 2285 1368
4 1373 672 1374 2285
4 2285 1374 928 1375
4 1368 2285 1375 534
4 118 1376 2286 1378
4 1376 550 1377 2286
4 2286 1377 928 1374
4 1378 2286 1374 672
4 101 1246 2287 1380
4 1246 656 1379 2287
4 2287 1379 928 1377
4 1380 2287 1377 550
4 100 1372 2288 1241
4 1372 534 1375 2288
4 2288 1375 928 1379
4 1241 2288 1379 656
4 119 1381 2289 1384
4 1381 673 1382 2289
4 2289 1382 929 1383
4 1384 2289 1383 295
4 120 1385 2290 1387
4 1385 311 1386 2290
4 2290 1386 929 1382
4 1387 2290 1382 673
4 103 1257 2291 1389
4 1257 657 1388 2291
4 2291 1388 929 1386
4 1389 2291 1386 311
4 102 1390 2292 1251
4 1390 295 1383 2292
4 2292 1383 929 1388
4 1251 2292 1388 657
4 120 1391 2293 1385
4 1391 674 1392 2293
4 2293 1392 930 1393
4 1385 2293 1393 311
4 121 1394 2294 1396
4 1394 327 1395 2294
4 2294 1395 930 1392
4 1396 2294 1392 674
4 104 1266 2295 1398
4 1266 658 1397 2295
4 2295 1397 930 1395
4 1398 2295 1395 327
4 103 1389 2296 1261
4 1389 311 1393 2296
4 2296 1393 930 1397
4 1261 2296 1397 658
4 121 1399 2297 1394
4 1399 675 1400 2297
4 2297 1400 931 1401
4 1394 2297 1401 327
4 122 1402 2298 1404
4 1402 343 1403 2298
4 2298 1403 931 1400
4 1404 2298 1400 675
4 105 1274 2299 1406
4 1274 659 1405 2299
4 2299 1405 931 1403
4 1406 2299 1403 343
4 104 1398 2300 1269
4 1398 327 1401 2300
4 2300 1401 931 1405
4 1269 2300 1405 659
4 122 1407 2301 1402
4 1407 676 1408 2301
4 2301 1408 932 1409
4 1402 2301 1409 343
4 123 1410 2302 1412
4 1410 359 1411 2302
4 2302 1411 932 1408
4 1412 2302 1408 676
4 106 1282 2303 1414
4 1282 660 1413 2303
4 2303 1413 932 1411
4 1414 2303 1411 359
4 105 1406 2304 1277
4 1406 343 1409 2304
4 2304 1409 932 1413
4 1277 2304 1413 660
4 123 1415 2305 1410
4 1415 677 1416 2305
4 2305 1416 933 1417
4 1410 2305 1417 359
4 124 1418 2306 1420
4 1418 375 1419 2306
4 2306 1419 933 1416
4 1420 2306 1416 677
4 107 1290 2307 1422
4 1290 661 1421 2307
4 2307 1421 933 1419
4 1422 2307 1419 375
4 106 1414 2308 1285
4 1414 359 1417 2308
4 2308 1417 933 1421
4 1285 2308 1421 661
4 124 1423 2309 1418
4 1423 678 1424 2309
4 2309 1424 934 1425
4 1418 2309 1425 375
4 125 1426 2310 1428
4 1426 391 1427 2310
4 2310 1427 934 1424
4 1428 2310 1424 678
4 108 1298 2311 1430
4 1298 662 1429 2311
4 2311 1429 934 1427
4 1430 2311 1427 391
4 107 1422 2312 1293
4 1422 375 1425 2312
4 2312 1425 934 1429
4 1293 2312 1429 662
4 125 1431 2313 1426
4 1431 679 1432 2313
4 2313 1432 935 1433
4 1426 2313 1433 391
4 126 1434 2314 1436
4 1434 407 1435 2314
4 2314 1435 935 1432
4 1436 2314 1432 679
4 109 1306 2315 1438
4 1306 663 1437 2315
4 2315 1437 935 1435
4 1438 2315 1435 407
4 108 1430 2316 1301
4 1430 391 1433 2316
4 2316 1433 935 1437
4 1301 2316 1437 663
4 126 1439 2317 1434
4 1439 680 1440 2317
4 2317 1440 936 1441
4 1434 2317 1441 407
4 127 1442 2318 1444
4 1442 423 1443 2318
4 2318 1443 936 1440
4 1444 2318 1440 680
4 110 1314 2319 1446
4 1314 664 1445 2319
4 2319 1445 936 1443
4 1446 2319 1443 423
4 109 1438 2320 1309
4 1438 407 1441 2320
4 2320 1441 936 1445
4 1309 2320 1445 664
4 127 1447 2321 1442
4 1447 681 1448 2321
4 2321 1448 937 1449
4 1442 2321 1449 423
4 128 1450 2322 1452
4 1450 439 1451 2322
4 2322 1451 937 1448
4 1452 2322 1448 681
4 111 1322 2323 1454
4 1322 665 1453 2323
4 2323 1453 937 1451
4 1454 2323 1451 439
4 110 1446 2324 1317
4 1446 423 1449 2324
4 2324 1449 937 1453
4 1317 2324 1453 665
4 128 1455 2325 1450
4 1455 682 1456 2325
4 2325 1456 938 1457
4 1450 2325 1457 439
4 129 1458 2326 1460
4 1458 455 1459 2326
4 2326 1459 938 1456
4 1460 2326 1456 682
4 112 1330 2327 1462
4 1330 666 1461 2327
4 2327 1461 938 1459
4 1462 2327 1459 455
4 111 1454 2328 1325
4 1454 439 1457 2328
4 2328 1457 938 1461
4 1325 2328 1461 666
4 129 1463 2329 1458
4 1463 683 1464 2329
4 2329 1464 939 1465
4 1458 2329 1465 455
4 130 1466 2330 1468
4 1466 471 1467 2330
4 2330 1467 939 1464
4 1468 2330 1464 683
4 113 1338 2331 1470
4 1338 667 1469 2331
4 2331 1469 939 1467
4 1470 2331 1467 471
4 112 1462 2332 1333
4 1462 455 1465 2332
4 2332 1465 939 1469
4 1333 2332 1469 667
4 130 1471 2333 1466
4 1471 684 1472 2333
4 2333 1472 940 1473
4 1466 2333 1473 471
4 131 1474 2334 1476
4 1474 487 1475 2334
4 2334 1475 940 1472
4 1476 2334 1472 684
4 114 1346 2335 1478
4 1346 668 1477 2335
4 2335 1477 940 1475
4 1478 2335 1475 487
4 113 1470 2336 1341
4 1470 471 1473 2336
4 2336 1473 940 1477
4 1341 2336 1477 668
4 131 1479 2337 1474
4 1479 685 1480 2337
4 2337 1480 941 1481
4 1474 2337 1481 487
4 132 1482 2338 1484
4 1482 503 1483 2338
4 2338 1483 941 1480
4 1484 2338 1480 685
4 115 1354 2339 1486
4 1354 669 1485 2339
4 2339 1485 941 1483
4 1486 2339 1483 503
4 114 1478 2340 1349
4 1478 487 1481 2340
4 2340 1481 941 1485
4 1349 2340 1485 669
4 132 1487 2341 1482
4 1487 686 1488 2341
4 2341 1488 942 1489
4 1482 2341 1489 503
4 133 1490 2342 1492
4 1490 519 1491 2342
4 2342 1491 942 1488
4 1492 2342 1488 686
4 116 1362 2343 1494
4 1362 670 1493 2343
4 2343 1493 942 1491
4 1494 2343 1491 519
4 115 1486 2344 1357
4 1486 503 1489 2344
4 2344 1489 942 1493
4 1357 2344 1493 670
4 133 1495 2345 1490
4 1495 687 1496 2345
4 2345 1496 943 1497
4 1490 2345 1497 519
4 134 1498 2346 1500
4 1498 535 1499 2346
4 2346 1499 943 1496
4 1500 2346 1496 687
4 117 1370 2347 1502
4 1370 671 1501 2347
4 2347 1501 943 1499
4 1502 2347 1499 535
4 116 1494 2348 1365
4 1494 519 1497 2348
4 2348 1497 943 1501
4 1365 2348 1501 671
4 134 1503 2349 1498
4 1503 688 1504 2349
4 2349 1504 944 1505
4 1498 2349 1505 535
4 135 1506 2350 1508
4 1506 551 1507 2350
4 2350 1507 944 1504
4 1508 2350 1504 688
4 118 1378 2351 1510
4 1378 672 1509 2351
4 2351 1509 944 1507
4 1510 2351 1507 551
4 117 1502 2352 1373
4 1502 535 1505 2352
4 2352 1505 944 1509
4 1373 2352 1509 672
4 136 1511 2353 1514
4 1511 689 1512 2353
4 2353 1512 945 1513
4 1514 2353 1513 296
4 137 1515 2354 1517
4 1515 312 1516 2354
4 2354 1516 945 1512
4 1517 2354 1512 689
4 120 1387 2355 1519
4 1387 673 1518 2355
4 2355 1518 945 1516
4 1519 2355 1516 312
4 119 1520 2356 1381
4 1520 296 1513 2356
4 2356 1513 945 1518
4 1381 2356 1518 673
4 137 1521 2357 1515
4 1521 690 1522 2357
4 2357 1522 946 1523
4 1515 2357 1523 312
4 138 1524 2358 1526
4 1524 328 1525 2358
4 2358 1525 946 1522
4 1526 2358 1522 690
4 121 1396 2359 1528
4 1396 674 1527 2359
4 2359 1527 946 1525
4 1528 2359 1525 328
4 120 1519 2360 1391
4 1519 312 1523 2360
4 2360 1523 946 1527
4 1391 2360 1527 674
4 138 1529 2361 1524
4 1529 691 1530 2361
4 2361 1530 947 1531
4 1524 2361 1531 328
4 139 1532 2362 1534
4 1532 344 1533 2362
4 2362 1533 947 1530
4 1534 2362 1530 691
4 122 1404 2363 1536
4 1404 675 1535 2363
4 2363 1535 947 1533
4 1536 2363 1533 344
4 121 1528 2364 1399
4 1528 328 1531 2364
4 2364 1531 947 1535
4 1399 2364 1535 675
4 139 1537 2365 1532
4 1537 692 1538 2365
4 2365 1538 948 1539
4 1532 2365 1539 344
4 140 1540 2366 1542
4 1540 360 1541 2366
4 2366 1541 948 1538
4 1542 2366 1538 692
4 123 1412 2367 1544
4 1412 676 1543 2367
4 2367 1543 948 1541
4 1544 2367 1541 360
4 122 1536 2368 1407
4 1536 344 1539 2368
4 2368 1539 948 1543
4 1407 2368 1543 676
4 140 1545 2369 1540
4 1545 693 1546 2369
4 2369 1546 949 1547
4 1540 2369 1547 360
4 141 1548 2370 1550
4 1548 376 1549 2370
4 2370 1549 949 1546
4 1550 2370 1546 693
4 124 1420 2371 1552
4 1420 677 1551 2371
4 2371 1551 949 1549
4 1552 2371 1549 376
4 123 1544 2372 1415
4 1544 360 1547 2372
4 2372 1547 949 1551
4 1415 2372 1551 677
4 141 1553 2373 1548
4 1553 694 1554 2373
4 2373 1554 950 1555
4 1548 2373 1555 376
4 142 1556 2374 1558
4 1556 392 1557 2374
4 2374 1557 950 1554
4 1558 2374 1554 694
4 125 1428 2375 1560
4 1428 678 1559 2375
4 2375 1559 950 1557
4 1560 2375 1557 392
4 124 1552 2376 1423
4 1552 376 1555 2376
4 2376 1555 950 1559
4 1423 2376 1559 678
4 142 1561 2377 1556
4 1561 695 1562 2377
4 2377 1562 951 1563
4 1556 2377 1563 392
4 143 1564 2378 1566
4 1564 408 1565 2378
4 2378 1565 951 1562
4 1566 2378 1562 695
4 126 1436 2379 1568
4 1436 679 1567 2379
4 2379 1567 951 1565
4 1568 2379 1565 408
4 125 1560 2380 1431
4 1560 392 1563 2380
4 2380 1563 951 1567
4 1431 2380 1567 679
4 143 1569 2381 1564
4 1569 696 1570 2381
4 2381 1570 952 1571
4 1564 2381 1571 408
4 144 1572 2382 1574
4 1572 424 1573 2382
4 2382 1573 952 1570
4 1574 2382 1570 696
4 127 1444 2383 1576
4 1444 680 1575 2383
4 2383 1575 952 1573
4 1576 2383 1573 424
4 126 1568 2384 1439
4 1568 408 1571 2384
4 2384 1571 952 1575
4 1439 2384 1575 680
4 144 1577 2385 1572
4 1577 697 1578 2385
4 2385 1578 953 1579
4 1572 2385 1579 424
4 145 1580 2386 1582
4 1580 440 1581 2386
4 2386 1581 953 1578
4 1582 2386 1578 697
4 128 1452 2387 1584
4 1452 681 1583 2387
4 2387 1583 953 1581
4 1584 2387 1581 440
4 127 1576 2388 1447
4 1576 424 1579 2388
4 2388 1579 953 1583
4 1447 2388 1583 681
4 145 1585 2389 1580
4 1585 698 1586 2389
4 2389 1586 954 1587
4 1580 2389 1587 440
4 146 1588 2390 1590
4 1588 456 1589 2390
4 2390 1589 954 1586
4 1590 2390 1586 698
4 129 1460 2391 1592
4 1460 682 1591 2391
4 2391 1591 954 1589
4 1592 2391 1589 456
4 128 1584 2392 1455
4 1584 440 1587 2392
4 2392 1587 954 1591
4 1455 2392 1591 682
4 146 1593 2393 1588
4 1593 699 1594 2393
4 2393 1594 955 1595
4 1588 2393 1595 456
4 147 1596 2394 1598
4 1596 472 1597 2394
4 2394 1597 955 1594
4 1598 2394 1594 699
4 130 1468 2395 1600
4 1468 683 1599 2395
4 2395 1599 955 1597
4 1600 2395 1597 472
4 129 1592 2396 1463
4 1592 456 1595 2396
4 2396 1595 955 1599
4 1463 2396 1599 683
4 147 1601 2397 1596
4 1601 700 1602 2397
4 2397 1602 956 1603
4 1596 2397 1603 472
4 148 1604 2398 1606
4 1604 488 1605 2398
4 2398 1605 956 1602
4 1606 2398 1602 700
4 131 1476 2399 1608
4 1476 684 1607 2399
4 2399 1607 956 1605
4 1608 2399 1605 488
4 130 1600 2400 1471
4 1600 472 1603 2400
4 2400 1603 956 1607
4 1471 2400 1607 684
4 148 1609 2401 1604
4 1609 701 1610 2401
4 2401 1610 957 1611
4 1604 2401 1611 488
4 149 1612 2402 1614
4 1612 504 1613 2402
4 2402 1613 957 1610
4 1614 2402 1610 701
4 132 1484 2403 1616
4 1484 685 1615 2403
4 2403 1615 957 1613
4 1616 2403 1613 504
4 131 1608 2404 1479
4 1608 488 1611 2404
4 2404 1611 957 1615
4 1479 2404 1615 685
4 149 1617 2405 1612
4 1617 702 1618 2405
4 2405 1618 958 1619
4 1612 2405 1619 504
4 150 1620 2406 1622
4 1620 520 1621 2406
4 2406 1621 958 1618
4 1622 2406 1618 702
4 133 1492 2407 1624
4 1492 686 1623 2407
4 2407 1623 958 1621
4 1624 2407 1621 520
4 132 1616 2408 1487
4 1616 504 1619 2408
4 2408 1619 958 1623
4 1487 2408 1623 686
4 150 1625 2409 1620
4 1625 703 1626 2409
4 2409 1626 959 1627
4 1620 2409 1627 520
4 151 1628 2410 1630
4 1628 536 1629 2410
4 2410 1629 959 1626
4 1630 2410 1626 703
4 134 1500 2411 1632
4 1500 687 1631 2411
4 2411 1631 959 1629
4 1632 2411 1629 536
4 133 1624 2412 1495
4 1624 520 1627 2412
4 2412 1627 959 1631
4 1495 2412 1631 687
4 151 1633 2413 1628
4 1633 704 1634 2413
4 2413 1634 960 1635
4 1628 2413 1635 536
4 152 1636 2414 1638
4 1636 552 1637 2414
4 2414 1637 960 1634
4 1638 2414 1634 704
4 135 1508 2415 1640
4 1508 688 1639 2415
4 2415 1639 960 1637
4 1640 2415 1637 552
4 134 1632 2416 1503
4 1632 536 1635 2416
4 2416 1635 960 1639
4 1503 2416 1639 688
4 153 1641 2417 1644
4 1641 705 1642 2417
4 2417 1642 961 1643
4 1644 2417 1643 297
4 154 1645 2418 1647
4 1645 313 1646 2418
4 2418 1646 961 1642
4 1647 2418 1642 705
4 137 1517 2419 1649
4 1517 689 1648 2419
4 2419 1648 961 1646
4 1649 2419 1646 313
4 136 1650 2420 1511
4 1650 297 1643 2420
4 2420 1643 961 1648
4 1511 2420 1648 689
4 154 1651 2421 1645
4 1651 706 1652 2421
4 2421 1652 962 1653
4 1645 2421 1653 313
4 155 1654 2422 1656
4 1654 329 1655 2422
4 2422 1655 962 1652
4 1656 2422 1652 706
4 138 1526 2423 1658
4 1526 690 1657 2423
4 2423 1657 962 1655
4 1658 2423 1655 329
4 137 1649 2424 1521
4 1649 313 1653 2424
4 2424 1653 962 1657
4 1521 2424 1657 690
4 155 1659 2425 1654
4 1659 707 1660 2425
4 2425 1660 963 1661
4 1654 2425 1661 329
4 156 1662 2426 1664
4 1662 345 1663 2426
4 2426 1663 963 1660
4 1664 2426 1660 707
4 139 1534 2427 1666
4 1534 691 1665 2427
4 2427 1665 963 1663
4 1666 2427 1663 345
4 138 1658 2428 1529
4 1658 329 1661 2428
4 2428 1661 963 1665
4 1529 2428 1665 691
4 156 1667 2429 1662
4 1667 708 1668 2429
4 2429 1668 964 1669
4 1662 2429 1669 345
4 157 1670 2430 1672
4 1670 361 1671 2430
4 2430 1671 964 1668
4 1672 2430 1668 708
4 140 1542 2431 1674
4 1542 692 1673 2431
4 2431 1673 964 1671
4 1674 2431 1671 361
4 139 1666 2432 1537
4 1666 345 1669 2432
4 2432 1669 964 1673
4 1537 2432 1673 692
4 157 1675 2433 1670
4 1675 709 1676 2433
4 2433 1676 965 1677
4 1670 2433 1677 361
4 158 1678 2434 1680
4 1678 377 1679 2434
4 2434 1679 965 1676
4 1680 2434 1676 709
4 141 1550 2435 1682
4 1550 693 1681 2435
4 2435 1681 965 1679
4 1682 2435 1679 377
4 140 1674 2436 1545
4 1674 361 1677 2436
4 2436 1677 965 1681
4 1545 2436 1681 693
4 158 1683 2437 1678
4 1683 710 1684 2437
4 2437 1684 966 1685
4 1678 2437 1685 377
4 159 1686 2438 1688
4 1686 393 1687 2438
4 2438 1687 966 1684
4 1688 2438 1684 710
4 142 1558 2439 1690
4 1558 694 1689 2439
4 2439 1689 966 1687
4 1690 2439 1687 393
4 141 1682 2440 1553
4 1682 377 1685 2440
4 2440 1685 966 1689
4 1553 2440 1689 694
4 159 1691 2441 1686
4 1691 711 1692 2441
4 2441 1692 967 1693
4 1686 2441 1693 393
4 160 1694 2442 1696
4 1694 409 1695 2442
4 2442 1695 967 1692
4 1696 2442 1692 711
4 143 1566 2443 1698
4 1566 695 1697 2443
4 2443 1697 967 1695
4 1698 2443 1695 409
4 142 1690 2444 1561
4 1690 393 1693 2444
4 2444 1693 967 1697
4 1561 2444 1697 695
4 160 1699 2445 1694
4 1699 712 1700 2445
4 2445 1700 968 1701
4 1694 2445 1701 409
4 161 1702 2446 1704
4 1702 425 1703 2446
4 2446 1703 968 1700
4 1704 2446 1700 712
4 144 1574 2447 1706
4 1574 696 1705 2447
4 2447 1705 968 1703
4 1706 2447 1703 425
4 143 1698 2448 1569
4 1698 409 1701 2448
4 2448 1701 968 1705
4 1569 2448 1705 696
4 161 1707 2449 1702
4 1707 713 1708 2449
4 2449 1708 969 1709
4 1702 2449 1709 425
4 162 1710 2450 1712
4 1710 441 1711 2450
4 2450 1711 969 1708
4 1712 2450 1708 713
4 145 1582 2451 1714
4 1582 697 1713 2451
4 2451 1713 969 1711
4 1714 2451 1711 441
4 144 1706 2452 1577
4 1706 425 1709 2452
4 2452 1709 969 1713
4 1577 2452 1713 697
4 162 1715 2453 1710
4 1715 714 1716 2453
4 2453 1716 970 1717
4 1710 2453 1717 441
4 163 1718 2454 1720
4 1718 457 1719 2454
4 2454 1719 970 1716
4 1720 2454 1716 714
4 146 1590 2455 1722
4 1590 698 1721 2455
4 2455 1721 970 1719
4 1722 2455 1719 457
4 145 1714 2456 1585
4 1714 441 1717 2456
4 2456 1717 970 1721
4 1585 2456 1721 698
4 163 1723 2457 1718
4 1723 715 1724 2457
4 2457 1724 971 1725
4 1718 2457 1725 457
4 164 1726 2458 1728
4 1726 473 1727 2458
4 2458 1727 971 1724
4 1728 2458 1724 715
4 147 1598 2459 1730
4 1598 699 1729 2459
4 2459 1729 971 1727
4 1730 2459 1727 473
4 146 1722 2460 1593
4 1722 457 1725 2460
4 2460 1725 971 1729
4 1593 2460 1729 699
4 164 1731 2461 1726
4 1731 716 1732 2461
4 2461 1732 972 1733
4 1726 2461 1733 473
4 165 1734 2462 1736
4 1734 489 1735 2462
4 2462 1735 972 1732
4 1736 2462 1732 716
4 148 1606 2463 1738
4 1606 700 1737 2463
4 2463 1737 972 1735
4 1738 2463 1735 489
4 147 1730 2464 1601
4 1730 473 1733 2464
4 2464 1733 972 1737
4 1601 2464 1737 700
4 165 1739 2465 1734
4 1739 717 1740 2465
4 2465 1740 973 1741
4 1734 2465 1741 489
4 166 1742 2466 1744
4 1742 505 1743 2466
4 2466 1743 973 1740
4 1744 2466 1740 717
4 149 1614 2467 1746
4 1614 701 1745 2467
4 2467 1745 973 1743
4 1746 2467 1743 505
4 148 1738 2468 1609
4 1738 489 1741 2468
4 2468 1741 973 1745
4 1609 2468 1745 701
4 166 1747 2469 1742
4 1747 718 1748 2469
4 2469 1748 974 1749
4 1742 2469 1749 505
4 167 1750 2470 1752
4 1750 521 1751 2470
4 2470 1751 974 1748
4 1752 2470 1748 718
4 150 1622 2471 1754
4 1622 702 1753 2471
4 2471 1753 974 1751
4 1754 2471 1751 521
4 149 1746 2472 1617
4 1746 505 1749 2472
4 2472 1749 974 1753
4 1617 2472 1753 702
4 167 1755 2473 1750
4 1755 719 1756 2473
4 2473 1756 975 1757
4 1750 2473 1757 521
4 168 1758 2474 1760
4 1758 537 1759 2474
4 2474 1759 975 1756
4 1760 2474 1756 719
4 151 1630 2475 1762
4 1630 703 1761 2475
4 2475 1761 975 1759
4 1762 2475 1759 537
4 150 1754 2476 1625
4 1754 521 1757 2476
4 2476 1757 975 1761
4 1625 2476 1761 703
4 168 1763 2477 1758
4 1763 720 1764 2477
4 2477 1764 976 1765
4 1758 2477 1765 537
4 169 1766 2478 1768
4 1766 553 1767 2478
4 2478 1767 976 1764
4 1768 2478 1764 720
4 152 1638 2479 1770
4 1638 704 1769 2479
4 2479 1769 976 1767
4 1770 2479 1767 553
4 151 1762 2480 1633
4 1762 537 1765 2480
4 2480 1765 976 1769
4 1633 2480 1769 704
4 170 1771 2481 1774
4 1771 721 1772 2481
4 2481 1772 977 1773
4 1774 2481 1773 298
4 171 1775 2482 1777
4 1775 314 1776 2482
4 2482 1776 977 1772
4 1777 2482 1772 721
4 154 1647 2483 1779
4 1647 705 1778 2483
4 2483 1778 977 1776
4 1779 2483 1776 314
4 153 1780 2484 1641
4 1780 298 1773 2484
4 2484 1773 977 1778
4 1641 2484 1778 705
4 171 1781 2485 1775
4 1781 722 1782 2485
4 2485 1782 978 1783
4 1775 2485 1783 314
4 172 1784 2486 1786
4 1784 330 1785 2486
4 2486 1785 978 1782
4 1786 2486 1782 722
4 155 1656 2487 1788
4 1656 706 1787 2487
4 2487 1787 978 1785
4 1788 2487 1785 330
4 154 1779 2488 1651
4 1779 314 1783 2488
4 2488 1783 978 1787
4 1651 2488 1787 706
4 172 1789 2489 1784
4 1789 723 1790 2489
4 2489 1790 979 1791
4 1784 2489 1791 330
4 173 1792 2490 1794
4 1792 346 1793 2490
4 2490 1793 979 1790
4 1794 2490 1790 723
4 156 1664 2491 1796
4 1664 707 1795 2491
4 2491 1795 979 1793
4 1796 2491 1793 346
4 155 1788 2492 1659
4 1788 330 1791 2492
4 2492 1791 979 1795
4 1659 2492 1795 707
4 173 1797 2493 1792
4 1797 724 1798 2493
4 2493 1798 980 1799
4 1792 2493 1799 346
4 174 1800 2494 1802
4 1800 362 1801 2494
4 2494 1801 980 1798
4 1802 2494 1798 724
4 157 1672 2495 1804
4 1672 708 1803 2495
4 2495 1803 980 1801
4 1804 2495 1801 362
4 156 1796 2496 1667
4 1796 346 1799 2496
4 2496 1799 980 1803
4 1667 2496 1803 708
4 174 1805 2497 1800
4 1805 725 1806 2497
4 2497 1806 981 1807
4 1800 2497 1807 362
4 175 1808 2498 1810
4 1808 378 1809 2498
4 2498 1809 981 1806
4 1810 2498 1806 725
4 158 1680 2499 1812
4 1680 709 1811 2499
4 2499 1811 981 1809
4 1812 2499 1809 378
4 157 1804 2500 1675
4 1804 362 1807 2500
4 2500 1807 981 1811
4 1675 2500 1811 709
4 175 1813 2501 1808
4 1813 726 1814 2501
4 2501 1814 982 1815
4 1808 2501 1815 378
4 176 1816 2502 1818
4 1816 394 1817 2502
4 2502 1817 982 1814
4 1818 2502 1814 726
4 159 1688 2503 1820
4 1688 710 1819 2503
4 2503 1819 982 1817
4 1820 2503 1817 394
4 158 1812 2504 1683
4 1812 378 1815 2504
4 2504 1815 982 1819
4 1683 2504 1819 710
4 176 1821 2505 1816
4 1821 727 1822 2505
4 2505 1822 983 1823
4 1816 2505 1823 394
4 177 1824 2506 1826
4 1824 410 1825 2506
4 2506 1825 983 1822
4 1826 2506 1822 727
4 160 1696 2507 1828
4 1696 711 1827 2507
4 2507 1827 983 1825
4 1828 2507 1825 410
4 159 1820 2508 1691
4 1820 394 1823 2508
4 2508 1823 983 1827
4 1691 2508 1827 711
4 177 1829 2509 1824
4 1829 728 1830 2509
4 2509 1830 984 1831
4 1824 2509 1831 410
4 178 1832 2510 1834
4 1832 426 1833 2510
4 2510 1833 984 1830
4 1834 2510 1830 728
4 161 1704 2511 1836
4 1704 712 1835 2511
4 2511 1835 984 1833
4 1836 2511 1833 426
4 160 1828 2512 1699
4 1828 410 1831 2512
4 2512 1831 984 1835
4 1699 2512 1835 712
4 178 1837 2513 1832
4 1837 729 1838 2513
4 2513 1838 985 1839
4 1832 2513 1839 426
4 179 1840 2514 1842
4 1840 442 1841 2514
4 2514 1841 985 1838
4 1842 2514 1838 729
4 162 1712 2515 1844
4 1712 713 1843 2515
4 2515 1843 985 1841
4 1844 2515 1841 442
4 161 1836 2516 1707
4 1836 426 1839 2516
4 2516 1839 985 1843
4 1707 2516 1843 713
4 179 1845 2517 1840
4 1845 730 1846 2517
4 2517 1846 986 1847
4 1840 2517 1847 442
4 180 1848 2518 1850
4 1848 458 1849 2518
4 2518 1849 986 1846
4 1850 2518 1846 730
4 163 1720 2519 1852
4 1720 714 1851 2519
4 2519 1851 986 1849
4 1852 2519 1849 458
4 162 1844 2520 1715
4 1844 442 1847 2520
4 2520 1847 986 1851
4 1715 2520 1851 714
4 180 1853 2521 1848
4 1853 731 1854 2521
4 2521 1854 987 1855
4 1848 2521 1855 458
4 181 1856 2522 1858
4 1856 474 1857 2522
4 2522 1857 987 1854
4 1858 2522 1854 731
4 164 1728 2523 1860
4 1728 715 1859 2523
4 2523 1859 987 1857
4 1860 2523 1857 474
4 163 1852 2524 1723
4 1852 458 1855 2524
4 2524 1855 987 1859
4 1723 2524 1859 715
4 181 1861 2525 1856
4 1861 732 1862 2525
4 2525 1862 988 1863
4 1856 2525 1863 474
4 182 1864 2526 1866
4 1864 490 1865 2526
4 2526 1865 988 1862
4 1866 2526 1862 732
4 165 1736 2527 1868
4 1736 716 1867 2527
4 2527 1867 988 1865
4 1868 2527 1865 490
4 164 1860 2528 1731
4 1860 474 1863 2528
4 2528 1863 988 1867
4 1731 2528 1867 716
4 182 1869 2529 1864
4 1869 733 1870 2529
4 2529 1870 989 1871
4 1864 2529 1871 490
4 183 1872 2530 1874
4 1872 506 1873 2530
4 2530 1873 989 1870
4 1874 2530 1870 733
4 166 1744 2531 1876
4 1744 717 1875 2531
4 2531 1875 989 1873
4 1876 2531 1873 506
4 165 1868 2532 1739
4 1868 490 1871 2532
4 2532 1871 989 1875
4 1739 2532 1875 717
4 183 1877 2533 1872
4 1877 734 1878 2533
4 2533 1878 990 1879
4 1872 2533 1879 506
4 184 1880 2534 1882
4 1880 522 1881 2534
4 2534 1881 990 1878
4 1882 2534 1878 734
4 167 1752 2535 1884
4 1752 718 1883 2535
4 2535 1883 990 1881
4 1884 2535 1881 522
4 166 1876 2536 1747
4 1876 506 1879 2536
4 2536 1879 990 1883
4 1747 2536 1883 718
4 184 1885 2537 1880
4 1885 735 1886 2537
4 2537 1886 991 1887
4 1880 2537 1887 522
4 185 1888 2538 1890
4 1888 538 1889 2538
4 2538 1889 991 1886
4 1890 2538 1886 735
4 168 1760 2539 1892
4 1760 719 1891 2539
4 2539 1891 991 1889
4 1892 2539 1889 538
4 167 1884 2540 1755
4 1884 522 1887 2540
4 2540 1887 991 1891
4 1755 2540 1891 719
4 185 1893 2541 1888
4 1893 736 1894 2541
4 2541 1894 992 1895
4 1888 2541 1895 538
4 186 1896 2542 1898
4 1896 554 1897 2542
4 2542 1897 992 1894
4 1898 2542 1894 736
4 169 1768 2543 1900
4 1768 720 1899 2543
4 2543 1899 992 1897
4 1900 2543 1897 554
4 168 1892 2544 1763
4 1892 538 1895 2544
4 2544 1895 992 1899
4 1763 2544 1899 720
4 187 1901 2545 1904
4 1901 737 1902 2545
4 2545 1902 993 1903
4 1904 2545 1903 299
4 188 1905 2546 1907
4 1905 315 1906 2546
4 2546 1906 993 1902
4 1907 2546 1902 737
4 171 1777 2547 1909
4 1777 721 1908 2547
4 2547 1908 993 1906
4 1909 2547 1906 315
4 170 1910 2548 1771
4 1910 299 1903 2548
4 2548 1903 993 1908
4 1771 2548 1908 721
4 188 1911 2549 1905
4 1911 738 1912 2549
4 2549 1912 994 1913
4 1905 2549 1913 315
4 189 1914 2550 1916
4 1914 331 1915 2550
4 2550 1915 994 1912
4 1916 2550 1912 738
4 172 1786 2551 1918
4 1786 722 1917 2551
4 2551 1917 994 1915
4 1918 2551 1915 331
4 171 1909 2552 1781
4 1909 315 1913 2552
4 2552 1913 994 1917
4 1781 2552 1917 722
4 189 1919 2553 1914
4 1919 739 1920 2553
4 2553 1920 995 1921
4 1914 2553 1921 331
4 190 1922 2554 1924
4 1922 347 1923 2554
4 2554 1923 995 1920
4 1924 2554 1920 739
4 173 1794 2555 1926
4 1794 723 1925 2555
4 2555 1925 995 1923
4 1926 2555 1923 347
4 172 1918 2556 1789
4 1918 331 1921 2556
4 2556 1921 995 1925
4 1789 2556 1925 723
4 190 1927 2557 1922
4 1927 740 1928 2557
4 2557 1928 996 1929
4 1922 2557 1929 347
4 191 1930 2558 1932
4 1930 363 1931 2558
4 2558 1931 996 1928
4 1932 2558 1928 740
4 174 1802 2559 1934
4 1802 724 1933 2559
4 2559 1933 996 1931
4 1934 2559 1931 363
4 173 1926 2560 1797
4 1926 347 1929 2560
4 2560 1929 996 1933
4 1797 2560 1933 724
4 191 1935 2561 1930
4 1935 741 1936 2561
4 2561 1936 997 1937
4 1930 2561 1937 363
4 192 1938 2562 1940
4 1938 379 1939 2562
4 2562 1939 997 1936
4 1940 2562 1936 741
4 175 1810 2563 1942
4 1810 725 1941 2563
4 2563 1941 997 1939
4 1942 2563 1939 379
4 174 1934 2564 1805
4 1934 363 1937 2564
4 2564 1937 997 1941
4 1805 2564 1941 725
4 192 1943 2565 1938
4 1943 742 1944 2565
4 2565 1944 998 1945
4 1938 2565 1945 379
4 193 1946 2566 1948
4 1946 395 1947 2566
4 2566 1947 998 1944
4 1948 2566 1944 742
4 176 1818 2567 1950
4 1818 726 1949 2567
4 2567 1949 998 1947
4 1950 2567 1947 395
4 175 1942 2568 1813
4 1942 379 1945 2568
4 2568 1945 998 1949
4 1813 2568 1949 726
4 193 1951 2569 1946
4 1951 743 1952 2569
4 2569 1952 999 1953
4 1946 2569 1953 395
4 194 1954 2570 1956
4 1954 411 1955 2570
4 2570 1955 999 1952
4 1956 2570 1952 743
4 177 1826 2571 1958
4 1826 727 1957 2571
4 2571 1957 999 1955
4 1958 2571 1955 411
4 176 1950 2572 1821
4 1950 395 1953 2572
4 2572 1953 999 1957
4 1821 2572 1957 727
4 194 1959 2573 1954
4 1959 744 1960 2573
4 2573 1960 1000 1961
4 1954 2573 1961 411
4 195 1962 2574 1964
4 1962 427 1963 2574
4 2574 1963 1000 1960
4 1964 2574 1960 744
4 178 1834 2575 1966
4 1834 728 1965 2575
4 2575 1965 1000 1963
4 1966 2575 1963 427
4 177 1958 2576 1829
4 1958 411 1961 2576
4 2576 1961 1000 1965
4 1829 2576 1965 728
4 195 1967 2577 1962
4 1967 745 1968 2577
4 2577 1968 1001 1969
4 1962 2577 1969 427
4 196 1970 2578 1972
4 1970 443 1971 2578
4 2578 1971 1001 1968
4 1972 2578 1968 745
4 179 1842 2579 1974
4 1842 729 1973 2579
4 2579 1973 1001 1971
4 1974 2579 1971 443
4 178 1966 2580 1837
4 1966 427 1969 2580
4 2580 1969 1001 1973
4 1837 2580 1973 729
4 196 1975 2581 1970
4 1975 746 1976 2581
4 2581 1976 1002 1977
4 1970 2581 1977 443
4 197 1978 2582 1980
4 1978 459 1979 2582
4 2582 1979 1002 1976
4 1980 2582 1976 746
4 180 1850 2583 1982
4 1850 730 1981 2583
4 2583 1981 1002 1979
4 1982 2583 1979 459
4 179 1974 2584 1845
4 1974 443 1977 2584
4 2584 1977 1002 1981
4 1845 2584 1981 730
4 197 1983 2585 1978
4 1983 747 1984 2585
4 2585 1984 1003 1985
4 1978 2585 1985 459
4 198 1986 2586 1988
4 1986 475 1987 2586
4 2586 1987 1003 1984
4 1988 2586 1984 747
4 181 1858 2587 1990
4 1858 731 1989 2587
4 2587 1989 1003 1987
4 1990 2587 1987 475
4 180 1982 2588 1853
4 1982 459 1985 2588
4 2588 1985 1003 1989
4 1853 2588 1989 731
4 198 1991 2589 1986
4 1991 748 1992 2589
4 2589 1992 1004 1993
4 1986 2589 1993 475
4 199 1994 2590 1996
4 1994 491 1995 2590
4 2590 1995 1004 1992
4 1996 2590 1992 748
4 182 1866 2591 1998
4 1866 732 1997 2591
4 2591 1997 1004 1995
4 1998 2591 1995 491
4 181 1990 2592 1861
4 1990 475 1993 2592
4 2592 1993 1004 1997
4 1861 2592 1997 732
4 199 1999 2593 1994
4 1999 749 2000 2593
4 2593 2000 1005 2001
4 1994 2593 2001 491
4 200 2002 2594 2004
4 2002 507 2003 2594
4 2594 2003 1005 2000
4 2004 2594 2000 749
4 183 1874 2595 2006
4 1874 733 2005 2595
4 2595 2005 1005 2003
4 2006 2595 2003 507
4 182 1998 2596 1869
4 1998 491 2001 2596
4 2596 2001 1005 2005
4 1869 2596 2005 733
4 200 2007 2597 2002
4 2007 750 2008 2597
4 2597 2008 1006 2009
4 2002 2597 2009 507
4 201 2010 2598 2012
4 2010 523 2011 2598
4 2598 2011 1006 2008
4 2012 2598 2008 750
4 184 1882 2599 2014
4 1882 734 2013 2599
4 2599 2013 1006 2011
4 2014 2599 2011 523
4 183 2006 2600 1877
4 2006 507 2009 2600
4 2600 2009 1006 2013
4 1877 2600 2013 734
4 201 2015 2601 2010
4 2015 751 2016 2601
4 2601 2016 1007 2017
4 2010 2601 2017 523
4 202 2018 2602 2020
4 2018 539 2019 2602
4 2602 2019 1007 2016
4 2020 2602 2016 751
4 185 1890 2603 2022
4 1890 735 2021 2603
4 2603 2021 1007 2019
4 2022 2603 2019 539
4 184 2014 2604 1885
4 2014 523 2017 2604
4 2604 2017 1007 2021
4 1885 2604 2021 735
4 202 2023 2605 2018
4 2023 752 2024 2605
4 2605 2024 1008 2025
4 2018 2605 2025 539
4 203 2026 2606 2028
4 2026 555 2027 2606
4 2606 2027 1008 2024
4 2028 2606 2024 752
4 186 1898 2607 2030
4 1898 736 2029 2607
4 2607 2029 1008 2027
4 2030 2607 2027 555
4 185 2022 2608 1893
4 2022 539 2025 2608
4 2608 2025 1008 2029
4 1893 2608 2029 736
4 204 2031 2609 2034
4 2031 753 2032 2609
4 2609 2032 1009 2033
4 2034 2609 2033 300
4 205 2035 2610 2037
4 2035 316 2036 2610
4 2610 2036 1009 2032
4 2037 2610 2032 753
4 188 1907 2611 2039
4 1907 737 2038 2611
4 2611 2038 1009 2036
4 2039 2611 2036 316
4 187 2040 2612 1901
4 2040 300 2033 2612
4 2612 2033 1009 2038
4 1901 2612 2038 737
4 205 2041 2613 2035
4 2041 754 2042 2613
4 2613 2042 1010 2043
4 2035 2613 2043 316
4 206 2044 2614 2046
4 2044 332 2045 2614
4 2614 2045 1010 2042
4 2046 2614 2042 754
4 189 1916 2615 2048
4 1916 738 2047 2615
4 2615 2047 1010 2045
4 2048 2615 2045 332
4 188 2039 2616 1911
4 2039 316 2043 2616
4 2616 2043 1010 2047
4 1911 2616 2047 738
4 206 2049 2617 2044
4 2049 755 2050 2617
4 2617 2050 1011 2051
4 2044 2617 2051 332
4 207 2052 2618 2054
4 2052 348 2053 2618
4 2618 2053 1011 2050
4 2054 2618 2050 755
4 190 1924 2619 2056
4 1924 739 2055 2619
4 2619 2055 1011 2053
4 2056 2619 2053 348
4 189 2048 2620 1919
4 2048 332 2051 2620
4 2620 2051 1011 2055
4 1919 2620 2055 739
4 207 2057 2621 2052
4 2057 756 2058 2621
4 2621 2058 1012 2059
4 2052 2621 2059 348
4 208 2060 2622 2062
4 2060 364 2061 2622
4 2622 2061 1012 2058
4 2062 2622 2058 756
4 191 1932 2623 2064
4 1932 740 2063 2623
4 2623 2063 1012 2061
4 2064 2623 2061 364
4 190 2056 2624 1927
4 2056 348 2059 2624
4 2624 2059 1012 2063
4 1927 2624 2063 740
4 208 2065 2625 2060
4 2065 757 2066 2625
4 2625 2066 1013 2067
4 2060 2625 2067 364
4 209 2068 2626 2070
4 2068 380 2069 2626
4 2626 2069 1013 2066
4 2070 2626 2066 757
4 192 1940 2627 2072
4 1940 741 2071 2627
4 2627 2071 1013 2069
4 2072 2627 2069 380
4 191 2064 2628 1935
4 2064 364 2067 2628
4 2628 2067 1013 2071
4 1935 2628 2071 741
4 209 2073 2629 2068
4 2073 758 2074 2629
4 2629 2074 1014 2075
4 2068 2629 2075 380
4 210 2076 2630 2078
4 2076 396 2077 2630
4 2630 2077 1014 2074
4 2078 2630 2074 758
4 193 1948 2631 2080
4 1948 742 2079 2631
4 2631 2079 1014 2077
4 2080 2631 2077 396
4 192 2072 2632 1943
4 2072 380 2075 2632
4 2632 2075 1014 2079
4 1943 2632 2079 742
4 210 2081 2633 2076
4 2081 759 2082 2633
4 2633 2082 1015 2083
4 2076 2633 2083 396
4 211 2084 2634 2086
4 2084 412 2085 2634
4 2634 2085 1015 2082
4 2086 2634 2082 759
4 194 1956 2635 2088
4 1956 743 2087 2635
4 2635 2087 1015 2085
4 2088 2635 2085 412
4 193 2080 2636 1951
4 2080 396 2083 2636
4 2636 2083 1015 2087
4 1951 2636 2087 743
4 211 2089 2637 2084
4 2089 760 2090 2637
4 2637 2090 1016 2091
4 2084 2637 2091 412
4 212 2092 2638 2094
4 2092 428 2093 2638
4 2638 2093 1016 2090
4 2094 2638 2090 760
4 195 1964 2639 2096
4 1964 744 2095 2639
4 2639 2095 1016 2093
4 2096 2639 2093 428
4 194 2088 2640 1959
4 2088 412 2091 2640
4 2640 2091 1016 2095
4 1959 2640 2095 744
4 212 2097 2641 2092
4 2097 761 2098 2641
4 2641 2098 1017 2099
4 2092 2641 2099 428
4 213 2100 2642 2102
4 2100 444 2101 2642
4 2642 2101 1017 2098
4 2102 2642 2098 761
4 196 1972 2643 2104
4 1972 745 2103 2643
4 2643 2103 1017 2101
4 2104 2643 2101 444
4 195 2096 2644 1967
4 2096 428 2099 2644
4 2644 2099 1017 2103
4 1967 2644 2103 745
4 213 2105 2645 2100
4 2105 762 2106 2645
4 2645 2106 1018 2107
4 2100 2645 2107 444
4 214 2108 2646 2110
4 2108 460 2109 2646
4 2646 2109 1018 2106
4 2110 2646 2106 762
4 197 1980 2647 2112
4 1980 746 2111 2647
4 2647 2111 1018 2109
4 2112 2647 2109 460
4 196 2104 2648 1975
4 2104 444 2107 2648
4 2648 2107 1018 2111
4 1975 2648 2111 746
4 214 2113 2649 2108
4 2113 763 2114 2649
4 2649 2114 1019 2115
4 2108 2649 2115 460
4 215 2116 2650 2118
4 2116 476 2117 2650
4 2650 2117 1019 2114
4 2118 2650 2114 763
4 198 1988 2651 2120
4 1988 747 2119 2651
4 2651 2119 1019 2117
4 2120 2651 2117 476
4 197 2112 2652 1983
4 2112 460 2115 2652
4 2652 2115 1019 2119
4 1983 2652 2119 747
4 215 2121 2653 2116
4 2121 764 2122 2653
4 2653 2122 1020 2123
4 2116 2653 2123 476
4 216 2124 2654 2126
4 2124 492 2125 2654
4 2654 2125 1020 2122
4 2126 2654 2122 764
4 199 1996 2655 2128
4 1996 748 2127 2655
4 2655 2127 1020 2125
4 2128 2655 2125 492
4 198 2120 2656 1991
4 2120 476 2123 2656
4 2656 2123 1020 2127
4 1991 2656 2127 748
4 216 2129 2657 2124
4 2129 765 2130 2657
4 2657 2130 1021 2131
4 2124 2657 2131 492
4 217 2132 2658 2134
4 2132 508 2133 2658
4 2658 2133 1021 2130
4 2134 2658 2130 765
4 200 2004 2659 2136
4 2004 749 2135 2659
4 2659 2135 1021 2133
4 2136 2659 2133 508
4 199 2128 2660 1999
4 2128 492 2131 2660
4 2660 2131 1021 2135
4 1999 2660 2135 749
4 217 2137 2661 2132
4 2137 766 2138 2661
4 2661 2138 1022 2139
4 2132 2661 2139 508
4 218 2140 2662 2142
4 2140 524 2141 2662
4 2662 2141 1022 2138
4 2142 2662 2138 766
4 201 2012 2663 2144
4 2012 750 2143 2663
4 2663 2143 1022 2141
4 2144 2663 2141 524
4 200 2136 2664 2007
4 2136 508 2139 2664
4 2664 2139 1022 2143
4 2007 2664 2143 750
4 218 2145 2665 2140
4 2145 767 2146 2665
4 2665 2146 1023 2147
4 2140 2665 2147 524
4 219 2148 2666 2150
4 2148 540 2149 2666
4 2666 2149 1023 2146
4 2150 2666 2146 767
4 202 2020 2667 2152
4 2020 751 2151 2667
4 2667 2151 1023 2149
4 2152 2667 2149 540
4 201 2144 2668 2015
4 2144 524 2147 2668
4 2668 2147 1023 2151
4 2015 2668 2151 751
4 219 2153 2669 2148
4 2153 768 2154 2669
4 2669 2154 1024 2155
4 2148 2669 2155 540
4 220 2156 2670 2158
4 2156 556 2157 2670
4 2670 2157 1024 2154
4 2158 2670 2154 768
4 203 2028 2671 2160
4 2028 752 2159 2671
4 2671 2159 1024 2157
4 2160 2671 2157 556
4 202 2152 2672 2023
4 2152 540 2155 2672
4 2672 2155 1024 2159
4 2023 2672 2159 752
4 221 769 1025 301
4 222 317 1025 769
5 205 2037 753 1025 317
5 204 301 1025 753 2031
4 222 770 1026 317
4 223 333 1026 770
5 206 2046 754 1026 333
5 205 317 1026 754 2041
4 223 771 1027 333
4 224 349 1027 771
5 207 2054 755 1027 349
5 206 333 1027 755 2049
4 224 772 1028 349
4 225 365 1028 772
5 208 2062 756 1028 365
5 207 349 1028 756 2057
4 225 773 1029 365
4 226 381 1029 773
5 209 2070 757 1029 381
5 208 365 1029 757 2065
4 226 774 1030 381
4 227 397 1030 774
5 210 2078 758 1030 397
5 209 381 1030 758 2073
4 227 775 1031 397
4 228 413 1031 775
5 211 2086 759 1031 413
5 210 397 1031 759 2081
4 228 776 1032 413
4 229 429 1032 776
5 212 2094 760 1032 429
5 211 413 1032 760 2089
4 229 777 1033 429
4 230 445 1033 777
5 213 2102 761 1033 445
5 212 429 1033 761 2097
4 230 778 1034 445
4 231 461 1034 778
5 214 2110 762 1034 461
5 213 445 1034 762 2105
4 231 779 1035 461
4 232 477 1035 779
5 215 2118 763 1035 477
5 214 461 1035 763 2113
4 232 780 1036 477
4 233 493 1036 780
5 216 2126 764 1036 493
5 215 477 1036 764 2121
4 233 781 1037 493
4 234 509 1037 781
5 217 2134 765 1037 509
5 216 493 1037 765 2129
4 234 782 1038 509
4 235 525 1038 782
5 218 2142 766 1038 525
5 217 509 1038 766 2137
4 235 783 1039 525
4 236 541 1039 783
5 219 2150 767 1039 541
5 218 525 1039 767 2145
4 236 784 1040 541
4 237 557 1040 784
5 220 2158 768 1040 557
5 219 541 1040 768 2153
4 238 785 1041 302
4 239 318 1041 785
4 222 769 1041 318
4 221 302 1041 769
4 239 786 1042 318
4 240 334 1042 786
4 223 770 1042 334
4 222 318 1042 770
4 240 787 1043 334
4 241 350 1043 787
4 224 771 1043 350
4 223 334 1043 771
4 241 788 1044 350
4 242 366 1044 788
4 225 772 1044 366
4 224 350 1044 772
4 242 789 1045 366
4 243 382 1045 789
4 226 773 1045 382
4 225 366 1045 773
4 243 790 1046 382
4 244 398 1046 790
4 227 774 1046 398
4 226 382 1046 774
4 244 791 1047 398
4 245 414 1047 791
4 228 775 1047 414
4 227 398 1047 775
4 245 792 1048 414
4 246 430 1048 792
4 229 776 1048 430
4 228 414 1048 776
4 246 793 1049 430
4 247 446 1049 793
4 230 777 1049 446
4 229 430 1049 777
4 247 794 1050 446
4 248 462 1050 794
4 231 778 1050 462
4 230 446 1050 778
4 248 795 1051 462
4 249 478 1051 795
4 232 779 1051 478
4 231 462 1051 779
4 249 796 1052 478
4 250 494 1052 796
4 233 780 1052 494
4 232 478 1052 780
4 250 797 1053 494
4 251 510 1053 797
4 234 781 1053 510
4 233 494 1053 781
4 251 798 1054 510
4 252 526 1054 798
4 235 782 1054 526
4 234 510 1054 782
4 252 799 1055 526
4 253 542 1055 799
4 236 783 1055 542
4 235 526 1055 783
4 253 800 1056 542
4 254 558 1056 800
4 237 784 1056 558
4 236 542 1056 784
4 255 801 1057 303
4 256 319 1057 801
4 239 785 1057 319
4 238 303 1057 785
4 256 802 1058 319
4 257 335 1058 802
4 240 786 1058 335
4 239 319 1058 786
4 257 803 1059 335
4 258 351 1059 803
4 241 787 1059 351
4 240 335 1059 787
4 258 804 1060 351
4 259 367 1060 804
4 242 788 1060 367
4 241 351 1060 788
4 259 805 1061 367
4 260 383 1061 805
4 243 789 1061 383
4 242 367 1061 789
4 260 806 1062 383
4 261 399 1062 806
4 244 790 1062 399
4 243 383 1062 790
4 261 807 1063 399
4 262 415 1063 807
4 245 791 1063 415
4 244 399 1063 791
4 262 808 1064 415
4 263 431 1064 808
4 246 792 1064 431
4 245 415 1064 792
4 263 809 1065 431
4 264 447 1065 809
4 247 793 1065 447
4 246 431 1065 793
4 264 810 1066 447
4 265 463 1066 810
4 248 794 1066 463
4 247 447 1066 794
4 265 811 1067 463
4 266 479 1067 811
4 249 795 1067 479
4 248 463 1067 795
4 266 812 1068 479
4 267 495 1068 812
4 250 796 1068 495
4 249 479 1068 796
4 267 813 1069 495
4 268 511 1069 813
4 251 797 1069 511
4 250 495 1069 797
4 268 814 1070 511
4 269 527 1070 814
4 252 798 1070 527
4 251 511 1070 798
4 269 815 1071 527
4 270 543 1071 815
4 253 799 1071 543
4 252 527 1071 799
4 270 816 1072 543
4 271 559 1072 816
4 254 800 1072 559
4 253 543 1072 800
4 272 817 1073 304
4 273 320 1073 817
4 256 801 1073 320
4 255 304 1073 801
4 273 818 1074 320
4 274 336 1074 818
4 257 802 1074 336
4 256 320 1074 802
4 274 819 1075 336
4 275 352 1075 819
4 258 803 1075 352
4 257 336 1075 803
4 275 820 1076 352
4 276 368 1076 820
4 259 804 1076 368
4 258 352 1076 804
4 276 821 1077 368
4 277 384 1077 821
4 260 805 1077 384
4 259 368 1077 805
4 277 822 1078 384
4 278 400 1078 822
4 261 806 1078 400
4 260 384 1078 806
4 278 823 1079 400
4 279 416 1079 823
4 262 807 1079 416
4 261 400 1079 807
4 279 824 1080 416
4 280 432 1080 824
4 263 808 1080 432
4 262 416 1080 808
4 280 825 1081 432
4 281 448 1081 825
4 264 809 1081 448
4 263 432 1081 809
4 281 826 1082 448
4 282 464 1082 826
4 265 810 1082 464
4 264 448 1082 810
4 282 827 1083 464
4 283 480 1083 827
4 266 811 1083 480
4 265 464 1083 811
4 283 828 1084 480
4 284 496 1084 828
4 267 812 1084 496
4 266 480 1084 812
4 284 829 1085 496
4 285 512 1085 829
4 268 813 1085 512
4 267 496 1085 813
4 285 830 1086 512
4 286 528 1086 830
4 269 814 1086 528
4 268 512 1086 814
4 286 831 1087 528
4 287 544 1087 831
4 270 815 1087 544
4 269 528 1087 815
4 287 832 1088 544
4 288 560 1088 832
4 271 816 1088 560
4 270 544 1088 816
